<svg width="39" height="35" viewBox="0 0 39 35" fill="none" xmlns="http://www.w3.org/2000/svg">
<g clip-path="url(#clip0_211_2052)">
<path d="M38.5802 14.4803C38.5841 14.4513 38.5841 14.4219 38.5802 14.3929C38.5839 14.3692 38.5839 14.3451 38.5802 14.3214L38.2965 12.2801C38.2556 12.0359 38.1462 11.8076 37.9806 11.6208L37.9319 11.5652L37.8429 11.4779L32.9331 7.33167L33.0708 7.46671C32.9581 7.33454 32.8167 7.22882 32.6569 7.15734C32.497 7.08586 32.3228 7.05043 32.1472 7.05367H30.6564C30.414 7.04897 30.1771 7.12453 29.984 7.26814C29.7811 7.12539 29.5369 7.05022 29.2872 7.05367H27.7964C27.6009 7.05056 27.408 7.09814 27.2373 7.19159C27.0666 7.28504 26.9241 7.42105 26.8242 7.58585C26.6702 7.82122 26.6124 8.10482 26.6621 8.38014L26.8485 9.66688C26.725 9.59827 26.5853 9.56267 26.4434 9.56363H19.2246C18.9655 9.56523 18.7125 9.63965 18.4954 9.77808C18.2854 9.90694 18.1168 10.0914 18.0093 10.3103L17.4502 9.84163C17.2302 9.64204 16.9398 9.53386 16.64 9.5398H5.31348C5.05356 9.54444 4.79941 9.61563 4.57622 9.74632C4.27087 9.92153 4.0471 10.2064 3.95235 10.5406L0.355083 22.3358C0.287869 22.5302 0.281257 22.7398 0.336094 22.9378C0.390931 23.1359 0.504733 23.3135 0.662961 23.4478C0.704191 23.4821 0.747482 23.5139 0.792595 23.5431C0.792595 23.5431 0.719666 23.4954 0.679156 23.4558L5.58897 27.6099C5.79666 27.7974 6.06821 27.9021 6.3505 27.9038H17.7662C18.0269 27.8971 18.2812 27.8232 18.5035 27.6893C18.6292 27.622 18.7416 27.5332 18.8357 27.4272L18.8762 27.3716L18.941 27.2922L18.9896 27.2048L19.5243 27.6576C19.729 27.8376 19.9947 27.9366 20.2697 27.9356H31.7097C31.9701 27.927 32.2239 27.8532 32.4469 27.7211C32.5698 27.6496 32.6816 27.5613 32.7792 27.459L32.8196 27.4034L32.8844 27.324C32.9189 27.2737 32.9488 27.2205 32.9735 27.1651C33 27.1169 33.0217 27.0664 33.0384 27.0142L36.3197 16.2436V16.1483C36.3237 16.1113 36.3237 16.0741 36.3197 16.0371V15.9656C36.3236 15.9419 36.3236 15.9178 36.3197 15.8941C36.3233 15.8439 36.3233 15.7935 36.3197 15.7432H37.3729C37.4646 15.7514 37.5568 15.7514 37.6484 15.7432H37.7213C37.7806 15.7258 37.8377 15.7018 37.8915 15.6717H37.9725L38.1183 15.5605L38.1831 15.5129L38.2965 15.3699V15.3223L38.3776 15.1872C38.3731 15.1609 38.3731 15.1341 38.3776 15.1078C38.3733 15.0949 38.3733 15.081 38.3776 15.0681C38.3948 15.0215 38.4084 14.9737 38.4181 14.9251C38.4143 14.9094 38.4143 14.8931 38.4181 14.8774C38.4142 14.8538 38.4142 14.8296 38.4181 14.8059C38.4181 14.8059 38.5802 14.4962 38.5802 14.4803Z" fill="black"/>
<path d="M16.972 10.4453C17.015 10.4835 17.045 10.5336 17.0581 10.589C17.0711 10.6444 17.0665 10.7023 17.0449 10.7551L13.4558 22.5424C13.4106 22.671 13.3181 22.7786 13.1965 22.8442C13.0975 22.9091 12.983 22.9474 12.8643 22.9554H1.45674C1.35932 22.9508 1.26703 22.9112 1.19748 22.8442C1.1561 22.8067 1.12707 22.7579 1.11408 22.7042C1.10109 22.6504 1.10474 22.5941 1.12456 22.5424L4.72183 10.7551C4.76328 10.6248 4.85284 10.5143 4.97299 10.4453C5.07358 10.3851 5.18756 10.3497 5.30517 10.3421H16.7127C16.8094 10.343 16.902 10.3799 16.972 10.4453ZM11.017 20.1674L13.1641 13.13H7.15243L5.01349 20.1674H11.017ZM27.861 10.5645C27.8999 10.6088 27.9486 10.644 28.0033 10.6673C28.058 10.6907 28.1173 10.7017 28.177 10.6995H29.6597C29.7161 10.7 29.7717 10.6865 29.8214 10.6601C29.871 10.6337 29.9129 10.5953 29.9432 10.5486C29.9695 10.5121 29.9881 10.4708 29.9979 10.4271C30.0076 10.3835 30.0083 10.3383 29.9999 10.2944L29.7083 8.19748C29.6805 8.10043 29.6306 8.01082 29.5625 7.93537C29.5235 7.89102 29.4749 7.85586 29.4202 7.83248C29.3655 7.8091 29.3061 7.79812 29.2465 7.80034H27.7638C27.7073 7.7998 27.6517 7.81337 27.6021 7.83978C27.5524 7.86618 27.5105 7.90455 27.4802 7.95126C27.4235 8.06245 27.3992 8.13394 27.4235 8.19748L27.7233 10.2944C27.7387 10.3965 27.7869 10.4911 27.861 10.5645ZM32.5683 8.1816C32.5405 8.08454 32.4906 7.99493 32.4224 7.91948C32.3851 7.8753 32.3379 7.84014 32.2845 7.81672C32.2312 7.79331 32.173 7.78226 32.1145 7.78445H30.6238C30.5683 7.7829 30.5133 7.79611 30.4648 7.82268C30.4163 7.84924 30.3761 7.88819 30.3483 7.93537C30.2944 8.00583 30.2711 8.09435 30.2835 8.1816L30.5833 10.2785C30.6021 10.3795 30.6498 10.4732 30.721 10.5486C30.7606 10.5921 30.8094 10.6266 30.8639 10.6499C30.9185 10.6732 30.9775 10.6847 31.037 10.6836H32.5277C32.5832 10.6843 32.6377 10.6708 32.686 10.6443C32.7344 10.6178 32.7748 10.5793 32.8032 10.5327C32.8314 10.4972 32.8511 10.4559 32.8609 10.4119C32.8708 10.3679 32.8704 10.3224 32.8599 10.2785L32.5683 8.1816ZM26.5566 11.3588L26.4107 10.3262H19.2243C19.1115 10.3323 19.0023 10.3679 18.9083 10.4294C18.8487 10.4613 18.7967 10.5056 18.7562 10.559C18.7156 10.6125 18.6874 10.674 18.6734 10.7392L18.0739 12.709C18.0499 12.7583 18.0417 12.8135 18.0504 12.8674C18.0591 12.9212 18.0842 12.9713 18.1224 13.0109C18.1908 13.0738 18.2799 13.1105 18.3736 13.1141H27.1076L24.9605 20.1516H16.2509C16.1386 20.1541 16.0292 20.1871 15.935 20.2468C15.8204 20.3182 15.7367 20.4285 15.7 20.5566L15.0923 22.5265C15.0725 22.577 15.0673 22.6319 15.0773 22.6852C15.0873 22.7385 15.1121 22.788 15.149 22.8283C15.2152 22.8955 15.3051 22.9352 15.4002 22.9395H26.8402C26.9585 22.9295 27.0725 22.8913 27.1723 22.8283C27.292 22.7624 27.3817 22.6546 27.4235 22.5265L30.7129 11.7559H27.0103C26.9516 11.757 26.8932 11.7463 26.8389 11.7245C26.7845 11.7026 26.7354 11.6701 26.6944 11.6288C26.6274 11.5568 26.58 11.4694 26.5566 11.3746V11.3588Z" fill="white"/>
</g>
<defs>
<clipPath id="clip0_211_2052">
<rect width="38.2838" height="20.8821" fill="white" transform="translate(0.299316 7.05347)"/>
</clipPath>
</defs>
</svg>
