<svg width="39" height="35" viewBox="0 0 39 35" fill="none" xmlns="http://www.w3.org/2000/svg">
<g clip-path="url(#clip0_211_2080)">
<path d="M38.8868 14.4803C38.8908 14.4513 38.8908 14.4219 38.8868 14.3929C38.8906 14.3692 38.8906 14.3451 38.8868 14.3214L38.6032 12.2801C38.5623 12.0359 38.4529 11.8076 38.2872 11.6208L38.2386 11.5652L38.1495 11.4779L33.2397 7.33167L33.3774 7.46671C33.2648 7.33454 33.1233 7.22882 32.9635 7.15734C32.8037 7.08586 32.6295 7.05043 32.4538 7.05367H30.9631C30.7206 7.04897 30.4838 7.12453 30.2906 7.26814C30.0877 7.12539 29.8435 7.05022 29.5938 7.05367H28.103C27.9075 7.05056 27.7147 7.09814 27.5439 7.19159C27.3732 7.28504 27.2307 7.42105 27.1308 7.58585C26.9769 7.82122 26.919 8.10482 26.9688 8.38014L27.1551 9.66688C27.0317 9.59827 26.8919 9.56267 26.75 9.56363H19.5312C19.2722 9.56523 19.0191 9.63965 18.802 9.77808C18.592 9.90694 18.4235 10.0914 18.3159 10.3103L17.7568 9.84163C17.5368 9.64204 17.2464 9.53386 16.9467 9.5398H5.62012C5.3602 9.54444 5.10605 9.61563 4.88286 9.74632C4.57752 9.92153 4.35374 10.2064 4.25899 10.5406L0.661724 22.3358C0.59451 22.5302 0.587898 22.7398 0.642735 22.9378C0.697571 23.1359 0.811373 23.3135 0.969602 23.4478C1.01083 23.4821 1.05412 23.5139 1.09924 23.5431C1.09924 23.5431 1.02631 23.4954 0.985797 23.4558L5.89561 27.6099C6.1033 27.7974 6.37485 27.9021 6.65714 27.9038H18.0728C18.3335 27.8971 18.5879 27.8232 18.8101 27.6893C18.9358 27.622 19.0483 27.5332 19.1423 27.4272L19.1828 27.3716L19.2476 27.2922L19.2962 27.2048L19.831 27.6576C20.0357 27.8376 20.3013 27.9366 20.5763 27.9356H32.0163C32.2767 27.927 32.5306 27.8532 32.7536 27.7211C32.8765 27.6496 32.9883 27.5613 33.0858 27.459L33.1263 27.4034L33.1911 27.324C33.2255 27.2737 33.2554 27.2205 33.2802 27.1651C33.3067 27.1169 33.3284 27.0664 33.345 27.0142L36.6263 16.2436V16.1483C36.6303 16.1113 36.6303 16.0741 36.6263 16.0371V15.9656C36.6302 15.9419 36.6302 15.9178 36.6263 15.8941C36.63 15.8439 36.63 15.7935 36.6263 15.7432H37.6796C37.7712 15.7514 37.8634 15.7514 37.955 15.7432H38.028C38.0873 15.7258 38.1444 15.7018 38.1981 15.6717H38.2792L38.4249 15.5605L38.4898 15.5129L38.6032 15.3699V15.3223L38.6842 15.1872C38.6797 15.1609 38.6797 15.1341 38.6842 15.1078C38.6799 15.0949 38.6799 15.081 38.6842 15.0681C38.7014 15.0215 38.715 14.9737 38.7247 14.9251C38.721 14.9094 38.721 14.8931 38.7247 14.8774C38.7208 14.8538 38.7208 14.8296 38.7247 14.8059C38.7247 14.8059 38.8868 14.4962 38.8868 14.4803Z" fill="black"/>
<path d="M17.2786 10.4453C17.3216 10.4835 17.3517 10.5336 17.3647 10.589C17.3778 10.6444 17.3731 10.7023 17.3516 10.7551L13.7624 22.5424C13.7172 22.671 13.6247 22.7786 13.5031 22.8442C13.4042 22.9091 13.2896 22.9474 13.1709 22.9554H1.76338C1.66596 22.9508 1.57367 22.9112 1.50412 22.8442C1.46274 22.8067 1.43371 22.7579 1.42072 22.7042C1.40773 22.6504 1.41139 22.5941 1.4312 22.5424L5.02847 10.7551C5.06992 10.6248 5.15948 10.5143 5.27963 10.4453C5.38022 10.3851 5.4942 10.3497 5.61181 10.3421H17.0193C17.116 10.343 17.2087 10.3799 17.2786 10.4453ZM11.3237 20.1674L13.4707 13.13H7.45907L5.32013 20.1674H11.3237ZM28.1676 10.5645C28.2066 10.6088 28.2552 10.644 28.3099 10.6673C28.3646 10.6907 28.424 10.7017 28.4836 10.6995H29.9663C30.0228 10.7 30.0784 10.6865 30.128 10.6601C30.1777 10.6337 30.2196 10.5953 30.2499 10.5486C30.2762 10.5121 30.2948 10.4708 30.3045 10.4271C30.3143 10.3835 30.3149 10.3383 30.3065 10.2944L30.0149 8.19748C29.9871 8.10043 29.9373 8.01082 29.8691 7.93537C29.8301 7.89102 29.7815 7.85586 29.7268 7.83248C29.6721 7.8091 29.6127 7.79812 29.5531 7.80034H28.0704C28.014 7.7998 27.9583 7.81337 27.9087 7.83978C27.8591 7.86618 27.8171 7.90455 27.7869 7.95126C27.7301 8.06245 27.7058 8.13394 27.7301 8.19748L28.0299 10.2944C28.0453 10.3965 28.0936 10.4911 28.1676 10.5645ZM32.8749 8.1816C32.8471 8.08454 32.7972 7.99493 32.7291 7.91948C32.6918 7.8753 32.6446 7.84014 32.5912 7.81672C32.5378 7.79331 32.4796 7.78226 32.4212 7.78445H30.9304C30.8749 7.7829 30.82 7.79611 30.7715 7.82268C30.723 7.84924 30.6827 7.88819 30.655 7.93537C30.6011 8.00583 30.5777 8.09435 30.5902 8.1816L30.8899 10.2785C30.9087 10.3795 30.9565 10.4732 31.0277 10.5486C31.0673 10.5921 31.116 10.6266 31.1706 10.6499C31.2251 10.6732 31.2841 10.6847 31.3436 10.6836H32.8344C32.8898 10.6843 32.9444 10.6708 32.9927 10.6443C33.0411 10.6178 33.0815 10.5793 33.1099 10.5327C33.1381 10.4972 33.1577 10.4559 33.1676 10.4119C33.1774 10.3679 33.177 10.3224 33.1666 10.2785L32.8749 8.1816ZM26.8632 11.3588L26.7174 10.3262H19.531C19.4181 10.3323 19.309 10.3679 19.215 10.4294C19.1553 10.4613 19.1034 10.5056 19.0628 10.559C19.0223 10.6125 18.994 10.674 18.9801 10.7392L18.3805 12.709C18.3566 12.7583 18.3484 12.8135 18.357 12.8674C18.3658 12.9212 18.3909 12.9713 18.4291 13.0109C18.4974 13.0738 18.5866 13.1105 18.6803 13.1141H27.4142L25.2672 20.1516H16.5575C16.4452 20.1541 16.3359 20.1871 16.2416 20.2468C16.127 20.3182 16.0433 20.4285 16.0066 20.5566L15.399 22.5265C15.3791 22.577 15.3739 22.6319 15.3839 22.6852C15.394 22.7385 15.4188 22.788 15.4557 22.8283C15.5219 22.8955 15.6117 22.9352 15.7068 22.9395H27.1468C27.2651 22.9295 27.3792 22.8913 27.479 22.8283C27.5986 22.7624 27.6884 22.6546 27.7301 22.5265L31.0195 11.7559H27.3169C27.2582 11.757 27.1999 11.7463 27.1455 11.7245C27.0912 11.7026 27.042 11.6701 27.001 11.6288C26.934 11.5568 26.8866 11.4694 26.8632 11.3746V11.3588Z" fill="white"/>
</g>
<defs>
<clipPath id="clip0_211_2080">
<rect width="38.2838" height="20.8821" fill="white" transform="translate(0.605957 7.05347)"/>
</clipPath>
</defs>
</svg>
