<svg width="34" height="35" viewBox="0 0 34 35" fill="none" xmlns="http://www.w3.org/2000/svg">
<g clip-path="url(#clip0_211_2049)">
<path fill-rule="evenodd" clip-rule="evenodd" d="M10.0455 10.6136L3.09473 17.4945C4.48501 18.8708 6.0732 20.0308 7.80478 20.9382C8.2834 22.195 9.03361 23.3737 10.0554 24.3852C13.8997 28.1908 20.1326 28.1908 23.9768 24.3852C24.9986 23.3737 25.7489 22.195 26.2275 20.9381C27.959 20.0308 29.5472 18.8708 30.9375 17.4945L23.9923 10.6192C23.9872 10.614 23.982 10.6089 23.9768 10.6037C20.1326 6.7981 13.8997 6.7981 10.0554 10.6037C10.0521 10.607 10.0488 10.6103 10.0455 10.6136ZM23.3117 22.1797C21.2862 22.8564 19.1598 23.2029 17.0161 23.2029C14.8724 23.2029 12.7461 22.8564 10.7206 22.1797C10.9401 22.4679 11.1824 22.7445 11.4476 23.0071C14.523 26.0516 19.5092 26.0516 22.5847 23.0071C22.8499 22.7445 23.0922 22.4679 23.3117 22.1797ZM11.5903 11.8441C12.1126 12.1856 12.6679 12.4779 13.249 12.7162C14.4433 13.2059 15.7234 13.458 17.0161 13.458C18.3089 13.458 19.5889 13.2059 20.7832 12.7162C21.3643 12.4779 21.9196 12.1856 22.442 11.8441C19.4049 8.98331 14.6273 8.98332 11.5903 11.8441Z" fill="#3B4158"/>
</g>
<defs>
<clipPath id="clip0_211_2049">
<rect width="27.8428" height="19.4899" fill="white" transform="translate(3.09473 7.74951)"/>
</clipPath>
</defs>
</svg>
