<svg width="34" height="35" viewBox="0 0 34 35" fill="none" xmlns="http://www.w3.org/2000/svg">
<g clip-path="url(#clip0_211_2056)">
<path d="M31.7852 10.2308C31.7852 10.2544 31.7852 10.2838 31.779 10.3014C31.7484 10.5309 31.7484 10.7604 31.7667 10.9958C31.779 11.0546 31.7913 11.1135 31.8403 11.1605C31.92 11.2488 32.0426 11.2311 32.0917 11.1252C32.1162 11.0723 32.1162 11.0193 32.1039 10.9664C32.0426 10.7428 32.0304 10.5074 32.0243 10.2779C32.0243 10.2661 32.0243 10.2485 32.0243 10.2308C32.0917 10.2249 32.153 10.2191 32.2082 10.2191C32.2511 10.2132 32.2879 10.2073 32.3186 10.1896C32.4105 10.1426 32.4105 10.0425 32.3124 9.99546C32.2756 9.97781 32.2266 9.97192 32.1837 9.97192C32.0304 9.97781 31.8771 9.97781 31.7238 9.97781C31.6687 9.97781 31.6135 9.9837 31.5583 9.98958C31.5276 9.99546 31.4909 9.99546 31.4664 10.0131C31.4234 10.0308 31.3989 10.0602 31.3989 10.1014C31.405 10.1426 31.4234 10.1661 31.4664 10.1838C31.4909 10.2014 31.5215 10.2073 31.5522 10.2073C31.6257 10.2132 31.7055 10.2249 31.7852 10.2308ZM33.4711 10.5015C33.4711 10.5074 33.4772 10.5133 33.4772 10.5133C33.5018 10.6721 33.5263 10.8251 33.5447 10.9781C33.5508 11.0311 33.557 11.0782 33.5937 11.1193C33.6734 11.2194 33.7961 11.2076 33.8512 11.1017C33.8758 11.0487 33.8819 10.9958 33.8696 10.9369C33.8328 10.7604 33.8144 10.5839 33.7777 10.4132C33.7531 10.3073 33.7225 10.2073 33.6918 10.1131C33.6734 10.0543 33.6305 10.0131 33.557 10.0072C33.4834 9.99546 33.4282 10.0308 33.3975 10.0837C33.3608 10.1308 33.3301 10.1779 33.3056 10.2308C33.2627 10.325 33.2259 10.4191 33.1769 10.5074C33.1707 10.5309 33.1646 10.5486 33.1523 10.5662C33.1462 10.5545 33.1401 10.5486 33.1401 10.5486C33.0603 10.4015 32.9868 10.2544 32.9071 10.1131C32.8948 10.1014 32.8887 10.0896 32.8826 10.0778C32.8458 10.0249 32.8029 9.99546 32.7354 9.99546C32.6741 10.0013 32.625 10.0367 32.5944 10.0896C32.5821 10.1131 32.5821 10.1308 32.576 10.1543C32.5515 10.3426 32.5208 10.5309 32.4963 10.7192C32.484 10.8251 32.4779 10.931 32.4779 11.037C32.4718 11.0605 32.4779 11.0899 32.4902 11.1135C32.5025 11.1605 32.5392 11.19 32.5883 11.1958C32.6496 11.2017 32.6925 11.1841 32.7109 11.137C32.7293 11.1017 32.7354 11.0723 32.7416 11.0429C32.7661 10.9369 32.7845 10.8369 32.8029 10.7369C32.8151 10.678 32.8212 10.631 32.8397 10.5662C32.8519 10.5898 32.8641 10.6074 32.8764 10.6251C32.9316 10.6957 32.9868 10.7663 33.0542 10.8251C33.1217 10.8722 33.1769 10.8663 33.232 10.8134C33.2443 10.8016 33.2504 10.7957 33.2627 10.7839C33.3179 10.7016 33.3853 10.6192 33.4405 10.5368C33.4527 10.525 33.4589 10.5133 33.4711 10.5015Z" fill="#3A3B7B"/>
<path d="M19.345 10.3465C19.3023 10.4583 19.2942 10.5389 19.3139 10.6059C19.3356 10.6969 19.392 10.7267 19.4686 10.7036C20.1887 10.5327 21.7678 11.0178 22.3524 11.153C22.4902 11.1814 22.6024 11.0105 22.5083 10.8574C22.371 10.7091 20.7927 10.074 20.1904 10.0394C19.9543 10.0266 19.5323 9.9685 19.345 10.3465Z" fill="#3A3B7B"/>
<path d="M25.5163 8.29086C25.593 8.33338 25.6359 8.37393 25.6571 8.41925C25.6886 8.47869 25.672 8.51981 25.619 8.54079C25.143 8.76377 24.5096 9.72371 24.2539 10.0548C24.1919 10.1309 24.0489 10.0867 24.0273 9.96144C24.0318 9.81983 24.5933 8.77808 24.9066 8.49434C25.0298 8.38356 25.2332 8.1662 25.5163 8.29086Z" fill="#3A3B7B"/>
<path d="M21.7255 7.81823C21.8177 7.75154 21.9135 7.72817 21.9624 7.77151C22.6806 8.36101 23.0615 9.29454 23.2973 10.1492C23.3062 10.1691 23.3067 10.1976 23.2996 10.2274C23.2967 10.2529 23.2773 10.2798 23.2465 10.3007C23.2136 10.3236 23.1853 10.3306 23.1719 10.3108C22.8572 9.89993 21.0594 8.30115 21.7255 7.81823Z" fill="#3A3B7B"/>
<path d="M6.51707 18.0386C6.6892 17.9156 6.87633 17.8132 7.07435 17.7338C7.28153 17.6769 7.50236 17.6863 7.70346 17.7606C7.90452 17.835 8.07497 17.9701 8.18891 18.1456C8.29084 18.3207 8.33071 18.5228 8.30257 18.7215C8.27444 18.9202 8.1798 19.1048 8.03286 19.2474C7.91896 19.363 7.78965 19.4637 7.64836 19.547C7.01864 19.9374 6.38331 20.3065 5.74801 20.6969C5.61802 20.7946 5.48011 20.8823 5.33562 20.959C5.11583 21.0642 4.86465 21.0924 4.62551 21.0387C4.38637 20.985 4.17431 20.8527 4.026 20.6649C3.91513 20.5318 3.82155 20.3863 3.74735 20.2316C3.14548 19.0174 2.52133 17.8086 1.94175 16.5731C1.67425 16.0382 1.45691 15.4231 1.24514 14.8294C1.15352 14.6569 1.13563 14.4569 1.19528 14.2719C1.25493 14.087 1.38741 13.9316 1.56454 13.839C1.74167 13.7463 1.94948 13.7236 2.14377 13.7757C2.33806 13.8279 2.50351 13.9507 2.60492 14.118C2.91662 14.5156 3.19255 14.9379 3.4297 15.3803C4.03157 16.4501 4.60558 17.5198 5.18515 18.5574C5.2189 18.6148 5.25611 18.6701 5.29661 18.7232C5.73284 18.5472 6.14313 18.317 6.51707 18.0386Z" fill="#3A3B7B"/>
<path d="M12.7401 17.6654C11.3636 19.2112 9.05643 18.8207 7.89728 16.831C7.07249 15.4189 6.9276 13.0869 8.72208 11.616C9.10527 11.3081 9.56347 11.0983 10.054 11.0063C10.6554 10.9235 11.2686 11.0253 11.8061 11.2972C12.3436 11.5691 12.7777 11.997 13.0466 12.52C14.0274 14.2315 13.8881 16.4138 12.7401 17.6654ZM12.1828 14.0604C12.0366 13.6398 11.7432 13.2807 11.3524 13.0441C11.1313 12.8928 10.8626 12.8193 10.5917 12.8359C10.3206 12.8524 10.0639 12.9581 9.8645 13.135C9.0676 13.8143 8.90038 15.4243 9.47996 16.3817C9.55385 16.5378 9.66232 16.6766 9.7979 16.7882C9.93348 16.8999 10.0929 16.9818 10.2648 17.0281C10.4368 17.0745 10.6173 17.0842 10.7936 17.0567C10.9699 17.029 11.1378 16.9648 11.2856 16.8684C11.7176 16.547 12.0345 16.1043 12.1923 15.6021C12.3501 15.0998 12.341 14.5628 12.1661 14.0657L12.1828 14.0604Z" fill="#3A3B7B"/>
<path d="M18.3572 14.7345C18.2163 14.7636 18.0707 14.7653 17.929 14.7396C17.7874 14.7138 17.6525 14.6612 17.5324 14.5847C17.4273 14.527 17.3368 14.4477 17.2675 14.3524C17.1982 14.2571 17.1517 14.1483 17.1315 14.0337C17.1112 13.9192 17.1177 13.8017 17.1504 13.6898C17.1831 13.5779 17.2413 13.4744 17.3207 13.3866C17.459 13.2103 17.6554 13.084 17.8779 13.0283C18.459 12.8664 19.0572 12.7677 19.6613 12.7341C19.794 12.7193 19.9284 12.7301 20.0567 12.7658C20.1851 12.8016 20.3046 12.8615 20.4085 12.9423C20.5123 13.023 20.5983 13.1228 20.6614 13.2359C20.7244 13.3489 20.7633 13.4729 20.7758 13.6006C20.95 14.2277 20.969 14.8853 20.8315 15.5208C20.33 17.5747 18.6024 18.2807 16.663 17.6228C16.1187 17.4469 15.6413 17.1191 15.2921 16.6814C14.8264 16.1543 14.4961 15.5296 14.328 14.8575C14.1918 14.2591 14.2067 13.6381 14.3716 13.0463C14.5364 12.4545 14.8463 11.9092 15.2754 11.4557C15.6827 10.9629 16.2112 10.5751 16.8135 10.3272C17.1941 10.1258 17.6395 10.0686 18.0619 10.1667C18.1577 10.1922 18.2446 10.2418 18.3138 10.3103C18.3829 10.3789 18.4316 10.464 18.4549 10.5568C18.4783 10.6496 18.4753 10.7466 18.4463 10.8379C18.4174 10.9292 18.3635 11.0114 18.2903 11.076C18.1512 11.1969 18 11.3044 17.8389 11.3969C17.3435 11.6997 16.9123 12.0899 16.5683 12.5469C16.3428 12.8425 16.1875 13.1821 16.1134 13.5415C16.0392 13.901 16.048 14.2717 16.1392 14.6275C16.2656 15.1127 16.5461 15.5483 16.9417 15.8738C18.1677 16.9435 19.7615 15.9112 19.4829 14.451C19.0761 14.5473 18.7194 14.6489 18.3572 14.7345Z" fill="#3A3B7B"/>
<path d="M25.8476 17.7511C24.0365 18.8209 21.9745 17.7511 21.5231 15.5047C21.1943 13.9001 21.8185 11.6536 24.0031 10.7978C24.4679 10.6197 24.972 10.5571 25.4687 10.616C26.0655 10.7208 26.613 11.0028 27.0339 11.4221C27.4548 11.8415 27.728 12.377 27.8149 12.9534C28.1827 14.8628 27.3468 16.9007 25.8476 17.7511ZM26.4774 14.1514C26.4769 13.7071 26.3131 13.2772 26.0149 12.9373C25.8555 12.7271 25.625 12.5765 25.3628 12.5111C25.1006 12.4458 24.8229 12.4697 24.577 12.579C23.5962 12.9854 22.9052 14.4617 23.156 15.5475C23.1751 15.7179 23.2328 15.8822 23.325 16.029C23.4172 16.1757 23.5417 16.3014 23.6898 16.3972C23.8379 16.4929 24.006 16.5565 24.1823 16.5834C24.3587 16.6103 24.5391 16.6 24.7108 16.553C25.2292 16.3792 25.6781 16.0543 25.9948 15.6238C26.3116 15.1932 26.4803 14.6785 26.4774 14.1514Z" fill="#3A3B7B"/>
<path d="M29.646 18.2005C29.6187 18.3963 29.5115 18.5736 29.3479 18.6935C29.1843 18.8133 28.9779 18.8659 28.7739 18.8397C28.5699 18.8134 28.3852 18.7105 28.2603 18.5535C28.1354 18.3966 28.0806 18.1984 28.108 18.0026C28.1353 17.8068 28.2426 17.6295 28.4061 17.5097C28.5697 17.3898 28.7761 17.3372 28.9801 17.3634C29.1841 17.3897 29.3688 17.4926 29.4937 17.6496C29.6186 17.8066 29.6734 18.0048 29.646 18.2005ZM29.1612 10.9851C29.2672 10.8297 29.4227 10.7114 29.6045 10.6478C29.7863 10.5842 29.9846 10.5787 30.1699 10.6321C30.3583 10.6773 30.5247 10.7833 30.6414 10.9323C30.7581 11.0813 30.8179 11.2642 30.8108 11.4504C30.7862 11.7492 30.7397 12.0459 30.6715 12.3383C30.4876 13.3278 30.3092 14.3173 30.1142 15.2962C30.025 15.6866 29.908 16.061 29.7798 16.4568C29.7352 16.5805 29.6607 16.6923 29.5625 16.7831C29.5014 16.8514 29.4234 16.9037 29.3356 16.9353C29.2479 16.967 29.1532 16.9768 29.0604 16.964C28.9677 16.9512 28.8797 16.9162 28.8048 16.8621C28.7299 16.8081 28.6704 16.7367 28.6318 16.6547C28.5656 16.5076 28.5296 16.3496 28.5259 16.1894C28.5259 15.5261 28.5259 14.8576 28.5705 14.189C28.6463 13.2348 28.7953 12.2873 29.0163 11.3542C29.0424 11.2291 29.0914 11.1096 29.1612 11.0012V10.9851Z" fill="#3A3B7B"/>
<path fill-rule="evenodd" clip-rule="evenodd" d="M4.16243 22.4985C4.09663 22.6394 4.07859 22.7966 4.11074 22.9479C4.13213 23.1473 4.17912 23.3434 4.25062 23.5318C4.3399 23.7624 4.4398 23.9905 4.56298 24.2717C4.5913 24.3364 4.6209 24.4039 4.65188 24.4749C4.81799 24.8558 5.02642 25.3426 5.30443 26.047C5.38311 26.2471 5.45299 26.4489 5.52336 26.6521C5.55178 26.7341 5.58031 26.8165 5.60951 26.899C5.71418 27.1924 5.89428 27.4561 6.13301 27.665C6.23438 27.7798 6.36884 27.8635 6.51961 27.9053C6.67332 27.948 6.83681 27.9453 6.98889 27.8976C7.14097 27.8498 7.27454 27.7593 7.37226 27.6376C7.46807 27.5184 7.52504 27.3747 7.53612 27.2246C7.59828 26.9322 7.57706 26.629 7.47462 26.3471C7.31202 25.879 7.12681 25.4102 6.91322 24.9517L6.91224 24.9497C6.56088 24.2323 6.20372 23.52 5.82966 22.8073L5.82686 22.8023C5.71736 22.6166 5.57505 22.4507 5.40634 22.3118C5.29681 22.1879 5.14572 22.1043 4.97888 22.0755C4.80847 22.0461 4.63272 22.0757 4.48301 22.1592C4.34138 22.2368 4.22911 22.3556 4.16243 22.4985Z" fill="#3A3B7B"/>
<path fill-rule="evenodd" clip-rule="evenodd" d="M9.5292 20.732C8.97827 20.5951 8.4029 20.5751 7.84319 20.6736C7.40967 20.7145 6.98329 20.8105 6.68722 21.0006C6.53664 21.0974 6.41489 21.2216 6.34717 21.3795C6.27908 21.5383 6.27038 21.7199 6.32619 21.9222C6.42807 22.2928 6.56038 22.6531 6.69222 23.0123L6.71358 23.0705L6.71409 23.0717C7.11107 24.1152 7.51183 25.1551 7.91624 26.1914C7.9634 26.3547 8.03009 26.5123 8.11496 26.6609L8.11655 26.6636C8.22867 26.8482 8.37248 27.0133 8.5419 27.152C8.62663 27.2283 8.73141 27.281 8.84503 27.3046C8.95976 27.3284 9.07908 27.3215 9.18999 27.2846C9.30094 27.2478 9.39918 27.1824 9.47405 27.0956C9.5477 27.0102 9.59594 26.9074 9.61365 26.7979C9.68674 26.5005 9.66333 26.1888 9.54649 25.9045C9.51003 25.8089 9.48143 25.7111 9.45129 25.6082C9.44124 25.5739 9.43105 25.539 9.4203 25.5034C10.346 25.1561 11.331 24.6892 11.6773 23.6028C11.813 23.2274 11.8243 22.8208 11.7097 22.439C11.595 22.0567 11.3597 21.7178 11.0362 21.4691C10.5959 21.1209 10.0815 20.8693 9.5292 20.732ZM8.00209 22.0645C8.02032 22.0595 8.03869 22.0548 8.0571 22.0504C8.65977 21.9595 9.27635 22.0807 9.79335 22.3915C10.0212 22.5436 10.1145 22.7126 10.1306 22.8752C10.1471 23.0426 10.0837 23.224 9.95627 23.3983C9.71553 23.7277 9.27621 23.9914 8.87938 24.0405C8.59008 23.4011 8.2963 22.7358 8.00209 22.0645Z" fill="#3A3B7B"/>
<path d="M13.2021 19.5616C13.8582 19.2708 14.6709 19.2206 15.3068 19.4251C15.467 19.4698 15.606 19.5667 15.6999 19.699C15.7933 19.8306 15.8364 19.9891 15.822 20.1475C15.8211 20.2504 15.7948 20.3516 15.7453 20.4429C15.6949 20.5358 15.6219 20.6158 15.5326 20.676C15.4432 20.7361 15.3401 20.7748 15.2319 20.7886C15.1236 20.8024 15.0136 20.7911 14.9109 20.7554L14.9031 20.7527L14.8958 20.749C14.8432 20.7226 14.7874 20.7027 14.7297 20.6898L14.7261 20.689C14.2787 20.575 13.8567 20.7639 13.7026 20.9961C13.6291 21.1068 13.62 21.2186 13.6812 21.3203C13.7467 21.4291 13.9076 21.5513 14.233 21.6384C14.3225 21.662 14.4142 21.6847 14.5073 21.7078C14.7646 21.7718 15.032 21.8382 15.2906 21.9303L15.2916 21.9307C16.4846 22.3663 16.9288 23.2686 16.7767 24.1172C16.6263 24.9564 15.896 25.7202 14.7979 25.9004C14.3983 25.9854 13.9824 25.9688 13.5915 25.8523C13.1996 25.7355 12.8463 25.5223 12.5668 25.2338L12.5595 25.2263C12.4712 25.1176 12.4119 24.9899 12.3856 24.8545C12.3614 24.7322 12.3741 24.6059 12.4222 24.4903C12.4701 24.3754 12.5511 24.276 12.6555 24.2036C12.7659 24.1214 12.8989 24.0722 13.0381 24.0619C13.1769 24.0517 13.3157 24.0806 13.4375 24.1451C13.5592 24.2015 13.6724 24.2735 13.774 24.3591L13.776 24.3607C13.9557 24.5185 14.1732 24.5596 14.3817 24.5215C14.5933 24.4829 14.7922 24.3627 14.9202 24.2033C15.0473 24.0449 15.0984 23.8567 15.0378 23.674C14.9768 23.49 14.7936 23.2838 14.391 23.1114C14.2857 23.0685 14.1766 23.034 14.0631 23.0003C14.0324 22.9912 14.0013 22.9822 13.9698 22.973C13.8859 22.9485 13.7995 22.9233 13.7148 22.8956C13.6565 22.8765 13.5986 22.8584 13.5413 22.8405C13.3847 22.7915 13.232 22.7438 13.0851 22.6798C12.7653 22.5753 12.489 22.3747 12.2973 22.1075C12.1049 21.8393 12.008 21.5186 12.0212 21.1932C12.0222 20.4003 12.5425 19.8541 13.2021 19.5616Z" fill="#3A3B7B"/>
<path d="M21.5198 19.4771C21.3926 19.4175 21.2519 19.3892 21.1105 19.3947C20.969 19.4003 20.8312 19.4396 20.7096 19.5091C20.5887 19.5781 20.4874 19.6747 20.4149 19.7904C20.3484 19.8878 20.3024 19.9967 20.2794 20.1111C20.2565 20.2253 20.257 20.3428 20.281 20.4568C20.3047 20.6033 20.331 20.7458 20.3569 20.8863C20.3999 21.1189 20.4416 21.3462 20.4692 21.578L20.4702 21.5839C20.533 21.9473 20.5659 22.315 20.5688 22.6833L20.5691 22.6886C20.5905 23.0864 20.4493 23.4765 20.1757 23.7761L20.1713 23.7814C20.0823 23.8909 19.9633 23.9745 19.8275 24.0228C19.6918 24.0711 19.5447 24.0822 19.4028 24.0549C19.2609 24.0276 19.1297 23.9629 19.0239 23.868C18.9181 23.7732 18.8417 23.6516 18.8036 23.5176C18.7223 23.2352 18.6753 22.9446 18.6633 22.6518L18.8022 20.5294C18.8042 20.5017 18.8066 20.4733 18.809 20.4445C18.8142 20.3801 18.8197 20.3144 18.8219 20.2532C18.8252 20.1631 18.8224 20.0704 18.8005 19.9827C18.7781 19.893 18.7355 19.8078 18.66 19.7351C18.5852 19.6632 18.4843 19.6102 18.3573 19.5741C18.1276 19.5103 17.9333 19.5123 17.7715 19.5782C17.6095 19.6442 17.4986 19.7666 17.4201 19.908C17.3422 20.0482 17.2921 20.2141 17.2542 20.3804C17.2262 20.5038 17.2036 20.6333 17.1821 20.7565C17.1747 20.799 17.1675 20.8407 17.1601 20.8812L17.1599 20.8824C17.0451 21.5585 17.011 22.2449 17.0581 22.9284C17.0669 23.2977 17.1471 23.6623 17.2948 24.0035C17.4614 24.4438 17.7632 24.8252 18.1603 25.0975C18.5583 25.3703 19.0332 25.5206 19.5221 25.5286C20.0111 25.5365 20.491 25.4017 20.8984 25.142C21.305 24.8826 21.6202 24.5109 21.8022 24.076C22.0568 23.5221 22.1763 22.9196 22.1517 22.3146C22.1367 21.8729 22.1117 21.4278 22.0868 20.9849C22.0745 20.7677 22.0623 20.5509 22.0514 20.3355C22.0459 20.1195 21.9716 19.9102 21.8386 19.7358C21.7563 19.6256 21.6468 19.5367 21.5198 19.4771Z" fill="#3A3B7B"/>
<path d="M26.0222 22.8051C26.0093 22.8208 25.9957 22.8371 25.9815 22.854C25.878 22.2811 25.7821 21.7084 25.6861 21.1348C25.6516 20.929 25.617 20.7223 25.5822 20.5162L25.5782 20.4932L25.5655 20.4734C25.5415 20.436 25.5392 20.3993 25.5392 20.3212V20.3121L25.5377 20.3032C25.5117 20.1417 25.4356 19.9915 25.3194 19.8721C25.2035 19.7531 25.053 19.6702 24.8874 19.6342C24.7221 19.5951 24.5484 19.6037 24.3881 19.659C24.2283 19.7142 24.0889 19.8134 23.9875 19.9442C23.9032 20.0445 23.8341 20.1558 23.7823 20.2747C23.6648 20.5309 23.5462 20.7877 23.4273 21.0452L23.4252 21.0497C23.1284 21.6926 22.8296 22.3398 22.5395 22.992L22.5386 22.9941C22.3605 23.4171 22.2134 23.8627 22.0669 24.307C22.0376 24.3957 22.0084 24.4843 21.9789 24.5727C21.926 24.7129 21.9029 24.8619 21.9108 25.0107C21.9012 25.144 21.9344 25.277 22.0061 25.3916C22.0792 25.5086 22.1887 25.6006 22.3191 25.6548C22.4574 25.713 22.6119 25.7253 22.7584 25.6899C22.9045 25.6545 23.0342 25.5736 23.1272 25.4598C23.2459 25.3197 23.348 25.1668 23.4313 25.0049C23.6771 24.5223 23.912 24.0339 24.1458 23.5476C24.2363 23.3595 24.3242 23.1911 24.4242 23.0076C24.4311 23.0302 24.4381 23.0523 24.4453 23.0744C24.5501 23.5173 24.7271 23.9416 24.9696 24.3317C25.0155 24.4143 25.0794 24.4865 25.157 24.5433C25.2355 24.6009 25.3261 24.6412 25.4226 24.6617C25.519 24.6822 25.6189 24.6823 25.7154 24.662C25.8117 24.6417 25.9026 24.6013 25.9811 24.5441L26.1366 24.4324L27.3435 23.4567L27.2721 23.8932C27.1742 24.4932 27.077 25.0883 26.9737 25.6834C26.9061 25.9472 26.9062 26.2228 26.974 26.4865C27.0033 26.6349 27.0781 26.7715 27.1888 26.8789C27.3004 26.9873 27.4433 27.0608 27.599 27.0902C27.7547 27.1195 27.9161 27.1033 28.062 27.0435C28.2059 26.9846 28.3282 26.8862 28.4138 26.7607C28.6128 26.5238 28.7366 26.2369 28.7706 25.9342C28.8219 25.5068 28.8797 25.0736 28.9376 24.6405C29.0043 24.1414 29.071 23.6423 29.1273 23.1528L29.1275 23.1513C29.1817 22.6155 29.2079 22.0775 29.2061 21.5392C29.218 21.3691 29.1739 21.1996 29.0798 21.0548C28.9855 20.9094 28.8457 20.7964 28.6806 20.7318C28.5088 20.6568 28.3165 20.6368 28.1319 20.6747C27.9486 20.7123 27.7826 20.8051 27.6581 20.9394C27.4355 21.137 27.2267 21.3485 27.0329 21.5724L27.0316 21.5739C26.8202 21.8268 26.6101 22.0847 26.4014 22.3409C26.2746 22.4967 26.148 22.6521 26.0222 22.8051Z" fill="#3A3B7B"/>
</g>
<defs>
<clipPath id="clip0_211_2056">
<rect width="32.7153" height="20.186" fill="white" transform="translate(1.16064 7.74951)"/>
</clipPath>
</defs>
</svg>
