<svg width="34" height="35" viewBox="0 0 34 35" fill="none" xmlns="http://www.w3.org/2000/svg">
<g clip-path="url(#clip0_211_2046)">
<path fill-rule="evenodd" clip-rule="evenodd" d="M9.97876 3.67969C13.823 3.67969 16.9395 6.79609 16.9395 10.6404V3.67969H23.9002C27.7444 3.67969 30.8608 6.79609 30.8608 10.6404C30.8608 14.4846 27.7444 17.6011 23.9002 17.6011C27.7444 17.6011 30.8608 20.7175 30.8608 24.5618C30.8608 26.4706 30.0925 28.2 28.8482 29.4575L28.8221 29.4837L28.799 29.5067C27.5412 30.7528 25.8106 31.5225 23.9002 31.5225C22.0027 31.5225 20.2826 30.7633 19.027 29.5321C19.0107 29.516 18.9944 29.4999 18.9782 29.4837C18.9629 29.4685 18.9478 29.4532 18.9327 29.4378C17.6998 28.182 16.9395 26.4606 16.9395 24.5618C16.9395 28.406 13.823 31.5225 9.97876 31.5225C6.13447 31.5225 3.01807 28.406 3.01807 24.5618V17.6011H9.97876C6.13447 17.6011 3.01807 14.4846 3.01807 10.6404C3.01807 6.79609 6.13447 3.67969 9.97876 3.67969ZM15.5473 10.6404C15.5473 13.7158 13.0542 16.2089 9.97876 16.2089V5.07183C13.0542 5.07183 15.5473 7.56495 15.5473 10.6404ZM29.4687 24.5618C29.4687 21.4863 26.9756 18.9932 23.9002 18.9932C20.8247 18.9932 18.3316 21.4863 18.3316 24.5618H29.4687ZM4.41021 18.9932V24.5618C4.41021 27.6372 6.90333 30.1303 9.97876 30.1303C13.0542 30.1303 15.5473 27.6372 15.5473 24.5618V18.9932H4.41021ZM18.3316 16.2089V5.07183H23.9002C26.9756 5.07183 29.4687 7.56495 29.4687 10.6404C29.4687 13.7158 26.9756 16.2089 23.9002 16.2089H18.3316Z" fill="#263238"/>
</g>
<defs>
<clipPath id="clip0_211_2046">
<rect width="27.8428" height="27.8428" fill="white" transform="translate(3.01807 3.67969)"/>
</clipPath>
</defs>
</svg>
