<svg width="34" height="34" viewBox="0 0 34 34" fill="none" xmlns="http://www.w3.org/2000/svg">
<mask id="path-1-inside-1_211_2338" fill="white">
<path d="M20.0116 16.7644C19.844 16.7644 19.6883 16.7184 19.5501 16.6442V16.6462C19.5501 16.9099 19.4476 17.1575 19.2616 17.343C19.0757 17.529 18.8282 17.6315 18.5648 17.6315C18.3948 17.6315 18.2372 17.5843 18.0974 17.5082C18.0833 17.7494 17.9869 17.9749 17.8149 18.1471C17.6289 18.3331 17.3815 18.4355 17.1179 18.4355C16.5942 18.4355 16.169 18.0239 16.1384 17.508C15.9763 17.5956 15.7932 17.6415 15.6042 17.6293C15.0891 17.5956 14.6857 17.1505 14.6857 16.6159V12.1842L14.1811 13.0585C13.9889 13.3928 13.6291 13.6005 13.2417 13.6005C13.053 13.6005 12.8665 13.5509 12.7014 13.4563C12.4957 13.3371 12.3486 13.1457 12.2875 12.9168C12.226 12.6877 12.2578 12.4481 12.3767 12.2427C12.3768 12.2427 14.0277 9.38383 14.1285 9.20822C14.1404 9.18182 14.1745 9.10524 14.2036 9.03997C14.2313 8.97765 14.2551 8.91369 14.2779 8.84941C14.7757 7.44385 16.0085 6.57074 17.4952 6.57074C19.4259 6.57074 20.9966 8.27396 20.9966 10.3675L20.9968 15.779C20.9968 16.0424 20.8945 16.2898 20.7087 16.476C20.5227 16.662 20.2752 16.7645 20.0115 16.7645L20.0116 16.7644ZM17.4953 7.09429C16.2177 7.09429 15.1995 7.81588 14.7713 9.0245C14.7439 9.10124 14.7154 9.17799 14.6821 9.25277C14.5855 9.46941 14.5855 9.46941 14.5583 9.50056L14.5547 9.49745C14.4199 9.7518 14.0194 10.4453 12.83 12.5048C12.7811 12.5892 12.7682 12.6873 12.7931 12.7811C12.8183 12.8749 12.8789 12.9539 12.9627 13.0023C13.2228 13.1517 13.579 13.0553 13.7272 12.797L14.7208 11.0767C14.7802 10.9742 14.9002 10.9238 15.0154 10.955C15.1298 10.9857 15.2094 11.0895 15.2094 11.2079V16.616C15.2094 16.8712 15.4019 17.0914 15.6385 17.107C15.775 17.1142 15.9022 17.0685 15.9978 16.973C16.0848 16.8861 16.1327 16.7703 16.1327 16.6465V13.1095C16.1327 12.9649 16.2499 12.8476 16.3945 12.8476C16.5392 12.8476 16.6564 12.9647 16.6564 13.1095L16.6563 17.4505C16.6563 17.705 16.8634 17.9121 17.1179 17.9121C17.2416 17.9121 17.3577 17.8642 17.4448 17.7773C17.5317 17.6902 17.5796 17.5741 17.5796 17.4505V13.1095C17.5796 12.9649 17.6966 12.8476 17.8415 12.8476C17.9861 12.8476 18.1033 12.9647 18.1033 13.1095L18.1032 16.6058V16.6465C18.1032 16.9008 18.3103 17.108 18.565 17.108C18.6885 17.108 18.8043 17.0599 18.8918 16.9727C18.9787 16.8859 19.0266 16.7701 19.0266 16.6463V13.1093C19.0266 12.9647 19.1437 12.8474 19.2885 12.8474C19.4332 12.8474 19.5504 12.9645 19.5504 13.1093L19.5501 15.7791C19.5501 16.0338 19.7572 16.2409 20.0116 16.2409C20.1354 16.2409 20.2512 16.1929 20.3381 16.1061C20.4253 16.0189 20.473 15.9028 20.473 15.7791L20.4732 10.3676C20.4732 8.56292 19.1373 7.09434 17.4952 7.09434L17.4953 7.09429Z"/>
</mask>
<path d="M20.0116 16.7644C19.844 16.7644 19.6883 16.7184 19.5501 16.6442V16.6462C19.5501 16.9099 19.4476 17.1575 19.2616 17.343C19.0757 17.529 18.8282 17.6315 18.5648 17.6315C18.3948 17.6315 18.2372 17.5843 18.0974 17.5082C18.0833 17.7494 17.9869 17.9749 17.8149 18.1471C17.6289 18.3331 17.3815 18.4355 17.1179 18.4355C16.5942 18.4355 16.169 18.0239 16.1384 17.508C15.9763 17.5956 15.7932 17.6415 15.6042 17.6293C15.0891 17.5956 14.6857 17.1505 14.6857 16.6159V12.1842L14.1811 13.0585C13.9889 13.3928 13.6291 13.6005 13.2417 13.6005C13.053 13.6005 12.8665 13.5509 12.7014 13.4563C12.4957 13.3371 12.3486 13.1457 12.2875 12.9168C12.226 12.6877 12.2578 12.4481 12.3767 12.2427C12.3768 12.2427 14.0277 9.38383 14.1285 9.20822C14.1404 9.18182 14.1745 9.10524 14.2036 9.03997C14.2313 8.97765 14.2551 8.91369 14.2779 8.84941C14.7757 7.44385 16.0085 6.57074 17.4952 6.57074C19.4259 6.57074 20.9966 8.27396 20.9966 10.3675L20.9968 15.779C20.9968 16.0424 20.8945 16.2898 20.7087 16.476C20.5227 16.662 20.2752 16.7645 20.0115 16.7645L20.0116 16.7644ZM17.4953 7.09429C16.2177 7.09429 15.1995 7.81588 14.7713 9.0245C14.7439 9.10124 14.7154 9.17799 14.6821 9.25277C14.5855 9.46941 14.5855 9.46941 14.5583 9.50056L14.5547 9.49745C14.4199 9.7518 14.0194 10.4453 12.83 12.5048C12.7811 12.5892 12.7682 12.6873 12.7931 12.7811C12.8183 12.8749 12.8789 12.9539 12.9627 13.0023C13.2228 13.1517 13.579 13.0553 13.7272 12.797L14.7208 11.0767C14.7802 10.9742 14.9002 10.9238 15.0154 10.955C15.1298 10.9857 15.2094 11.0895 15.2094 11.2079V16.616C15.2094 16.8712 15.4019 17.0914 15.6385 17.107C15.775 17.1142 15.9022 17.0685 15.9978 16.973C16.0848 16.8861 16.1327 16.7703 16.1327 16.6465V13.1095C16.1327 12.9649 16.2499 12.8476 16.3945 12.8476C16.5392 12.8476 16.6564 12.9647 16.6564 13.1095L16.6563 17.4505C16.6563 17.705 16.8634 17.9121 17.1179 17.9121C17.2416 17.9121 17.3577 17.8642 17.4448 17.7773C17.5317 17.6902 17.5796 17.5741 17.5796 17.4505V13.1095C17.5796 12.9649 17.6966 12.8476 17.8415 12.8476C17.9861 12.8476 18.1033 12.9647 18.1033 13.1095L18.1032 16.6058V16.6465C18.1032 16.9008 18.3103 17.108 18.565 17.108C18.6885 17.108 18.8043 17.0599 18.8918 16.9727C18.9787 16.8859 19.0266 16.7701 19.0266 16.6463V13.1093C19.0266 12.9647 19.1437 12.8474 19.2885 12.8474C19.4332 12.8474 19.5504 12.9645 19.5504 13.1093L19.5501 15.7791C19.5501 16.0338 19.7572 16.2409 20.0116 16.2409C20.1354 16.2409 20.2512 16.1929 20.3381 16.1061C20.4253 16.0189 20.473 15.9028 20.473 15.7791L20.4732 10.3676C20.4732 8.56292 19.1373 7.09434 17.4952 7.09434L17.4953 7.09429Z" fill="#4CAF4F"/>
<path d="M20.0116 16.7644V15.8363H23.2906L20.498 17.5549L20.0116 16.7644ZM19.5501 16.6442H18.622V15.0935L19.9887 15.8263L19.5501 16.6442ZM19.2616 17.343L18.6054 16.6868L18.6063 16.6859L19.2616 17.343ZM18.0974 17.5082L17.1709 17.454L17.2563 15.9933L18.5413 16.6931L18.0974 17.5082ZM17.8149 18.1471L18.4715 18.803L18.4711 18.8033L17.8149 18.1471ZM16.1384 17.508L15.6971 16.6915L16.9785 15.999L17.0648 17.453L16.1384 17.508ZM15.6042 17.6293L15.5447 18.5555L15.5435 18.5555L15.6042 17.6293ZM14.6857 12.1842L13.8819 11.7203L15.6138 8.71985V12.1842H14.6857ZM14.1811 13.0585L13.3764 12.596L13.3773 12.5945L14.1811 13.0585ZM12.7014 13.4563L12.24 14.2616L12.2359 14.2592L12.7014 13.4563ZM12.2875 12.9168L13.1838 12.6761L13.1841 12.6772L12.2875 12.9168ZM12.3767 12.2427L11.5735 11.7777L11.8416 11.3146H12.3767V12.2427ZM14.1285 9.20822L14.9737 9.59148L14.9555 9.63167L14.9335 9.66995L14.1285 9.20822ZM14.2036 9.03997L13.3556 8.66284L13.3556 8.66283L14.2036 9.03997ZM14.2779 8.84941L15.1527 9.15928L15.1526 9.15953L14.2779 8.84941ZM20.9966 10.3675L20.0685 10.3675V10.3675H20.9966ZM20.9968 15.779L21.9249 15.779V15.779H20.9968ZM20.7087 16.476L21.3655 17.1316L21.3649 17.1323L20.7087 16.476ZM20.0115 16.7645V17.6926H16.7326L19.5251 15.974L20.0115 16.7645ZM17.4953 7.09429V6.16619H18.7257L18.3876 7.34925L17.4953 7.09429ZM14.7713 9.0245L15.6461 9.33442L15.6454 9.33641L14.7713 9.0245ZM14.6821 9.25277L15.53 9.63023L15.5298 9.63072L14.6821 9.25277ZM14.5583 9.50056L15.2572 10.1112L14.6501 10.8061L13.9517 10.203L14.5583 9.50056ZM14.5547 9.49745L13.7346 9.06285L14.28 8.03389L15.1613 8.79505L14.5547 9.49745ZM12.83 12.5048L13.6337 12.9689L13.6333 12.9696L12.83 12.5048ZM12.7931 12.7811L11.8969 13.0224L11.8961 13.0195L12.7931 12.7811ZM12.9627 13.0023L12.5004 13.8071L12.4987 13.8061L12.9627 13.0023ZM13.7272 12.797L12.9223 12.335L12.9235 12.3328L13.7272 12.797ZM14.7208 11.0767L13.9172 10.6125L13.9177 10.6115L14.7208 11.0767ZM15.0154 10.955L14.7752 11.8515L14.7729 11.8509L15.0154 10.955ZM15.6385 17.107L15.5895 18.0339L15.5776 18.0331L15.6385 17.107ZM15.9978 16.973L16.6541 17.6293L16.6535 17.6298L15.9978 16.973ZM16.6564 13.1095H17.5845V13.1095L16.6564 13.1095ZM16.6563 17.4505H15.7282V17.4504L16.6563 17.4505ZM17.4448 17.7773L18.1016 18.4329L18.1004 18.4342L17.4448 17.7773ZM18.1033 13.1095H19.0314V13.1096L18.1033 13.1095ZM18.1032 16.6058H17.1751V16.6058L18.1032 16.6058ZM18.8918 16.9727L19.5475 17.6295L19.5469 17.6301L18.8918 16.9727ZM19.5504 13.1093H20.4785V13.1094L19.5504 13.1093ZM19.5501 15.7791H18.622V15.779L19.5501 15.7791ZM20.3381 16.1061L20.9943 16.7624L20.9937 16.763L20.3381 16.1061ZM20.473 15.7791H19.5449V15.7791L20.473 15.7791ZM20.4732 10.3676H21.4013V10.3677L20.4732 10.3676ZM17.4952 7.09434V8.02243H16.2648L16.6029 6.83937L17.4952 7.09434ZM20.0116 17.6925C19.6698 17.6925 19.3647 17.5979 19.1115 17.4622L19.9887 15.8263C20.0007 15.8327 20.0083 15.8352 20.0113 15.836C20.0139 15.8367 20.0136 15.8363 20.0116 15.8363V17.6925ZM20.4782 16.6442V16.6462H18.622V16.6442H20.4782ZM20.4782 16.6462C20.4782 17.1553 20.2784 17.6397 19.917 18.0001L18.6063 16.6859C18.6129 16.6793 18.6162 16.6736 18.6181 16.669C18.62 16.6643 18.622 16.6572 18.622 16.6462H20.4782ZM19.9179 17.9993C19.5577 18.3594 19.0742 18.5596 18.5648 18.5596V16.7034C18.5755 16.7034 18.5825 16.7015 18.5872 16.6995C18.592 16.6975 18.5981 16.694 18.6054 16.6868L19.9179 17.9993ZM18.5648 18.5596C18.2186 18.5596 17.9097 18.4627 17.6536 18.3232L18.5413 16.6931C18.5534 16.6997 18.561 16.7022 18.5641 16.703C18.5667 16.7037 18.5665 16.7034 18.5648 16.7034V18.5596ZM19.0239 17.5623C18.9972 18.0191 18.8119 18.4622 18.4715 18.803L17.1583 17.4912C17.1617 17.4877 17.1637 17.4847 17.1654 17.4808C17.1672 17.4767 17.1701 17.4682 17.1709 17.454L19.0239 17.5623ZM18.4711 18.8033C18.1109 19.1636 17.6273 19.3636 17.1179 19.3636V17.5075C17.1287 17.5075 17.1358 17.5055 17.1405 17.5035C17.1452 17.5016 17.1514 17.4981 17.1586 17.4908L18.4711 18.8033ZM17.1179 19.3636C16.0933 19.3636 15.2711 18.5595 15.2119 17.563L17.0648 17.453C17.0658 17.4688 17.0722 17.4826 17.0836 17.4935C17.0892 17.4988 17.0949 17.5022 17.0998 17.5042C17.1041 17.506 17.1096 17.5075 17.1179 17.5075V19.3636ZM16.5796 18.3245C16.2799 18.4865 15.9244 18.5799 15.5447 18.5555L15.6637 16.7032C15.6637 16.7032 15.6657 16.7034 15.6706 16.7022C15.6759 16.701 15.6849 16.6981 15.6971 16.6915L16.5796 18.3245ZM15.5435 18.5555C14.513 18.4879 13.7576 17.6115 13.7576 16.6159H15.6138C15.6138 16.6472 15.6252 16.6714 15.6395 16.6872C15.6534 16.7025 15.6628 16.7031 15.665 16.7032L15.5435 18.5555ZM13.7576 16.6159V12.1842H15.6138V16.6159H13.7576ZM15.4895 12.6482L14.9849 13.5224L13.3773 12.5945L13.8819 11.7203L15.4895 12.6482ZM14.9857 13.521C14.6271 14.1449 13.9596 14.5285 13.2417 14.5285V12.6724C13.2986 12.6724 13.3507 12.6408 13.3764 12.596L14.9857 13.521ZM13.2417 14.5285C12.8908 14.5285 12.5453 14.4365 12.24 14.2616L13.1628 12.651C13.1878 12.6653 13.2152 12.6724 13.2417 12.6724V14.5285ZM12.2359 14.2592C11.8192 14.0177 11.5159 13.6245 11.3908 13.1563L13.1841 12.6772C13.1833 12.674 13.1809 12.6684 13.1765 12.6626C13.172 12.6568 13.1679 12.654 13.1669 12.6534L12.2359 14.2592ZM11.3911 13.1574C11.2655 12.6895 11.3313 12.196 11.5735 11.7777L13.1798 12.7078C13.1812 12.7055 13.1835 12.7002 13.1845 12.6927C13.1855 12.6852 13.1846 12.6792 13.1838 12.6761L11.3911 13.1574ZM12.3767 11.3146C11.9214 11.434 11.5806 11.7656 11.5781 11.7698C11.5772 11.7713 11.576 11.7734 11.5756 11.7741C11.5754 11.7745 11.575 11.7752 11.5748 11.7754C11.5747 11.7755 11.5746 11.7758 11.5745 11.7759C11.5744 11.7761 11.5744 11.7761 11.5748 11.7755C11.5754 11.7744 11.5765 11.7725 11.578 11.7699C11.5811 11.7646 11.5856 11.7567 11.5917 11.7462C11.6038 11.7253 11.6215 11.6946 11.6442 11.6553C11.6895 11.5768 11.7544 11.4645 11.8326 11.3291C11.9889 11.0584 12.1985 10.6956 12.4111 10.3273C12.8371 9.58941 13.2739 8.83275 13.3234 8.74649L14.9335 9.66995C14.8823 9.7593 14.4433 10.5199 14.0186 11.2554C13.8059 11.6238 13.5964 11.9866 13.44 12.2574C13.3618 12.3928 13.2969 12.5052 13.2515 12.5838C13.2288 12.623 13.211 12.6539 13.1988 12.6749C13.1928 12.6855 13.188 12.6936 13.1848 12.6992C13.1832 12.7019 13.1819 12.7042 13.181 12.7059C13.1805 12.7066 13.18 12.7076 13.1794 12.7085C13.1792 12.7088 13.1786 12.7099 13.1779 12.7111C13.1775 12.7119 13.1762 12.7141 13.1753 12.7156C13.1727 12.7199 12.8319 13.0515 12.3767 13.1708V11.3146ZM13.2832 8.82496C13.2934 8.80243 13.3258 8.72979 13.3556 8.66284L15.0516 9.41709C15.0233 9.48069 14.9874 9.56121 14.9737 9.59148L13.2832 8.82496ZM13.3556 8.66283C13.3685 8.63382 13.3827 8.59676 13.4031 8.53928L15.1526 9.15953C15.1274 9.23062 15.0941 9.32147 15.0516 9.4171L13.3556 8.66283ZM13.403 8.53953C14.0316 6.76491 15.6138 5.64265 17.4952 5.64265V7.49884C16.4032 7.49884 15.5198 8.12278 15.1527 9.15928L13.403 8.53953ZM17.4952 5.64265C20.0078 5.64265 21.9247 7.83359 21.9247 10.3675H20.0685C20.0685 8.71432 18.844 7.49884 17.4952 7.49884V5.64265ZM21.9247 10.3675L21.9249 15.779L20.0687 15.779L20.0685 10.3675L21.9247 10.3675ZM21.9249 15.779C21.9249 16.288 21.7252 16.7713 21.3655 17.1316L20.0518 15.8203C20.0591 15.813 20.0627 15.8067 20.0647 15.8019C20.0667 15.797 20.0687 15.7898 20.0687 15.779H21.9249ZM21.3649 17.1323C21.0046 17.4925 20.521 17.6926 20.0115 17.6926V15.8364C20.0225 15.8364 20.0296 15.8344 20.0343 15.8324C20.039 15.8305 20.0452 15.827 20.0524 15.8197L21.3649 17.1323ZM19.5251 15.974L19.5252 15.974L20.498 17.5549L20.498 17.5549L19.5251 15.974ZM17.4953 8.02238C16.6128 8.02238 15.9437 8.49442 15.6461 9.33442L13.8965 8.71458C14.4553 7.13733 15.8226 6.16619 17.4953 6.16619V8.02238ZM15.6454 9.33641C15.6161 9.41851 15.5781 9.5222 15.53 9.63023L13.8342 8.87532C13.8527 8.83379 13.8717 8.78398 13.8972 8.71258L15.6454 9.33641ZM15.5298 9.63072C15.4873 9.72604 15.4517 9.80654 15.4244 9.86107C15.4075 9.89491 15.3801 9.94707 15.3404 10.0048C15.3002 10.0634 15.2604 10.1075 15.2572 10.1112L13.8594 8.88991C13.8616 8.88742 13.8609 8.88823 13.8598 8.8895C13.8584 8.89115 13.8547 8.89536 13.85 8.90113C13.8451 8.9071 13.8389 8.91482 13.832 8.924C13.825 8.93326 13.8178 8.94311 13.8107 8.9535C13.7961 8.97466 13.7849 8.99319 13.777 9.0072C13.7695 9.02029 13.765 9.02934 13.764 9.03138C13.7629 9.03349 13.7636 9.03225 13.7667 9.0255C13.7698 9.01895 13.7741 9.00953 13.7803 8.99582C13.7865 8.98222 13.7939 8.9658 13.8029 8.94551C13.812 8.92525 13.8223 8.90204 13.8345 8.87483L15.5298 9.63072ZM13.9517 10.203L13.9481 10.1999L15.1613 8.79505L15.1649 8.79816L13.9517 10.203ZM15.3747 9.93205C15.2295 10.2061 14.8148 10.9239 13.6337 12.9689L12.0263 12.0406C13.224 9.96678 13.6103 9.29747 13.7346 9.06285L15.3747 9.93205ZM13.6333 12.9696C13.7075 12.8413 13.7282 12.6864 13.69 12.5427L11.8961 13.0195C11.8081 12.6881 11.8547 12.3372 12.0267 12.0399L13.6333 12.9696ZM13.6893 12.5398C13.6511 12.398 13.5572 12.2739 13.4267 12.1985L12.4987 13.8061C12.2005 13.634 11.9856 13.3518 11.8969 13.0224L13.6893 12.5398ZM13.4249 12.1975C13.3193 12.1368 13.2165 12.1372 13.1456 12.1563C13.0749 12.1754 12.9843 12.2269 12.9223 12.335L14.5321 13.259C14.1277 13.9637 13.2033 14.2108 12.5004 13.8071L13.4249 12.1975ZM12.9235 12.3328L13.9172 10.6125L15.5245 11.5409L14.5309 13.2612L12.9235 12.3328ZM13.9177 10.6115C14.1858 10.1487 14.733 9.91708 15.2578 10.0591L14.7729 11.8509C15.0675 11.9306 15.3746 11.7997 15.5239 11.5419L13.9177 10.6115ZM15.2555 10.0585C15.7762 10.198 16.1375 10.6699 16.1375 11.2079H14.2813C14.2813 11.5091 14.4834 11.7733 14.7752 11.8515L15.2555 10.0585ZM16.1375 11.2079V16.616H14.2813V11.2079H16.1375ZM16.1375 16.616C16.1375 16.5103 16.0983 16.4141 16.034 16.3405C15.9697 16.2671 15.8564 16.1912 15.6995 16.1809L15.5776 18.0331C14.7963 17.9817 14.2813 17.3011 14.2813 16.616H16.1375ZM15.6876 16.1802C15.5779 16.1744 15.444 16.2146 15.3422 16.3162L16.6535 17.6298C16.3605 17.9223 15.9721 18.054 15.5895 18.0338L15.6876 16.1802ZM15.3416 16.3167C15.2535 16.4048 15.2046 16.5255 15.2046 16.6465H17.0607C17.0607 17.0151 16.916 17.3674 16.6541 17.6293L15.3416 16.3167ZM15.2046 16.6465V13.1095H17.0607V16.6465H15.2046ZM15.2046 13.1095C15.2046 12.4523 15.7373 11.9195 16.3945 11.9195V13.7757C16.7625 13.7757 17.0607 13.4774 17.0607 13.1095H15.2046ZM16.3945 11.9195C17.0514 11.9195 17.5845 12.4518 17.5845 13.1095H15.7284C15.7284 13.4777 16.027 13.7757 16.3945 13.7757V11.9195ZM17.5845 13.1095L17.5844 17.4505L15.7282 17.4504L15.7284 13.1095L17.5845 13.1095ZM17.5844 17.4505C17.5844 17.1924 17.376 16.984 17.1179 16.984V18.8402C16.3508 18.8402 15.7282 18.2176 15.7282 17.4505H17.5844ZM17.1179 16.984C16.9971 16.984 16.877 17.0327 16.7891 17.1204L18.1004 18.4342C17.8383 18.6957 17.486 18.8402 17.1179 18.8402V16.984ZM16.7879 17.1217C16.7001 17.2096 16.6515 17.3297 16.6515 17.4505H18.5076C18.5076 17.8185 18.3632 18.1709 18.1016 18.4329L16.7879 17.1217ZM16.6515 17.4505V13.1095H18.5076V17.4505H16.6515ZM16.6515 13.1095C16.6515 12.4527 17.1837 11.9195 17.8415 11.9195V13.7757C18.2096 13.7757 18.5076 13.4771 18.5076 13.1095H16.6515ZM17.8415 11.9195C18.4983 11.9195 19.0314 12.4518 19.0314 13.1095H17.1753C17.1753 13.4777 17.4739 13.7757 17.8415 13.7757V11.9195ZM19.0314 13.1096L19.0313 16.6059L17.1751 16.6058L17.1753 13.1095L19.0314 13.1096ZM19.0313 16.6058V16.6465H17.1751V16.6058H19.0313ZM19.0313 16.6465C19.0313 16.3878 18.8224 16.1799 18.565 16.1799V18.036C17.7982 18.036 17.1751 17.4139 17.1751 16.6465H19.0313ZM18.565 16.1799C18.4417 16.1799 18.3223 16.23 18.2368 16.3152L19.5469 17.6301C19.2862 17.8898 18.9353 18.036 18.565 18.036V16.1799ZM18.2362 16.3158C18.1474 16.4044 18.0985 16.5255 18.0985 16.6463H19.9547C19.9547 17.0148 19.8101 17.3674 19.5475 17.6295L18.2362 16.3158ZM18.0985 16.6463V13.1093H19.9547V16.6463H18.0985ZM18.0985 13.1093C18.0985 12.4525 18.6308 11.9193 19.2885 11.9193V13.7755C19.6567 13.7755 19.9547 13.4769 19.9547 13.1093H18.0985ZM19.2885 11.9193C19.9454 11.9193 20.4785 12.4516 20.4785 13.1093H18.6223C18.6223 13.4775 18.921 13.7755 19.2885 13.7755V11.9193ZM20.4785 13.1094L20.4782 15.7792L18.622 15.779L18.6223 13.1092L20.4785 13.1094ZM20.4782 15.7791C20.4782 15.5217 20.2702 15.3128 20.0116 15.3128V17.169C19.2442 17.169 18.622 16.5459 18.622 15.7791H20.4782ZM20.0116 15.3128C19.8898 15.3128 19.7697 15.3621 19.6824 15.4493L20.9937 16.763C20.7326 17.0236 20.3809 17.169 20.0116 17.169V15.3128ZM19.6818 15.4499C19.5934 15.5383 19.5449 15.6589 19.5449 15.7791H21.4011C21.4011 16.1467 21.2572 16.4995 20.9943 16.7624L19.6818 15.4499ZM19.5449 15.7791L19.5451 10.3676L21.4013 10.3677L21.4011 15.7792L19.5449 15.7791ZM19.5451 10.3676C19.5451 8.99091 18.5441 8.02243 17.4952 8.02243V6.16625C19.7306 6.16625 21.4013 8.13493 21.4013 10.3676H19.5451ZM16.6029 6.83937L16.6029 6.83932L18.3876 7.34925L18.3876 7.34931L16.6029 6.83937Z" fill="#4CAF4F" mask="url(#path-1-inside-1_211_2338)"/>
<path d="M8.63135 18.5525L8.57959 18.5251C8.56732 18.5473 8.53287 18.6092 8.48193 18.7009C8.50002 18.7099 8.51834 18.7175 8.53662 18.7244C8.56777 18.6682 8.599 18.6108 8.63135 18.5525Z" fill="#4CAF4F" stroke="#4CAF4F" stroke-width="0.928093"/>
<mask id="path-4-inside-2_211_2338" fill="white">
<path d="M27.8818 25.8225C27.3985 26.6285 26.6037 27.1802 25.6435 27.3764C24.6919 27.5704 23.691 27.3914 22.8248 26.8721L18.1841 24.0882C17.9583 23.9527 17.7985 23.7375 17.7346 23.482C17.6711 23.227 17.7108 22.9622 17.8461 22.7365C17.9306 22.5955 18.049 22.4843 18.1862 22.4021L18.1849 22.4013C17.9591 22.2658 17.7994 22.0507 17.7357 21.7955C17.6718 21.5403 17.7115 21.2753 17.8469 21.0494C17.9342 20.9042 18.0537 20.7907 18.1902 20.7102C17.9921 20.5739 17.8494 20.376 17.7907 20.1412C17.7267 19.8858 17.7664 19.621 17.9019 19.3953C18.0372 19.1695 18.2525 19.0099 18.5077 18.9461C18.5874 18.9261 18.6682 18.9163 18.7482 18.9163C18.9054 18.9164 19.0595 18.9563 19.2012 19.0304C19.2099 18.8469 19.2645 18.6667 19.3717 18.512C19.6658 18.0878 20.2548 17.9704 20.7137 18.2457L24.5139 20.5252L24.0241 19.6429C23.8361 19.3061 23.843 18.8905 24.0423 18.5583C24.1394 18.3966 24.2781 18.2623 24.4439 18.1693C24.5802 18.0938 24.7278 18.0581 24.8734 18.0581C25.1861 18.0583 25.4898 18.2232 25.6515 18.5153C26.215 19.5306 27.2783 21.4454 27.3531 21.579C27.369 21.6022 27.417 21.671 27.4582 21.7296C27.4974 21.7852 27.5397 21.8383 27.5835 21.8911C28.5324 23.0413 28.6468 24.5476 27.8818 25.8225L27.8818 25.8225ZM27.1795 22.2249C27.1273 22.1617 27.0761 22.0973 27.0296 22.0309C26.8879 21.8298 26.8843 21.8246 26.8736 21.7719C26.708 21.4979 26.3039 20.7704 25.1932 18.7694C25.0958 18.5937 24.8744 18.5296 24.6981 18.627C24.6114 18.6756 24.5417 18.7433 24.4908 18.8281C24.3878 18.9998 24.3839 19.2143 24.4811 19.3884L25.4451 21.1253C25.5027 21.2289 25.4835 21.3582 25.3984 21.4405C25.3134 21.523 25.1835 21.5374 25.0815 21.4767L20.4442 18.6947C20.2256 18.5637 19.9375 18.615 19.8023 18.8102C19.7246 18.9224 19.6998 19.0562 19.7323 19.1869C19.7621 19.3063 19.8371 19.407 19.9432 19.4706C19.9435 19.4708 19.9437 19.4711 19.944 19.4712L22.9761 21.2902C23.1001 21.3647 23.1402 21.5254 23.0658 21.6496C22.9913 21.7734 22.8308 21.8139 22.7065 21.7393L18.984 19.5062C18.8784 19.4429 18.7541 19.4242 18.6347 19.4542C18.515 19.484 18.4143 19.5588 18.3508 19.6649C18.2872 19.7707 18.2688 19.8948 18.2984 20.0142C18.3282 20.1336 18.4031 20.2345 18.5091 20.2981L19.2334 20.7325L22.2314 22.5312C22.3554 22.6057 22.3955 22.7664 22.3211 22.8905C22.2466 23.0143 22.0861 23.0547 21.9618 22.9802L18.9291 21.1607C18.711 21.0295 18.4269 21.1007 18.2957 21.3191C18.2321 21.4251 18.2137 21.5492 18.2433 21.6686C18.2731 21.788 18.348 21.8887 18.4542 21.9525L19.1977 22.3985L21.4869 23.772C21.6108 23.8464 21.651 24.0071 21.5766 24.1313C21.5021 24.2551 21.3416 24.2958 21.2172 24.221L18.9281 22.8475C18.8225 22.7842 18.6987 22.7655 18.5786 22.7956C18.4592 22.8254 18.3582 22.9002 18.2948 23.006C18.2313 23.1119 18.2128 23.2362 18.2423 23.3554C18.2721 23.4748 18.3471 23.5755 18.4532 23.6393L23.0939 26.4232C23.8469 26.875 24.7154 27.0314 25.5384 26.8635C26.3527 26.6972 27.0254 26.232 27.4325 25.5534C28.0902 24.4576 27.9956 23.2132 27.1798 22.2248L27.1795 22.2249Z"/>
</mask>
<path d="M27.8818 25.8225C27.3985 26.6285 26.6037 27.1802 25.6435 27.3764C24.6919 27.5704 23.691 27.3914 22.8248 26.8721L18.1841 24.0882C17.9583 23.9527 17.7985 23.7375 17.7346 23.482C17.6711 23.227 17.7108 22.9622 17.8461 22.7365C17.9306 22.5955 18.049 22.4843 18.1862 22.4021L18.1849 22.4013C17.9591 22.2658 17.7994 22.0507 17.7357 21.7955C17.6718 21.5403 17.7115 21.2753 17.8469 21.0494C17.9342 20.9042 18.0537 20.7907 18.1902 20.7102C17.9921 20.5739 17.8494 20.376 17.7907 20.1412C17.7267 19.8858 17.7664 19.621 17.9019 19.3953C18.0372 19.1695 18.2525 19.0099 18.5077 18.9461C18.5874 18.9261 18.6682 18.9163 18.7482 18.9163C18.9054 18.9164 19.0595 18.9563 19.2012 19.0304C19.2099 18.8469 19.2645 18.6667 19.3717 18.512C19.6658 18.0878 20.2548 17.9704 20.7137 18.2457L24.5139 20.5252L24.0241 19.6429C23.8361 19.3061 23.843 18.8905 24.0423 18.5583C24.1394 18.3966 24.2781 18.2623 24.4439 18.1693C24.5802 18.0938 24.7278 18.0581 24.8734 18.0581C25.1861 18.0583 25.4898 18.2232 25.6515 18.5153C26.215 19.5306 27.2783 21.4454 27.3531 21.579C27.369 21.6022 27.417 21.671 27.4582 21.7296C27.4974 21.7852 27.5397 21.8383 27.5835 21.8911C28.5324 23.0413 28.6468 24.5476 27.8818 25.8225L27.8818 25.8225ZM27.1795 22.2249C27.1273 22.1617 27.0761 22.0973 27.0296 22.0309C26.8879 21.8298 26.8843 21.8246 26.8736 21.7719C26.708 21.4979 26.3039 20.7704 25.1932 18.7694C25.0958 18.5937 24.8744 18.5296 24.6981 18.627C24.6114 18.6756 24.5417 18.7433 24.4908 18.8281C24.3878 18.9998 24.3839 19.2143 24.4811 19.3884L25.4451 21.1253C25.5027 21.2289 25.4835 21.3582 25.3984 21.4405C25.3134 21.523 25.1835 21.5374 25.0815 21.4767L20.4442 18.6947C20.2256 18.5637 19.9375 18.615 19.8023 18.8102C19.7246 18.9224 19.6998 19.0562 19.7323 19.1869C19.7621 19.3063 19.8371 19.407 19.9432 19.4706C19.9435 19.4708 19.9437 19.4711 19.944 19.4712L22.9761 21.2902C23.1001 21.3647 23.1402 21.5254 23.0658 21.6496C22.9913 21.7734 22.8308 21.8139 22.7065 21.7393L18.984 19.5062C18.8784 19.4429 18.7541 19.4242 18.6347 19.4542C18.515 19.484 18.4143 19.5588 18.3508 19.6649C18.2872 19.7707 18.2688 19.8948 18.2984 20.0142C18.3282 20.1336 18.4031 20.2345 18.5091 20.2981L19.2334 20.7325L22.2314 22.5312C22.3554 22.6057 22.3955 22.7664 22.3211 22.8905C22.2466 23.0143 22.0861 23.0547 21.9618 22.9802L18.9291 21.1607C18.711 21.0295 18.4269 21.1007 18.2957 21.3191C18.2321 21.4251 18.2137 21.5492 18.2433 21.6686C18.2731 21.788 18.348 21.8887 18.4542 21.9525L19.1977 22.3985L21.4869 23.772C21.6108 23.8464 21.651 24.0071 21.5766 24.1313C21.5021 24.2551 21.3416 24.2958 21.2172 24.221L18.9281 22.8475C18.8225 22.7842 18.6987 22.7655 18.5786 22.7956C18.4592 22.8254 18.3582 22.9002 18.2948 23.006C18.2313 23.1119 18.2128 23.2362 18.2423 23.3554C18.2721 23.4748 18.3471 23.5755 18.4532 23.6393L23.0939 26.4232C23.8469 26.875 24.7154 27.0314 25.5384 26.8635C26.3527 26.6972 27.0254 26.232 27.4325 25.5534C28.0902 24.4576 27.9956 23.2132 27.1798 22.2248L27.1795 22.2249Z" fill="#4CAF4F"/>
<path d="M27.8818 25.8225L27.5824 24.9441L29.981 24.1263L28.6778 26.2998L27.8818 25.8225ZM25.6435 27.3764L25.8293 28.2857L25.8289 28.2857L25.6435 27.3764ZM22.8248 26.8721L22.3475 27.668L22.3474 27.6679L22.8248 26.8721ZM18.1841 24.0882L18.6615 23.2923L18.6615 23.2923L18.1841 24.0882ZM17.7346 23.482L16.8343 23.7074L16.834 23.7062L17.7346 23.482ZM17.8461 22.7365L18.6423 23.2133L18.6421 23.2137L17.8461 22.7365ZM18.1862 22.4021L18.6781 21.6151L19.9647 22.4192L18.6629 23.1985L18.1862 22.4021ZM18.1849 22.4013L18.6623 21.6054L18.6696 21.6098L18.6768 21.6143L18.1849 22.4013ZM17.7357 21.7955L18.636 21.5699L18.6363 21.571L17.7357 21.7955ZM17.8469 21.0494L17.0509 20.5721L17.0515 20.5712L17.8469 21.0494ZM18.1902 20.7102L18.7162 19.9456L19.9148 20.7701L18.6618 21.5095L18.1902 20.7102ZM17.7907 20.1412L18.691 19.9157L18.6911 19.9161L17.7907 20.1412ZM17.9019 19.3953L18.698 19.8723L18.6976 19.873L17.9019 19.3953ZM18.5077 18.9461L18.7336 19.8463L18.7327 19.8465L18.5077 18.9461ZM18.7482 18.9163V17.9882L18.7492 17.9882L18.7482 18.9163ZM19.2012 19.0304L20.1282 19.0743L20.0594 20.5269L18.771 19.8528L19.2012 19.0304ZM19.3717 18.512L20.1345 19.0407L20.1344 19.0409L19.3717 18.512ZM20.7137 18.2457L20.2363 19.0416L20.2362 19.0415L20.7137 18.2457ZM24.5139 20.5252L25.3253 20.0747L27.0064 23.1025L24.0365 21.3211L24.5139 20.5252ZM24.0241 19.6429L24.8345 19.1907L24.8355 19.1924L24.0241 19.6429ZM24.0423 18.5583L23.2463 18.0809L23.2466 18.0805L24.0423 18.5583ZM24.4439 18.1693L23.9899 17.3598L23.9944 17.3573L24.4439 18.1693ZM24.8734 18.0581V17.13L24.8739 17.13L24.8734 18.0581ZM25.6515 18.5153L24.84 18.9657L24.8395 18.9648L25.6515 18.5153ZM27.3531 21.579L26.5885 22.1051L26.5641 22.0696L26.5431 22.0321L27.3531 21.579ZM27.4582 21.7296L26.6997 22.2644L26.699 22.2634L27.4582 21.7296ZM27.5835 21.8911L28.2979 21.2987L28.2994 21.3005L27.5835 21.8911ZM27.8818 25.8225L28.1813 26.701L25.7814 27.5191L27.086 25.345L27.8818 25.8225ZM27.1795 22.2249L27.2714 23.1484L26.779 23.1974L26.4639 22.8159L27.1795 22.2249ZM27.0296 22.0309L27.7882 21.4962L27.7894 21.498L27.0296 22.0309ZM26.8736 21.7719L27.6679 21.2918L27.7513 21.4298L27.7832 21.5877L26.8736 21.7719ZM25.1932 18.7694L24.3817 19.2198L24.3816 19.2195L25.1932 18.7694ZM24.6981 18.627L24.2449 17.8171L24.2492 17.8147L24.6981 18.627ZM24.4908 18.8281L25.2868 19.3053L25.2867 19.3055L24.4908 18.8281ZM24.4811 19.3884L25.2915 18.936L25.2926 18.9381L24.4811 19.3884ZM25.4451 21.1253L24.6337 21.5759L24.6336 21.5757L25.4451 21.1253ZM25.3984 21.4405L24.7518 20.7746L24.7531 20.7734L25.3984 21.4405ZM25.0815 21.4767L24.607 22.2744L24.6041 22.2726L25.0815 21.4767ZM20.4442 18.6947L20.9213 17.8987L20.9216 17.8989L20.4442 18.6947ZM19.8023 18.8102L20.5653 19.3386L20.5651 19.3388L19.8023 18.8102ZM19.7323 19.1869L18.8319 19.412L18.8316 19.4106L19.7323 19.1869ZM19.9432 19.4706L19.528 20.3007L19.4963 20.2848L19.4659 20.2665L19.9432 19.4706ZM19.944 19.4712L20.3591 18.6412L20.391 18.6571L20.4215 18.6754L19.944 19.4712ZM22.9761 21.2902L23.4535 20.4944L23.4539 20.4946L22.9761 21.2902ZM23.0658 21.6496L23.8617 22.1269L23.8612 22.1278L23.0658 21.6496ZM22.7065 21.7393L23.1839 20.9434L23.1841 20.9435L22.7065 21.7393ZM18.984 19.5062L19.4611 18.7101L19.4614 18.7103L18.984 19.5062ZM18.6347 19.4542L18.861 20.3543L18.8592 20.3547L18.6347 19.4542ZM18.3508 19.6649L19.1473 20.1413L19.1461 20.1433L18.3508 19.6649ZM18.2984 20.0142L17.398 20.2393L17.3974 20.237L18.2984 20.0142ZM18.5091 20.2981L18.0317 21.094L18.0312 21.0937L18.5091 20.2981ZM19.2334 20.7325L19.7108 19.9366L19.7109 19.9367L19.2334 20.7325ZM22.2314 22.5312L22.7089 21.7354L22.7092 21.7356L22.2314 22.5312ZM22.3211 22.8905L23.117 23.3679L23.1165 23.3688L22.3211 22.8905ZM21.9618 22.9802L21.4849 23.7764L21.4843 23.7761L21.9618 22.9802ZM18.9291 21.1607L18.4516 21.9566L18.4507 21.956L18.9291 21.1607ZM18.2957 21.3191L19.0914 21.797L19.0914 21.797L18.2957 21.3191ZM18.2433 21.6686L17.3429 21.8937L17.3423 21.8914L18.2433 21.6686ZM18.4542 21.9525L17.9767 22.7483L17.9759 22.7479L18.4542 21.9525ZM19.1977 22.3985L19.6751 21.6027L19.6752 21.6027L19.1977 22.3985ZM21.4869 23.772L21.9643 22.9761L21.9647 22.9763L21.4869 23.772ZM21.5766 24.1313L22.3725 24.6086L22.3719 24.6096L21.5766 24.1313ZM21.2172 24.221L21.6947 23.4251L21.6957 23.4257L21.2172 24.221ZM18.9281 22.8475L19.4052 22.0515L19.4056 22.0517L18.9281 22.8475ZM18.5786 22.7956L18.3535 21.8952L18.3535 21.8952L18.5786 22.7956ZM18.2948 23.006L17.4986 22.529L17.4989 22.5285L18.2948 23.006ZM18.2423 23.3554L17.3419 23.5805L17.3414 23.5785L18.2423 23.3554ZM18.4532 23.6393L17.9757 24.4352L17.9749 24.4347L18.4532 23.6393ZM23.0939 26.4232L23.5713 25.6273L23.5713 25.6274L23.0939 26.4232ZM25.5384 26.8635L25.724 27.7729L25.7239 27.7729L25.5384 26.8635ZM27.4325 25.5534L26.6366 25.076L26.6367 25.0757L27.4325 25.5534ZM27.1798 22.2248L27.0878 21.3013L27.5804 21.2523L27.8955 21.634L27.1798 22.2248ZM28.6778 26.2998C28.0543 27.3397 27.032 28.04 25.8293 28.2857L25.4578 26.467C26.1754 26.3205 26.7428 25.9174 27.0859 25.3452L28.6778 26.2998ZM25.8289 28.2857C24.6403 28.5281 23.4041 28.3015 22.3475 27.668L23.302 26.0761C23.9779 26.4813 24.7434 26.6127 25.4581 26.467L25.8289 28.2857ZM22.3474 27.6679L17.7067 24.884L18.6615 23.2923L23.3022 26.0762L22.3474 27.6679ZM17.7067 24.884C17.2702 24.6222 16.9581 24.2021 16.8343 23.7074L18.6349 23.2567C18.6374 23.2667 18.6409 23.273 18.644 23.2772C18.6472 23.2814 18.6523 23.2867 18.6615 23.2923L17.7067 24.884ZM16.834 23.7062C16.711 23.2121 16.7888 22.6951 17.0501 22.2593L18.6421 23.2137C18.6365 23.223 18.6345 23.2303 18.6337 23.2356C18.6329 23.2409 18.6328 23.2481 18.6352 23.2579L16.834 23.7062ZM17.0499 22.2597C17.2219 21.9723 17.4571 21.7569 17.7096 21.6058L18.6629 23.1985C18.6516 23.2052 18.6456 23.2105 18.6431 23.2128C18.641 23.215 18.6413 23.2151 18.6423 23.2133L17.0499 22.2597ZM17.6943 23.1891L17.693 23.1883L18.6768 21.6143L18.6781 21.6151L17.6943 23.1891ZM17.7075 23.1972C17.2713 22.9355 16.9587 22.5152 16.8352 22.02L18.6363 21.571C18.6386 21.5804 18.6419 21.5863 18.6449 21.5904C18.648 21.5945 18.6531 21.5999 18.6623 21.6054L17.7075 23.1972ZM16.8355 22.0211C16.7114 21.526 16.7895 21.0083 17.0509 20.5721L18.6429 21.5266C18.6373 21.536 18.6353 21.5433 18.6345 21.5484C18.6337 21.5535 18.6336 21.5604 18.636 21.5699L16.8355 22.0211ZM17.0515 20.5712C17.2228 20.2862 17.457 20.0653 17.7185 19.9109L18.6618 21.5095C18.6558 21.5131 18.6517 21.5164 18.649 21.5191C18.6465 21.5216 18.6444 21.5242 18.6424 21.5275L17.0515 20.5712ZM17.6642 21.4749C17.2893 21.217 17.0066 20.8316 16.8903 20.3662L18.6911 19.9161C18.6922 19.9204 18.6936 19.9236 18.696 19.9269C18.6986 19.9306 18.7044 19.9375 18.7162 19.9456L17.6642 21.4749ZM16.8904 20.3667C16.7664 19.8716 16.8443 19.3538 17.1061 18.9176L18.6976 19.873C18.6921 19.8821 18.6902 19.8891 18.6894 19.8941C18.6887 19.8991 18.6885 19.9059 18.691 19.9157L16.8904 20.3667ZM17.1057 18.9183C17.3677 18.4811 17.7885 18.1693 18.2826 18.0457L18.7327 19.8465C18.7228 19.849 18.7166 19.8525 18.7125 19.8555C18.7084 19.8586 18.7033 19.8635 18.698 19.8723L17.1057 18.9183ZM18.2817 18.046C18.4354 18.0074 18.5922 17.9882 18.7482 17.9882V19.8444C18.7442 19.8444 18.7393 19.8449 18.7336 19.8463L18.2817 18.046ZM18.7492 17.9882C19.0645 17.9885 19.3651 18.0688 19.6314 18.2081L18.771 19.8528C18.7621 19.8482 18.7558 19.8461 18.7523 19.8452C18.7489 19.8444 18.7474 19.8444 18.7473 19.8444L18.7492 17.9882ZM18.2741 18.9865C18.2901 18.649 18.3919 18.2964 18.6091 17.9831L20.1344 19.0409C20.1371 19.037 20.1296 19.0448 20.1282 19.0743L18.2741 18.9865ZM18.609 17.9833C19.1968 17.1352 20.3365 16.937 21.1912 17.4499L20.2362 19.0415C20.2091 19.0253 20.1826 19.0227 20.1618 19.0268C20.1415 19.0309 20.1359 19.0387 20.1345 19.0407L18.609 17.9833ZM21.1911 17.4498L24.9913 19.7293L24.0365 21.3211L20.2363 19.0416L21.1911 17.4498ZM23.7025 20.9757L23.2126 20.0934L24.8355 19.1924L25.3253 20.0747L23.7025 20.9757ZM23.2136 20.0951C22.863 19.4668 22.877 18.6968 23.2463 18.0809L24.8382 19.0356C24.809 19.0843 24.8092 19.1453 24.8345 19.1907L23.2136 20.0951ZM23.2466 18.0805C23.4276 17.7791 23.6847 17.531 23.9899 17.3598L24.8979 18.9788C24.8715 18.9935 24.8511 19.0141 24.838 19.036L23.2466 18.0805ZM23.9944 17.3573C24.2721 17.2036 24.575 17.13 24.8734 17.13V18.9862C24.8766 18.9862 24.8802 18.9858 24.8841 18.9848C24.8882 18.9838 24.8914 18.9824 24.8934 18.9813L23.9944 17.3573ZM24.8739 17.13C25.5081 17.1303 26.1309 17.4649 26.4635 18.0659L24.8395 18.9648C24.841 18.9674 24.8434 18.9709 24.8468 18.9743C24.8501 18.9776 24.8534 18.9801 24.8564 18.9818C24.8616 18.9848 24.8669 18.9862 24.8729 18.9862L24.8739 17.13ZM26.463 18.0649C27.0272 19.0814 28.0893 20.9941 28.1631 21.126L26.5431 22.0321C26.4673 21.8967 25.4028 19.9798 24.84 18.9657L26.463 18.0649ZM28.1177 21.053C28.1308 21.0721 28.1766 21.1378 28.2174 21.1958L26.699 22.2634C26.6574 22.2043 26.6072 22.1323 26.5885 22.1051L28.1177 21.053ZM28.2167 21.1948C28.2359 21.222 28.261 21.2541 28.2979 21.2987L26.869 22.4835C26.8184 22.4225 26.7589 22.3483 26.6997 22.2644L28.2167 21.1948ZM28.2994 21.3005C29.4974 22.7527 29.6457 24.6867 28.6776 26.3001L27.086 25.345C27.6479 24.4086 27.5674 23.33 26.8676 22.4817L28.2994 21.3005ZM27.5823 24.9441L27.5824 24.9441L28.1813 26.701L28.1813 26.701L27.5823 24.9441ZM26.4639 22.8159C26.4052 22.7449 26.3366 22.6591 26.2697 22.5637L27.7894 21.498C27.8157 21.5355 27.8494 21.5786 27.895 21.6338L26.4639 22.8159ZM26.2709 22.5655C26.2125 22.4826 26.1497 22.3946 26.108 22.3256C26.0801 22.2794 26.0428 22.212 26.0113 22.1261C25.9806 22.0425 25.967 21.9709 25.964 21.9561L27.7832 21.5877C27.7856 21.5993 27.7764 21.548 27.7538 21.4865C27.7304 21.4227 27.7048 21.379 27.6969 21.3659C27.6931 21.3597 27.6917 21.3576 27.6946 21.362C27.6974 21.3662 27.7023 21.3736 27.7107 21.3856C27.728 21.4107 27.7518 21.4445 27.7882 21.4962L26.2709 22.5655ZM26.0793 22.252C25.902 21.9586 25.4847 21.2069 24.3817 19.2198L26.0047 18.3189C27.1232 20.334 27.5139 21.0371 27.6679 21.2918L26.0793 22.252ZM24.3816 19.2195C24.5319 19.4905 24.874 19.5902 25.147 19.4393L24.2492 17.8147C24.8748 17.469 25.6597 17.697 26.0048 18.3192L24.3816 19.2195ZM25.1513 19.4369C25.2058 19.4064 25.2543 19.3595 25.2868 19.3053L23.6948 18.3508C23.829 18.1271 24.0169 17.9447 24.2449 17.8171L25.1513 19.4369ZM25.2867 19.3055C25.3532 19.1947 25.3577 19.0545 25.2915 18.936L23.6708 19.8409C23.4101 19.374 23.4225 18.8049 23.6949 18.3507L25.2867 19.3055ZM25.2926 18.9381L26.2566 20.6749L24.6336 21.5757L23.6697 19.8388L25.2926 18.9381ZM26.2565 20.6747C26.5178 21.1452 26.431 21.7329 26.0436 22.1076L24.7531 20.7734C24.536 20.9834 24.4876 21.3127 24.6337 21.5759L26.2565 20.6747ZM26.0449 22.1063C25.6545 22.4855 25.0641 22.5462 24.607 22.2744L25.556 20.6791C25.303 20.5286 24.9724 20.5605 24.7518 20.7747L26.0449 22.1063ZM24.6041 22.2726L19.9667 19.4906L20.9216 17.8989L25.559 20.6809L24.6041 22.2726ZM19.967 19.4908C20.0576 19.545 20.1598 19.5609 20.2558 19.5437C20.3517 19.5265 20.4755 19.4683 20.5653 19.3386L19.0393 18.2818C19.4861 17.6367 20.3354 17.5475 20.9213 17.8987L19.967 19.4908ZM20.5651 19.3388C20.6376 19.2343 20.6656 19.0944 20.633 18.9631L18.8316 19.4106C18.734 19.0179 18.8116 18.6104 19.0395 18.2816L20.5651 19.3388ZM20.6327 18.9618C20.6023 18.8402 20.5237 18.7365 20.4205 18.6746L19.4659 20.2665C19.1505 20.0774 18.922 19.7723 18.8319 19.412L20.6327 18.9618ZM20.3583 18.6405C20.4422 18.6825 20.5039 18.7292 20.5429 18.7622C20.5621 18.7785 20.577 18.7924 20.5859 18.801C20.5905 18.8054 20.5941 18.809 20.5963 18.8112C20.5975 18.8123 20.5984 18.8132 20.5989 18.8137C20.5992 18.814 20.5995 18.8143 20.5996 18.8144C20.5997 18.8145 20.5997 18.8145 20.5998 18.8146C20.5998 18.8146 20.5998 18.8146 20.5998 18.8146C20.5998 18.8146 20.5998 18.8146 20.5998 18.8146C20.5998 18.8146 20.5998 18.8146 20.5998 18.8146C20.6001 18.8149 20.5984 18.8132 20.5964 18.8113C20.5943 18.8091 20.5906 18.8055 20.5861 18.8012C20.5772 18.7927 20.5624 18.7788 20.5433 18.7626C20.5044 18.7297 20.4428 18.683 20.3591 18.6412L19.5289 20.3013C19.445 20.2594 19.3833 20.2126 19.3443 20.1796C19.3251 20.1633 19.3102 20.1494 19.3013 20.1408C19.2967 20.1364 19.2931 20.1329 19.2908 20.1307C19.2897 20.1295 19.2888 20.1286 19.2882 20.1281C19.288 20.1278 19.2877 20.1276 19.2876 20.1274C19.2875 20.1274 19.2875 20.1273 19.2874 20.1273C19.2874 20.1273 19.2874 20.1272 19.2874 20.1272C19.2874 20.1272 19.2874 20.1272 19.2874 20.1272C19.2874 20.1272 19.2874 20.1272 19.2874 20.1272C19.2871 20.1269 19.2888 20.1286 19.2907 20.1306C19.2929 20.1327 19.2965 20.1363 19.3011 20.1406C19.31 20.1492 19.3248 20.163 19.3439 20.1792C19.3828 20.2122 19.4444 20.2588 19.528 20.3007L20.3583 18.6405ZM20.4215 18.6754L23.4535 20.4944L22.4986 22.0861L19.4666 20.2671L20.4215 18.6754ZM23.4539 20.4946C24.0173 20.8329 24.1996 21.5635 23.8617 22.1269L22.2699 21.1722C22.0809 21.4873 22.1828 21.8965 22.4983 22.0859L23.4539 20.4946ZM23.8612 22.1278C23.5236 22.6891 22.7939 22.8742 22.2288 22.535L23.1841 20.9435C22.8677 20.7535 22.459 20.8576 22.2704 21.1713L23.8612 22.1278ZM22.229 22.5351L18.5066 20.3021L19.4614 18.7103L23.1839 20.9434L22.229 22.5351ZM18.5069 20.3022C18.6111 20.3647 18.7397 20.3848 18.861 20.3543L18.4085 18.5541C18.7685 18.4636 19.1457 18.521 19.4611 18.7101L18.5069 20.3022ZM18.8592 20.3547C18.9797 20.3247 19.0845 20.2463 19.1473 20.1413L17.5543 19.1885C17.7441 18.8713 18.0502 18.6434 18.4102 18.5537L18.8592 20.3547ZM19.1461 20.1433C19.2099 20.0374 19.2284 19.9092 19.1993 19.7915L17.3974 20.237C17.3092 19.8805 17.3645 19.504 17.5555 19.1865L19.1461 20.1433ZM19.1987 19.7891C19.1685 19.6682 19.0904 19.5646 18.9869 19.5025L18.0312 21.0937C17.7158 20.9043 17.4879 20.599 17.398 20.2393L19.1987 19.7891ZM18.9864 19.5022L19.7108 19.9366L18.7561 21.5285L18.0317 21.094L18.9864 19.5022ZM19.7109 19.9367L22.7089 21.7354L21.7539 23.3271L18.756 21.5284L19.7109 19.9367ZM22.7092 21.7356C23.2726 22.0739 23.4549 22.8045 23.117 23.3679L21.5252 22.4132C21.3362 22.7282 21.4381 23.1374 21.7536 23.3269L22.7092 21.7356ZM23.1165 23.3688C22.7784 23.931 22.0488 24.1142 21.4849 23.7764L22.4387 22.184C22.1234 21.9952 21.7149 22.0977 21.5257 22.4123L23.1165 23.3688ZM21.4843 23.7761L18.4516 21.9566L19.4066 20.3649L22.4393 22.1844L21.4843 23.7761ZM18.4507 21.956C18.6736 22.0901 18.9594 22.0166 19.0914 21.797L17.5001 20.8413C17.8944 20.1848 18.7484 19.969 19.4075 20.3654L18.4507 21.956ZM19.0914 21.797C19.1546 21.6916 19.1734 21.5638 19.1442 21.4458L17.3423 21.8914C17.2541 21.5347 17.3096 21.1585 17.5001 20.8413L19.0914 21.797ZM19.1436 21.4435C19.1132 21.3218 19.0347 21.2186 18.9324 21.1571L17.9759 22.7479C17.6614 22.5588 17.433 22.2541 17.3429 21.8937L19.1436 21.4435ZM18.9316 21.1566L19.6751 21.6027L18.7202 23.1944L17.9767 22.7483L18.9316 21.1566ZM19.6752 21.6027L21.9643 22.9761L21.0094 24.5678L18.7202 23.1944L19.6752 21.6027ZM21.9647 22.9763C22.5281 23.3147 22.7104 24.0453 22.3725 24.6086L20.7806 23.6539C20.5917 23.969 20.6936 24.3782 21.009 24.5676L21.9647 22.9763ZM22.3719 24.6096C22.0349 25.17 21.3051 25.357 20.7388 25.0163L21.6957 23.4257C21.378 23.2346 20.9693 23.3402 20.7812 23.653L22.3719 24.6096ZM20.7398 25.0168L18.4506 23.6434L19.4056 22.0517L21.6947 23.4251L20.7398 25.0168ZM18.451 23.6436C18.5555 23.7062 18.6841 23.7258 18.8037 23.6959L18.3535 21.8952C18.7132 21.8053 19.0895 21.8622 19.4052 22.0515L18.451 23.6436ZM18.8037 23.6959C18.9231 23.6661 19.0274 23.5887 19.0906 23.4835L17.4989 22.5285C17.689 22.2116 17.9953 21.9847 18.3535 21.8952L18.8037 23.6959ZM19.0909 23.4829C19.1533 23.3788 19.1727 23.2515 19.1432 23.1324L17.3414 23.5785C17.2529 23.2209 17.3093 22.845 17.4986 22.529L19.0909 23.4829ZM19.1427 23.1303C19.1122 23.0087 19.0337 22.9054 18.9314 22.8439L17.9749 24.4347C17.6604 24.2456 17.432 23.941 17.3419 23.5805L19.1427 23.1303ZM18.9306 22.8434L23.5713 25.6273L22.6164 27.2191L17.9757 24.4352L18.9306 22.8434ZM23.5713 25.6274C24.1353 25.9657 24.7684 26.0734 25.3528 25.9542L25.7239 27.7729C24.6624 27.9895 23.5585 27.7843 22.6164 27.2191L23.5713 25.6274ZM25.3527 25.9542C25.9266 25.837 26.3709 25.519 26.6366 25.076L28.2284 26.0308C27.68 26.945 26.7788 27.5575 25.724 27.7729L25.3527 25.9542ZM26.6367 25.0757C27.0913 24.3185 27.0306 23.5021 26.464 22.8156L27.8955 21.634C28.9606 22.9244 29.0892 24.5967 28.2282 26.031L26.6367 25.0757ZM27.2717 23.1484L27.2714 23.1484L27.0875 21.3013L27.0878 21.3013L27.2717 23.1484Z" fill="#4CAF4F" mask="url(#path-4-inside-2_211_2338)"/>
</svg>
