<svg width="35" height="34" viewBox="0 0 35 34" fill="none" xmlns="http://www.w3.org/2000/svg">
<g clip-path="url(#clip0_211_2332)">
<path d="M12.4106 6.38647C13.9499 6.38657 15.4542 6.83072 16.7446 7.66187L16.9995 7.83276C18.2606 8.7152 19.239 9.94136 19.8198 11.3621L19.9302 11.6492C20.4576 13.0954 20.556 14.6607 20.2173 16.158L20.144 16.4558C19.7206 18.0421 18.8194 19.4604 17.563 20.5173L17.1401 20.8728L17.644 21.1003C19.7136 22.0369 21.4942 23.5111 22.8013 25.3689L22.8062 25.3757L22.812 25.3826C22.8881 25.48 22.9484 25.5886 22.9917 25.7039L23.0298 25.822C23.0718 25.9815 23.0804 26.1481 23.0562 26.3113C23.038 26.4336 23.0014 26.552 22.9478 26.6628L22.8882 26.7712C22.8232 26.8767 22.7431 26.9716 22.6499 27.0525L22.5532 27.1287C22.4184 27.2236 22.2653 27.2898 22.104 27.324C21.983 27.3496 21.8585 27.3572 21.7358 27.3455L21.6138 27.3269C21.4519 27.2947 21.2977 27.2299 21.1616 27.1365H21.1626C21.0265 27.0431 20.91 26.9234 20.8218 26.7839L20.8179 26.7771L20.813 26.7703L20.6313 26.5203C19.7688 25.3671 18.6737 24.408 17.4165 23.7058L17.145 23.5593C15.6826 22.7993 14.0587 22.4022 12.4106 22.4021C10.8654 22.4021 9.3412 22.7517 7.95166 23.4216L7.67529 23.5593C6.3041 24.272 5.11298 25.2849 4.18896 26.5203L4.00732 26.7703L4.00635 26.7712C3.92281 26.8911 3.81864 26.9948 3.69873 27.0769L3.57373 27.1511C3.44415 27.2185 3.30392 27.2619 3.15967 27.2791L3.01416 27.2878H3.01221C2.82458 27.2885 2.64033 27.2442 2.47412 27.1609L2.31494 27.0652L2.31299 27.0642L2.21826 26.99C2.00678 26.8069 1.8642 26.5551 1.81592 26.2771C1.76767 25.9991 1.81718 25.7141 1.95459 25.4705L2.01904 25.3689C3.32611 23.5111 5.10676 22.0369 7.17627 21.1003L7.68018 20.8728L7.25732 20.5173C6.07946 19.5265 5.21375 18.2184 4.76123 16.7517L4.67627 16.4558C4.27938 14.9688 4.32045 13.4012 4.79053 11.9402L4.89014 11.6492C5.41752 10.2031 6.34981 8.94203 7.57275 8.0144L7.8208 7.83276C9.16603 6.89149 10.7688 6.38647 12.4106 6.38647ZM23.0464 6.39624H23.0483C24.5883 6.39184 26.0947 6.83254 27.3872 7.66187L27.6431 7.83374C28.9062 8.71478 29.8857 9.94072 30.4673 11.3621L30.5786 11.6492C31.1065 13.096 31.2042 14.6623 30.8638 16.1599L30.7905 16.4578C30.365 18.0445 29.4604 19.4619 28.2007 20.5164L27.7759 20.8718L28.2808 21.1003C30.2211 21.9784 31.9077 23.3288 33.188 25.0251L33.438 25.3689L33.4399 25.3708C33.5097 25.4684 33.5641 25.5759 33.6021 25.6892L33.6343 25.8035C33.6609 25.9203 33.6703 26.0408 33.6616 26.1599L33.647 26.2781C33.6265 26.3961 33.5886 26.5105 33.5347 26.6169L33.4751 26.7205C33.4107 26.8214 33.3315 26.9117 33.2407 26.989L33.146 27.0623L33.1421 27.0652C32.9388 27.2105 32.6947 27.2877 32.4448 27.2869C32.2497 27.2856 32.0573 27.2383 31.8843 27.1482C31.7545 27.0806 31.6382 26.9905 31.5405 26.8826L31.4487 26.7683C30.4997 25.4222 29.2415 24.3233 27.7798 23.5642C26.4091 22.8525 24.897 22.4588 23.356 22.4109L23.0474 22.406L22.9263 22.4001C22.6874 22.3764 22.4606 22.2827 22.2749 22.1306L22.186 22.0496C21.9576 21.8211 21.8286 21.5113 21.8286 21.1882C21.8286 20.9054 21.9272 20.6326 22.105 20.4158L22.186 20.3269C22.4145 20.0986 22.7244 19.9705 23.0474 19.9705C24.4319 19.9704 25.7632 19.4541 26.7847 18.5291L26.9849 18.3386C28.0289 17.2944 28.6157 15.8778 28.6157 14.4011C28.6156 13.0167 28.1001 11.6852 27.1753 10.6638L26.9849 10.4636C26.0057 9.4845 24.6992 8.9078 23.3228 8.8396L23.0474 8.83276C22.6657 8.83206 22.2854 8.87135 21.9126 8.94995L21.5415 9.04175L21.4204 9.07202C21.3019 9.09487 21.1805 9.09957 21.0601 9.08667C20.9394 9.07375 20.8216 9.0434 20.7104 8.99585L20.6021 8.94312C20.4959 8.88467 20.399 8.81102 20.3149 8.72437L20.2358 8.63354C20.1604 8.5385 20.0992 8.43264 20.0552 8.32007L20.0171 8.20581C19.9842 8.08905 19.9693 7.96823 19.9722 7.84741L19.981 7.72729C19.9957 7.607 20.0284 7.48991 20.0776 7.37964L20.1323 7.27222C20.1924 7.167 20.267 7.07073 20.355 6.98804L20.4478 6.90991C20.5438 6.83614 20.6502 6.77737 20.7632 6.73511L20.8784 6.698L20.8843 6.69702C21.4994 6.52189 22.1334 6.4224 22.772 6.40112L23.0464 6.39624ZM13.4966 8.94019C12.4839 8.73876 11.4365 8.82281 10.4712 9.1814L10.2788 9.25659C9.32501 9.65172 8.50134 10.304 7.89795 11.1384L7.77979 11.3074C7.16797 12.223 6.84137 13.2999 6.84131 14.4011C6.84131 15.7857 7.35678 17.1179 8.28174 18.1394L8.47217 18.3386C9.51647 19.3829 10.9338 19.9705 12.4106 19.9705C13.443 19.9704 14.4538 19.6833 15.3306 19.1433L15.5034 19.032C16.3619 18.4584 17.0431 17.6576 17.4722 16.7214L17.5552 16.532C17.9501 15.5783 18.071 14.5349 17.9077 13.5183L17.8716 13.3152C17.6701 12.3024 17.1916 11.3668 16.4907 10.6121L16.3481 10.4636C15.618 9.73348 14.6997 9.22227 13.6978 8.98413L13.4966 8.94019Z" fill="#4CAF4F" stroke="#4CAF4F" stroke-width="0.696069"/>
</g>
<defs>
<clipPath id="clip0_211_2332">
<rect width="33.4113" height="33.4113" fill="white" transform="translate(0.924805 0.306152)"/>
</clipPath>
</defs>
</svg>
