<svg width="34" height="34" viewBox="0 0 34 34" fill="none" xmlns="http://www.w3.org/2000/svg">
<path d="M7.09131 5.71704H26.9292C28.0109 5.71704 29.0511 6.12046 29.8491 6.84302L30.0054 6.99146C30.8212 7.80727 31.2797 8.9139 31.2798 10.0676V23.6409C31.2798 24.7947 30.8212 25.9012 30.0054 26.717C29.1895 27.5329 28.083 27.9915 26.9292 27.9915H7.09131C6.00969 27.9914 4.96938 27.589 4.17139 26.8665L4.01514 26.717C3.19945 25.9012 2.74072 24.7945 2.74072 23.6409V10.0676C2.74078 8.98592 3.14402 7.94572 3.8667 7.14771L4.01514 6.99146C4.77993 6.22666 5.80034 5.77632 6.87549 5.7229L7.09131 5.71704ZM4.1333 23.6409C4.1333 24.3273 4.37195 24.9895 4.80322 25.5159L4.99951 25.7327C5.55425 26.2874 6.3068 26.5998 7.09131 26.5999H26.9292C27.7138 26.5999 28.4662 26.2875 29.021 25.7327C29.5758 25.1779 29.8882 24.4255 29.8882 23.6409V13.3743H4.1333V23.6409ZM22.231 20.3352H25.3638C25.502 20.3353 25.6361 20.3759 25.7495 20.4514L25.856 20.5383C25.9864 20.6688 26.059 20.8461 26.0591 21.0305C26.0591 21.2149 25.9862 21.3922 25.856 21.5227C25.7255 21.6531 25.5482 21.7267 25.3638 21.7268H22.231C22.0464 21.7268 21.8693 21.6532 21.7388 21.5227C21.6084 21.3922 21.5347 21.215 21.5347 21.0305C21.5348 20.8922 21.5763 20.7582 21.6519 20.6448L21.7388 20.5383C21.8693 20.4079 22.0465 20.3352 22.231 20.3352ZM7.09131 7.10962C6.3068 7.10968 5.55425 7.4211 4.99951 7.97583C4.44478 8.53056 4.13336 9.28312 4.1333 10.0676V11.9817H29.8882V10.0676C29.8881 9.38118 29.6496 8.71899 29.2183 8.19263L29.021 7.97583C28.4662 7.42121 27.7137 7.10962 26.9292 7.10962H7.09131Z" fill="#4CAF4F" stroke="#4CAF4F" stroke-width="0.696069"/>
</svg>
