<svg width="46" height="40" viewBox="0 0 46 40" fill="none" xmlns="http://www.w3.org/2000/svg">
<path d="M45.9189 27.4136C45.9189 34.3333 40.3094 39.9429 33.3897 39.9429L14.5958 39.9429C12.6737 39.9429 11.1155 38.3847 11.1155 36.4625L11.1155 12.7962C11.1155 8.95187 14.2319 5.83547 18.0762 5.83547L42.4386 5.83547C44.3607 5.83547 45.9189 7.39367 45.9189 9.31581L45.9189 27.4136Z" fill="#E8F5E9"/>
<path d="M17.373 7.92358C14.8872 7.92358 12.8635 9.96577 12.8635 12.4622C12.8635 14.0415 13.6744 15.4359 14.899 16.2487C13.42 16.7432 12.1402 17.6675 11.2015 18.8767C10.6825 18.4775 10.1027 18.1565 9.47754 17.9265C10.4255 17.2227 11.045 16.0922 11.045 14.8216C11.045 12.7043 9.33257 10.9711 7.22814 10.9711C5.1237 10.9711 3.41131 12.7043 3.41131 14.8216C3.41131 16.0929 4.0313 17.2239 4.98005 17.9277C2.46823 18.8546 0.674316 21.2813 0.674316 24.1373V26.1435C0.674573 26.2964 0.735749 26.443 0.844219 26.5507C0.952688 26.6586 1.09946 26.7188 1.2524 26.7183H10.0542C10.0755 26.7206 10.0968 26.7218 10.1182 26.7216H24.6283C24.6497 26.7218 24.6713 26.7206 24.6923 26.7183H33.4948C33.8112 26.717 34.0675 26.4602 34.0682 26.1435V24.1373C34.0682 21.2813 32.2774 18.8546 29.7669 17.9274C30.7156 17.2239 31.3356 16.0927 31.3356 14.8214C31.3356 12.7041 29.6233 10.9708 27.5188 10.9708C25.4144 10.9708 23.702 12.7041 23.702 14.8214C23.702 16.0919 24.3217 17.2226 25.2697 17.9262C24.6433 18.1568 24.0631 18.4788 23.5434 18.879C22.6052 17.6691 21.3272 16.7435 19.8482 16.2487C21.0725 15.4359 21.8837 14.0415 21.8837 12.4622C21.8837 9.96577 19.859 7.92358 17.3732 7.92358H17.373ZM17.373 9.07513C19.2322 9.07513 20.731 10.584 20.731 12.4622C20.731 14.3257 19.2556 15.8199 17.417 15.8439C17.4023 15.8439 17.3879 15.8418 17.373 15.8418C17.3581 15.8418 17.344 15.8439 17.3291 15.8439C15.4905 15.8202 14.016 14.3258 14.016 12.4622C14.016 10.5837 15.5136 9.07513 17.3728 9.07513H17.373ZM7.2282 12.1226C8.70337 12.1226 9.89348 13.3199 9.89348 14.8216C9.89348 16.3132 8.71877 17.5053 7.25748 17.5215C7.24772 17.5215 7.23821 17.5205 7.22818 17.5205C7.21841 17.5205 7.2089 17.5215 7.19888 17.5215C5.7376 17.5053 4.56289 16.3129 4.56289 14.8216C4.56289 13.3199 5.753 12.1226 7.22816 12.1226H7.2282ZM27.5185 12.1226C28.9936 12.1226 30.1837 13.3199 30.1837 14.8216C30.1837 16.3132 29.009 17.5053 27.5478 17.5215C27.538 17.5215 27.5285 17.5205 27.5185 17.5205C27.5087 17.5205 27.4992 17.5215 27.4891 17.5215C26.0279 17.5053 24.8532 16.3129 24.8532 14.8216C24.8532 13.3199 26.0433 12.1226 27.5184 12.1226H27.5185ZM17.3289 16.9953C17.3436 16.9956 17.358 16.9974 17.3729 16.9974C17.3875 16.9974 17.4019 16.9953 17.4168 16.9953C21.1041 17.019 24.055 19.9953 24.055 23.721L24.0548 25.5697H10.6915V23.721C10.6915 19.995 13.6416 17.019 17.3284 16.9953H17.3289ZM7.18411 18.6744C7.19877 18.6746 7.21316 18.6764 7.22807 18.6764C7.24298 18.6764 7.25711 18.6744 7.27202 18.6744C8.51918 18.6844 9.65737 19.1144 10.5637 19.8339C9.91515 20.9813 9.54011 22.3058 9.54011 23.7214V25.5656H1.8254V24.1372C1.8254 21.1093 4.20614 18.698 7.18398 18.6741L7.18411 18.6744ZM27.4744 18.6744C27.4893 18.6746 27.5034 18.6764 27.5183 18.6764C27.5332 18.6764 27.5474 18.6744 27.5623 18.6744C30.5401 18.698 32.9209 21.1096 32.9209 24.1375V25.5656H25.2022L25.202 23.7214C25.202 22.3066 24.828 20.9831 24.1807 19.8359C25.0873 19.1154 26.2262 18.6844 27.4745 18.6744H27.4744Z" fill="#103E13"/>
</svg>
