<svg width="46" height="40" viewBox="0 0 46 40" fill="none" xmlns="http://www.w3.org/2000/svg">
<path d="M45.6665 27.4136C45.6665 34.3333 40.057 39.9429 33.1373 39.9429L14.3434 39.9429C12.4212 39.9429 10.863 38.3847 10.863 36.4625L10.863 12.7962C10.863 8.95187 13.9794 5.83547 17.8237 5.83547L42.1862 5.83547C44.1083 5.83547 45.6665 7.39367 45.6665 9.31581L45.6665 27.4136Z" fill="#E8F5E9"/>
<path d="M20.1288 17.4212C19.9612 17.4212 19.8055 17.3751 19.6673 17.301V17.3029C19.6673 17.5666 19.5648 17.8143 19.3788 17.9998C19.1929 18.1857 18.9454 18.2882 18.682 18.2882C18.512 18.2882 18.3544 18.241 18.2146 18.1649C18.2005 18.4061 18.1041 18.6316 17.9321 18.8038C17.7461 18.9898 17.4986 19.0923 17.2351 19.0923C16.7114 19.0923 16.2862 18.6807 16.2556 18.1647C16.0935 18.2523 15.9103 18.2982 15.7214 18.2861C15.2063 18.2523 14.8029 17.8072 14.8029 17.2726V12.841L14.2983 13.7152C14.1061 14.0496 13.7463 14.2572 13.3589 14.2572C13.1702 14.2572 12.9837 14.2077 12.8186 14.113C12.6129 13.9938 12.4658 13.8024 12.4046 13.5735C12.3432 13.3444 12.375 13.1048 12.4939 12.8995C12.494 12.8995 14.1449 10.0406 14.2456 9.86496C14.2576 9.83856 14.2917 9.76197 14.3208 9.6967C14.3485 9.63439 14.3723 9.57043 14.395 9.50614C14.8929 8.10058 16.1257 7.22748 17.6124 7.22748C19.5431 7.22748 21.1138 8.93069 21.1138 11.0243L21.114 16.4357C21.114 16.6991 21.0116 16.9466 20.8258 17.1327C20.6399 17.3187 20.3924 17.4212 20.1287 17.4212L20.1288 17.4212ZM17.6124 7.75103C16.3349 7.75103 15.3167 8.47261 14.8885 9.68124C14.8611 9.75798 14.8326 9.83473 14.7993 9.90951C14.7027 10.1261 14.7027 10.1261 14.6755 10.1573L14.6719 10.1542C14.5371 10.4085 14.1366 11.1021 12.9472 13.1615C12.8983 13.2459 12.8853 13.344 12.9103 13.4378C12.9355 13.5316 12.996 13.6107 13.0798 13.659C13.3399 13.8084 13.6961 13.712 13.8444 13.4537L14.838 11.7334C14.8974 11.6309 15.0174 11.5806 15.1325 11.6117C15.247 11.6424 15.3265 11.7462 15.3265 11.8646V17.2727C15.3265 17.5279 15.5191 17.7482 15.7557 17.7637C15.8922 17.7709 16.0194 17.7252 16.115 17.6297C16.202 17.5428 16.2498 17.4271 16.2498 17.3032V13.7663C16.2498 13.6216 16.3671 13.5044 16.5117 13.5044C16.6564 13.5044 16.7736 13.6214 16.7736 13.7663L16.7735 18.1072C16.7735 18.3617 16.9806 18.5688 17.2351 18.5688C17.3588 18.5688 17.4749 18.5209 17.5619 18.434C17.6489 18.347 17.6967 18.2308 17.6967 18.1072V13.7662C17.6967 13.6216 17.8138 13.5043 17.9586 13.5043C18.1033 13.5043 18.2205 13.6214 18.2205 13.7662L18.2204 17.2626V17.3032C18.2204 17.5576 18.4275 17.7647 18.6822 17.7647C18.8057 17.7647 18.9214 17.7166 19.009 17.6294C19.0959 17.5426 19.1438 17.4269 19.1438 17.3031V13.7661C19.1438 13.6214 19.2609 13.5042 19.4057 13.5042C19.5504 13.5042 19.6676 13.6213 19.6676 13.7661L19.6673 16.4359C19.6673 16.6906 19.8744 16.8977 20.1287 16.8977C20.2526 16.8977 20.3683 16.8496 20.4553 16.7629C20.5425 16.6756 20.5902 16.5595 20.5902 16.4359L20.5904 11.0244C20.5904 9.21966 19.2545 7.75108 17.6124 7.75108L17.6124 7.75103Z" fill="#103E13"/>
<path d="M9.83908 21.1823L13.6394 18.9025C14.0976 18.6273 14.6872 18.7443 14.981 19.1688C15.0883 19.3235 15.1431 19.5037 15.1516 19.6872C15.2933 19.6133 15.4474 19.5731 15.6044 19.5731C15.6847 19.5731 15.7654 19.5831 15.8451 19.6029C16.1004 19.6667 16.3156 19.8263 16.4509 20.0519C16.5864 20.2779 16.6259 20.5427 16.5621 20.7978C16.5032 21.0338 16.3597 21.2324 16.1602 21.3687C16.2997 21.451 16.4201 21.5633 16.5057 21.7063C16.6411 21.9323 16.6807 22.197 16.617 22.4523C16.5532 22.7073 16.3937 22.9225 16.1677 23.0581L16.1664 23.059C16.3035 23.1411 16.4217 23.2523 16.5063 23.3932C16.642 23.6192 16.6815 23.884 16.6177 24.1393C16.5537 24.3945 16.3942 24.6096 16.1685 24.7451L11.5283 27.5289C10.6622 28.0483 9.66102 28.2275 8.70953 28.0332C7.74953 27.8371 6.95447 27.2853 6.47105 26.4794C5.70601 25.2043 5.82066 23.6979 6.76968 22.5481C6.81314 22.4956 6.85594 22.4422 6.89481 22.3867C6.93597 22.3282 6.98402 22.2593 7.00042 22.2357C7.09865 22.0602 8.70153 19.1723 8.70136 19.1727C8.86323 18.8806 9.16661 18.7153 9.4795 18.7154C9.62546 18.7154 9.77354 18.7513 9.91015 18.8271C10.0751 18.9193 10.2137 19.0536 10.3106 19.2154C10.5099 19.5475 10.5169 19.9631 10.3293 20.2994L9.83908 21.1823ZM9.86187 19.4847C9.81104 19.3999 9.74117 19.3323 9.65573 19.2844C9.47911 19.1867 9.25674 19.2503 9.1595 19.4263C8.01255 21.4926 7.62157 22.1968 7.47069 22.4474L7.47413 22.4482C7.46151 22.4902 7.46151 22.4902 7.32343 22.6874C7.27652 22.7542 7.22552 22.8183 7.17354 22.8815C6.35749 23.8702 6.26274 25.1144 6.91984 26.21C7.32687 26.8886 7.99958 27.3538 8.81411 27.5201C9.63751 27.6876 10.5054 27.5318 11.2586 27.0798L15.8993 24.2959C16.0052 24.2324 16.08 24.1316 16.1099 24.012C16.1397 23.8927 16.1212 23.7685 16.0576 23.6626C15.9267 23.4445 15.6425 23.3728 15.4244 23.5042L13.1351 24.8776C13.0111 24.9521 12.85 24.912 12.7757 24.7879C12.7013 24.6639 12.7415 24.503 12.8654 24.4286L15.1549 23.0551L15.8985 22.6091C16.0044 22.5455 16.0794 22.4446 16.1092 22.3254C16.1391 22.2058 16.1205 22.0815 16.0569 21.9758C15.9259 21.7575 15.6417 21.6865 15.4237 21.8173L12.3907 23.6368C12.2664 23.7115 12.1058 23.6711 12.0314 23.5471C11.9569 23.4232 11.9973 23.2623 12.1211 23.1878L15.8436 20.9548C15.9495 20.8911 16.0243 20.7904 16.0541 20.6709C16.084 20.5515 16.0654 20.4274 16.002 20.3214C15.9385 20.2156 15.8376 20.1409 15.7181 20.111C15.5979 20.0812 15.4742 20.0997 15.3686 20.163L14.6795 20.5764C14.6794 20.5764 14.6794 20.5766 14.6792 20.5766H14.679L11.6462 22.3961C11.5219 22.4709 11.3612 22.4305 11.2869 22.3064C11.2124 22.1824 11.2528 22.0215 11.3766 21.9471L14.4096 20.1276C14.5155 20.064 14.5905 19.9631 14.6203 19.8439C14.6531 19.713 14.6282 19.5792 14.5505 19.467C14.4157 19.272 14.1274 19.2202 13.9088 19.3516L9.27144 22.1336C9.16993 22.1942 9.03988 22.1795 8.95477 22.0973C8.8695 22.015 8.85031 21.8856 8.9077 21.7821L9.87199 20.0448C9.96875 19.8711 9.96497 19.6566 9.86182 19.4847L9.86187 19.4847Z" fill="#103E13"/>
<path d="M27.999 26.4793C27.5157 27.2853 26.7209 27.837 25.7607 28.0331C24.809 28.2271 23.8082 28.0482 22.942 27.5288L18.3013 24.7449C18.0755 24.6094 17.9157 24.3943 17.8518 24.1388C17.7883 23.8837 17.828 23.6189 17.9633 23.3932C18.0477 23.2522 18.1661 23.141 18.3034 23.0589L18.3021 23.058C18.0763 22.9226 17.9166 22.7074 17.8529 22.4522C17.789 22.1971 17.8287 21.932 17.9641 21.7061C18.0514 21.561 18.1709 21.4475 18.3074 21.367C18.1092 21.2307 17.9666 21.0327 17.9079 20.7979C17.8439 20.5426 17.8836 20.2777 18.0191 20.052C18.1544 19.8262 18.3697 19.6667 18.6249 19.6029C18.7046 19.5829 18.7854 19.573 18.8654 19.573C19.0225 19.5732 19.1767 19.613 19.3184 19.6872C19.3271 19.5037 19.3817 19.3234 19.4889 19.1688C19.783 18.7445 20.372 18.6271 20.8309 18.9024L24.6311 21.1819L24.1413 20.2996C23.9533 19.9628 23.9602 19.5472 24.1595 19.215C24.2565 19.0533 24.3953 18.919 24.5611 18.826C24.6974 18.7506 24.8449 18.7148 24.9906 18.7148C25.3033 18.715 25.607 18.88 25.7687 19.1721C26.3322 20.1873 27.3955 22.1021 27.4703 22.2358C27.4862 22.2589 27.5342 22.3278 27.5754 22.3863C27.6146 22.4419 27.6569 22.495 27.7007 22.5479C28.6496 23.6981 28.764 25.2044 27.999 26.4793L27.999 26.4793ZM27.2966 22.8816C27.2445 22.8185 27.1933 22.754 27.1468 22.6876C27.0051 22.4865 27.0015 22.4813 26.9908 22.4287C26.8252 22.1546 26.4211 21.4272 25.3104 19.4261C25.213 19.2505 24.9916 19.1863 24.8153 19.2838C24.7285 19.3323 24.6588 19.4 24.608 19.4848C24.505 19.6565 24.5011 19.871 24.5983 20.0452L25.5623 21.782C25.6198 21.8857 25.6007 22.0149 25.5155 22.0972C25.4306 22.1797 25.3007 22.1941 25.1987 22.1335L20.5614 19.3515C20.3428 19.2204 20.0546 19.2718 19.9195 19.4669C19.8418 19.5791 19.817 19.7129 19.8495 19.8436C19.8793 19.963 19.9543 20.0637 20.0604 20.1273C20.0607 20.1275 20.0609 20.1278 20.0612 20.128L23.0933 21.947C23.2172 22.0214 23.2574 22.1821 23.183 22.3063C23.1085 22.4301 22.948 22.4706 22.8237 22.396L19.1012 20.1629C18.9956 20.0996 18.8713 20.0809 18.7519 20.1109C18.6322 20.1408 18.5315 20.2156 18.468 20.3217C18.4044 20.4274 18.386 20.5516 18.4155 20.671C18.4454 20.7904 18.5203 20.8912 18.6263 20.9548L19.3506 21.3893L22.3486 23.188C22.4725 23.2624 22.5127 23.4231 22.4383 23.5473C22.3638 23.6711 22.2033 23.7114 22.079 23.637L19.0463 21.8175C18.8282 21.6863 18.5441 21.7574 18.4129 21.9759C18.3493 22.0818 18.3309 22.206 18.3604 22.3253C18.3903 22.4447 18.4652 22.5454 18.5713 22.6092L19.3149 23.0553L21.604 24.4287C21.728 24.5032 21.7682 24.6639 21.6937 24.788C21.6193 24.9118 21.4587 24.9525 21.3344 24.8777L19.0453 23.5043C18.9397 23.441 18.8159 23.4223 18.6958 23.4523C18.5764 23.4821 18.4754 23.5569 18.4119 23.6627C18.3485 23.7686 18.3299 23.8929 18.3595 24.0122C18.3893 24.1316 18.4643 24.2322 18.5704 24.296L23.2111 27.08C23.9641 27.5318 24.8326 27.6882 25.6555 27.5203C26.4699 27.354 27.1426 26.8887 27.5496 26.2101C28.2074 25.1143 28.1128 23.87 27.2969 22.8816L27.2966 22.8816Z" fill="#103E13"/>
</svg>
