<svg width="805" height="70" viewBox="0 0 805 70" fill="none" xmlns="http://www.w3.org/2000/svg">
<g clip-path="url(#clip0_211_2045)">
<path fill-rule="evenodd" clip-rule="evenodd" d="M9.97901 21.1498C13.8233 21.1498 16.9397 24.2662 16.9397 28.1105V21.1498H23.9004C27.7446 21.1498 30.8611 24.2662 30.8611 28.1105C30.8611 31.9547 27.7446 35.0712 23.9004 35.0712C27.7446 35.0712 30.8611 38.1876 30.8611 42.0319C30.8611 43.9407 30.0927 45.6701 28.8484 46.9276L28.8224 46.9538L28.7993 46.9768C27.5415 48.2229 25.8108 48.9926 23.9004 48.9926C22.003 48.9926 20.2829 48.2334 19.0272 47.0021C19.0109 46.9861 18.9946 46.97 18.9784 46.9538C18.9632 46.9386 18.948 46.9233 18.9329 46.9079C17.7001 45.6521 16.9397 43.9307 16.9397 42.0319C16.9397 45.8761 13.8233 48.9926 9.97901 48.9926C6.13472 48.9926 3.01831 45.8761 3.01831 42.0319V35.0712H9.97901C6.13472 35.0712 3.01831 31.9547 3.01831 28.1105C3.01831 24.2662 6.13472 21.1498 9.97901 21.1498ZM15.5476 28.1105C15.5476 31.1859 13.0544 33.679 9.97901 33.679V22.5419C13.0544 22.5419 15.5476 25.035 15.5476 28.1105ZM29.469 42.0319C29.469 38.9564 26.9758 36.4633 23.9004 36.4633C20.825 36.4633 18.3318 38.9564 18.3318 42.0319H29.469ZM4.41045 36.4633V42.0319C4.41045 45.1073 6.90358 47.6004 9.97901 47.6004C13.0544 47.6004 15.5476 45.1073 15.5476 42.0319V36.4633H4.41045ZM18.3318 33.679V22.5419H23.9004C26.9758 22.5419 29.469 25.035 29.469 28.1105C29.469 31.1859 26.9758 33.679 23.9004 33.679H18.3318Z" fill="#263238"/>
</g>
<g clip-path="url(#clip1_211_2045)">
<path fill-rule="evenodd" clip-rule="evenodd" d="M138.046 28.0835L131.095 34.9645C132.485 36.3408 134.074 37.5007 135.805 38.4082C136.284 39.665 137.034 40.8437 138.056 41.8552C141.9 45.6608 148.133 45.6608 151.977 41.8552C152.999 40.8437 153.749 39.665 154.228 38.4081C155.959 37.5007 157.548 36.3408 158.938 34.9645L151.993 28.0891C151.988 28.084 151.982 28.0789 151.977 28.0737C148.133 24.2681 141.9 24.2681 138.056 28.0737C138.052 28.077 138.049 28.0803 138.046 28.0835ZM151.312 39.6496C149.287 40.3263 147.16 40.6729 145.016 40.6729C142.873 40.6729 140.747 40.3263 138.721 39.6496C138.94 39.9379 139.183 40.2145 139.448 40.477C142.523 43.5216 147.51 43.5216 150.585 40.477C150.85 40.2145 151.093 39.9379 151.312 39.6496ZM139.591 29.314C140.113 29.6556 140.668 29.9479 141.249 30.1862C142.444 30.6759 143.724 30.928 145.016 30.928C146.309 30.928 147.589 30.6759 148.784 30.1862C149.365 29.9479 149.92 29.6556 150.442 29.314C147.405 26.4533 142.628 26.4533 139.591 29.314Z" fill="#3B4158"/>
</g>
<g clip-path="url(#clip2_211_2045)">
<path d="M292.58 31.9503C292.584 31.9212 292.584 31.8919 292.58 31.8629C292.584 31.8392 292.584 31.8151 292.58 31.7914L292.297 29.7501C292.256 29.5058 292.146 29.2776 291.981 29.0908L291.932 29.0352L291.843 28.9478L286.933 24.8016L287.071 24.9367C286.958 24.8045 286.817 24.6988 286.657 24.6273C286.497 24.5558 286.323 24.5204 286.147 24.5236H284.656C284.414 24.5189 284.177 24.5945 283.984 24.7381C283.781 24.5954 283.537 24.5202 283.287 24.5236H281.796C281.601 24.5205 281.408 24.5681 281.237 24.6616C281.067 24.755 280.924 24.891 280.824 25.0558C280.67 25.2912 280.612 25.5748 280.662 25.8501L280.849 27.1369C280.725 27.0682 280.585 27.0326 280.443 27.0336H273.225C272.966 27.0352 272.713 27.1096 272.495 27.2481C272.285 27.3769 272.117 27.5614 272.009 27.7802L271.45 27.3116C271.23 27.112 270.94 27.0038 270.64 27.0098H259.314C259.054 27.0144 258.799 27.0856 258.576 27.2163C258.271 27.3915 258.047 27.6764 257.952 28.0106L254.355 39.8058C254.288 40.0001 254.281 40.2097 254.336 40.4078C254.391 40.6058 254.505 40.7834 254.663 40.9178C254.704 40.9521 254.748 40.9839 254.793 41.0131C254.793 41.0131 254.72 40.9654 254.679 40.9257L259.589 45.0799C259.797 45.2673 260.068 45.3721 260.351 45.3737H271.766C272.027 45.3671 272.281 45.2931 272.504 45.1593C272.629 45.0919 272.742 45.0032 272.836 44.8971L272.876 44.8415L272.941 44.7621L272.99 44.6748L273.524 45.1275C273.729 45.3075 273.995 45.4066 274.27 45.4055H285.71C285.97 45.397 286.224 45.3232 286.447 45.1911C286.57 45.1196 286.682 45.0313 286.779 44.9289L286.82 44.8733L286.884 44.7939C286.919 44.7437 286.949 44.6905 286.974 44.635C287 44.5869 287.022 44.5364 287.038 44.4842L290.32 33.7136V33.6183C290.324 33.5813 290.324 33.544 290.32 33.5071V33.4356C290.324 33.4119 290.324 33.3878 290.32 33.3641C290.323 33.3139 290.323 33.2634 290.32 33.2132H291.373C291.465 33.2214 291.557 33.2214 291.648 33.2132H291.721C291.781 33.1958 291.838 33.1718 291.892 33.1417H291.973L292.118 33.0305L292.183 32.9828L292.297 32.8398V32.7922L292.378 32.6572C292.373 32.6309 292.373 32.604 292.378 32.5778C292.373 32.5649 292.373 32.5509 292.378 32.538C292.395 32.4915 292.408 32.4436 292.418 32.395C292.414 32.3794 292.414 32.363 292.418 32.3474C292.414 32.3237 292.414 32.2996 292.418 32.2759C292.418 32.2759 292.58 31.9661 292.58 31.9503Z" fill="black"/>
<path d="M270.972 27.9153C271.015 27.9534 271.045 28.0036 271.058 28.059C271.071 28.1143 271.067 28.1723 271.045 28.2251L267.456 40.0123C267.411 40.141 267.318 40.2486 267.197 40.3142C267.098 40.3791 266.983 40.4174 266.865 40.4254H255.457C255.36 40.4208 255.267 40.3812 255.198 40.3142C255.156 40.2766 255.127 40.2279 255.114 40.1742C255.101 40.1204 255.105 40.0641 255.125 40.0123L258.722 28.2251C258.764 28.0948 258.853 27.9843 258.973 27.9153C259.074 27.8551 259.188 27.8196 259.305 27.812H270.713C270.81 27.8129 270.902 27.8499 270.972 27.9153ZM265.017 37.6374L267.164 30.6H261.153L259.014 37.6374H265.017ZM281.861 28.0344C281.9 28.0788 281.949 28.1139 282.004 28.1373C282.058 28.1607 282.118 28.1717 282.177 28.1695H283.66C283.716 28.17 283.772 28.1564 283.822 28.13C283.871 28.1036 283.913 28.0652 283.944 28.0185C283.97 27.9821 283.988 27.9408 283.998 27.8971C284.008 27.8534 284.009 27.8083 284 27.7644L283.709 25.6675C283.681 25.5704 283.631 25.4808 283.563 25.4053C283.524 25.361 283.475 25.3258 283.42 25.3025C283.366 25.2791 283.306 25.2681 283.247 25.2703H281.764C281.708 25.2698 281.652 25.2833 281.602 25.3097C281.553 25.3362 281.511 25.3745 281.481 25.4212C281.424 25.5324 281.4 25.6039 281.424 25.6675L281.724 27.7644C281.739 27.8665 281.787 27.9611 281.861 28.0344ZM286.569 25.6516C286.541 25.5545 286.491 25.4649 286.423 25.3895C286.385 25.3453 286.338 25.3101 286.285 25.2867C286.231 25.2633 286.173 25.2522 286.115 25.2544H284.624C284.569 25.2529 284.514 25.2661 284.465 25.2926C284.417 25.3192 284.376 25.3582 284.349 25.4053C284.295 25.4758 284.271 25.5643 284.284 25.6516L284.584 27.7485C284.602 27.8495 284.65 27.9432 284.721 28.0185C284.761 28.062 284.81 28.0966 284.864 28.1199C284.919 28.1432 284.978 28.1547 285.037 28.1536H286.528C286.583 28.1543 286.638 28.1407 286.686 28.1142C286.735 28.0878 286.775 28.0493 286.804 28.0027C286.832 27.9671 286.851 27.9258 286.861 27.8819C286.871 27.8379 286.871 27.7923 286.86 27.7485L286.569 25.6516ZM280.557 28.8287L280.411 27.7961H273.225C273.112 27.8022 273.003 27.8379 272.909 27.8994C272.849 27.9313 272.797 27.9755 272.756 28.029C272.716 28.0825 272.688 28.144 272.674 28.2092L272.074 30.179C272.05 30.2282 272.042 30.2835 272.051 30.3373C272.059 30.3912 272.085 30.4412 272.123 30.4809C272.191 30.5438 272.28 30.5805 272.374 30.5841H281.108L278.961 37.6215H270.251C270.139 37.624 270.03 37.657 269.935 37.7168C269.821 37.7882 269.737 37.8985 269.7 38.0266L269.093 39.9965C269.073 40.047 269.068 40.1019 269.078 40.1552C269.088 40.2085 269.112 40.2579 269.149 40.2983C269.216 40.3654 269.305 40.4052 269.401 40.4094H280.84C280.959 40.3995 281.073 40.3613 281.173 40.2983C281.292 40.2324 281.382 40.1246 281.424 39.9965L284.713 29.2259H281.011C280.952 29.227 280.894 29.2163 280.839 29.1945C280.785 29.1726 280.736 29.14 280.695 29.0988C280.628 29.0267 280.58 28.9393 280.557 28.8446V28.8287Z" fill="white"/>
</g>
<g clip-path="url(#clip3_211_2045)">
<path d="M415.785 27.7008C415.785 27.7243 415.785 27.7538 415.779 27.7714C415.748 28.0009 415.748 28.2304 415.767 28.4657C415.779 28.5246 415.791 28.5834 415.84 28.6305C415.92 28.7188 416.043 28.7011 416.092 28.5952C416.116 28.5422 416.116 28.4893 416.104 28.4363C416.043 28.2127 416.03 27.9774 416.024 27.7479C416.024 27.7361 416.024 27.7185 416.024 27.7008C416.092 27.6949 416.153 27.689 416.208 27.689C416.251 27.6831 416.288 27.6773 416.319 27.6596C416.41 27.6125 416.41 27.5125 416.312 27.4654C416.276 27.4478 416.227 27.4419 416.184 27.4419C416.03 27.4478 415.877 27.4478 415.724 27.4478C415.669 27.4478 415.613 27.4537 415.558 27.4595C415.528 27.4654 415.491 27.4654 415.466 27.4831C415.423 27.5007 415.399 27.5302 415.399 27.5713C415.405 27.6125 415.423 27.6361 415.466 27.6537C415.491 27.6714 415.522 27.6773 415.552 27.6773C415.626 27.6831 415.705 27.6949 415.785 27.7008ZM417.471 27.9715C417.471 27.9774 417.477 27.9832 417.477 27.9832C417.502 28.1421 417.526 28.2951 417.545 28.4481C417.551 28.501 417.557 28.5481 417.594 28.5893C417.673 28.6893 417.796 28.6776 417.851 28.5717C417.876 28.5187 417.882 28.4657 417.87 28.4069C417.833 28.2304 417.814 28.0539 417.778 27.8832C417.753 27.7773 417.723 27.6773 417.692 27.5831C417.673 27.5243 417.631 27.4831 417.557 27.4772C417.483 27.4654 417.428 27.5007 417.398 27.5537C417.361 27.6008 417.33 27.6478 417.306 27.7008C417.263 27.7949 417.226 27.8891 417.177 27.9774C417.171 28.0009 417.165 28.0185 417.152 28.0362C417.146 28.0244 417.14 28.0185 417.14 28.0185C417.06 27.8714 416.987 27.7243 416.907 27.5831C416.895 27.5713 416.889 27.5596 416.883 27.5478C416.846 27.4949 416.803 27.4654 416.735 27.4654C416.674 27.4713 416.625 27.5066 416.594 27.5596C416.582 27.5831 416.582 27.6008 416.576 27.6243C416.551 27.8126 416.521 28.0009 416.496 28.1892C416.484 28.2951 416.478 28.401 416.478 28.5069C416.472 28.5305 416.478 28.5599 416.49 28.5834C416.502 28.6305 416.539 28.6599 416.588 28.6658C416.65 28.6717 416.692 28.654 416.711 28.607C416.729 28.5717 416.735 28.5422 416.742 28.5128C416.766 28.4069 416.784 28.3069 416.803 28.2068C416.815 28.148 416.821 28.1009 416.84 28.0362C416.852 28.0597 416.864 28.0774 416.876 28.095C416.932 28.1657 416.987 28.2363 417.054 28.2951C417.122 28.3422 417.177 28.3363 417.232 28.2833C417.244 28.2716 417.25 28.2657 417.263 28.2539C417.318 28.1715 417.385 28.0892 417.44 28.0068C417.453 27.995 417.459 27.9832 417.471 27.9715Z" fill="#3A3B7B"/>
<path d="M403.345 27.8163C403.302 27.9282 403.294 28.0087 403.314 28.0757C403.336 28.1668 403.392 28.1966 403.469 28.1734C404.189 28.0025 405.768 28.4876 406.352 28.6228C406.49 28.6512 406.602 28.4804 406.508 28.3272C406.371 28.1789 404.793 27.5439 404.19 27.5093C403.954 27.4965 403.532 27.4384 403.345 27.8163Z" fill="#3A3B7B"/>
<path d="M409.516 25.7607C409.593 25.8032 409.636 25.8438 409.657 25.8891C409.689 25.9485 409.672 25.9897 409.619 26.0106C409.143 26.2336 408.509 27.1936 408.254 27.5246C408.192 27.6008 408.049 27.5565 408.027 27.4313C408.032 27.2897 408.593 26.2479 408.907 25.9642C409.03 25.8534 409.233 25.636 409.516 25.7607Z" fill="#3A3B7B"/>
<path d="M405.725 25.2882C405.818 25.2215 405.913 25.1981 405.962 25.2415C406.681 25.831 407.061 26.7645 407.297 27.6191C407.306 27.639 407.307 27.6676 407.3 27.6974C407.297 27.7229 407.277 27.7498 407.246 27.7706C407.214 27.7936 407.185 27.8006 407.172 27.7808C406.857 27.3699 405.059 25.7711 405.725 25.2882Z" fill="#3A3B7B"/>
<path d="M390.517 35.5086C390.689 35.3856 390.876 35.2832 391.074 35.2037C391.281 35.1469 391.502 35.1563 391.703 35.2306C391.904 35.3049 392.075 35.44 392.189 35.6156C392.291 35.7906 392.331 35.9928 392.302 36.1915C392.274 36.3902 392.18 36.5748 392.033 36.7174C391.919 36.833 391.789 36.9337 391.648 37.0169C391.018 37.4074 390.383 37.7764 389.748 38.1669C389.618 38.2646 389.48 38.3523 389.335 38.429C389.116 38.5342 388.864 38.5624 388.625 38.5086C388.386 38.455 388.174 38.3227 388.026 38.1348C387.915 38.0018 387.821 37.8563 387.747 37.7016C387.145 36.4874 386.521 35.2786 385.942 34.043C385.674 33.5082 385.457 32.8931 385.245 32.2994C385.153 32.1269 385.135 31.9269 385.195 31.7419C385.255 31.5569 385.387 31.4016 385.564 31.3089C385.741 31.2163 385.949 31.1936 386.144 31.2457C386.338 31.2978 386.503 31.4206 386.605 31.588C386.916 31.9856 387.192 32.4079 387.43 32.8503C388.031 33.92 388.605 34.9898 389.185 36.0274C389.219 36.0848 389.256 36.1401 389.296 36.1932C389.733 36.0172 390.143 35.787 390.517 35.5086Z" fill="#3A3B7B"/>
<path d="M396.74 35.1355C395.363 36.6812 393.056 36.2908 391.897 34.3011C391.072 32.889 390.927 30.557 392.722 29.0861C393.105 28.7782 393.563 28.5684 394.054 28.4764C394.655 28.3936 395.268 28.4954 395.806 28.7673C396.343 29.0392 396.778 29.4671 397.046 29.99C398.027 31.7016 397.888 33.8839 396.74 35.1355ZM396.183 31.5305C396.036 31.1099 395.743 30.7508 395.352 30.5142C395.131 30.3629 394.862 30.2894 394.591 30.306C394.32 30.3225 394.064 30.4282 393.864 30.6051C393.067 31.2844 392.9 32.8944 393.48 33.8518C393.554 34.0079 393.662 34.1467 393.798 34.2583C393.933 34.37 394.093 34.4519 394.265 34.4982C394.437 34.5446 394.617 34.5543 394.793 34.5268C394.97 34.4991 395.138 34.4349 395.285 34.3385C395.717 34.0171 396.034 33.5744 396.192 33.0722C396.35 32.5699 396.341 32.0329 396.166 31.5358L396.183 31.5305Z" fill="#3A3B7B"/>
<path d="M402.357 32.2043C402.216 32.2334 402.071 32.2352 401.929 32.2094C401.787 32.1837 401.653 32.1311 401.532 32.0546C401.427 31.9969 401.337 31.9176 401.268 31.8223C401.198 31.727 401.152 31.6182 401.132 31.5036C401.111 31.389 401.118 31.2716 401.15 31.1597C401.183 31.0478 401.241 30.9442 401.321 30.8565C401.459 30.6801 401.655 30.5538 401.878 30.4981C402.459 30.3363 403.057 30.2376 403.661 30.2039C403.794 30.1891 403.929 30.1999 404.057 30.2356C404.185 30.2714 404.305 30.3314 404.409 30.4121C404.512 30.4928 404.598 30.5927 404.661 30.7057C404.724 30.8187 404.763 30.9428 404.776 31.0704C404.95 31.6976 404.969 32.3551 404.832 32.9906C404.33 35.0445 402.602 35.7505 400.663 35.0926C400.119 34.9167 399.641 34.589 399.292 34.1513C398.826 33.6241 398.496 32.9994 398.328 32.3274C398.192 31.7289 398.207 31.1079 398.372 30.5161C398.536 29.9244 398.846 29.379 399.275 28.9256C399.683 28.4328 400.211 28.045 400.814 27.797C401.194 27.5957 401.64 27.5384 402.062 27.6366C402.158 27.662 402.245 27.7116 402.314 27.7802C402.383 27.8488 402.432 27.9339 402.455 28.0266C402.478 28.1194 402.475 28.2165 402.446 28.3078C402.417 28.3991 402.364 28.4813 402.29 28.5458C402.151 28.6667 402 28.7742 401.839 28.8668C401.344 29.1696 400.912 29.5598 400.568 30.0167C400.343 30.3124 400.188 30.6519 400.113 31.0114C400.039 31.3708 400.048 31.7415 400.139 32.0974C400.266 32.5826 400.546 33.0181 400.942 33.3436C402.168 34.4134 403.762 33.381 403.483 31.9209C403.076 32.0172 402.719 32.1188 402.357 32.2043Z" fill="#3A3B7B"/>
<path d="M409.847 35.2211C408.036 36.2908 405.974 35.2211 405.523 32.9747C405.194 31.3701 405.818 29.1236 408.003 28.2678C408.467 28.0896 408.972 28.0271 409.468 28.0859C410.065 28.1908 410.613 28.4728 411.033 28.8921C411.454 29.3115 411.728 29.847 411.814 30.4233C412.182 32.3328 411.346 34.3707 409.847 35.2211ZM410.477 31.6214C410.476 31.1771 410.313 30.7471 410.015 30.4073C409.855 30.1971 409.625 30.0464 409.362 29.9811C409.1 29.9157 408.823 29.9397 408.577 30.0489C407.596 30.4554 406.905 31.9316 407.156 33.0175C407.175 33.1878 407.232 33.3522 407.325 33.4989C407.417 33.6457 407.541 33.7714 407.689 33.8672C407.838 33.9629 408.006 34.0265 408.182 34.0534C408.358 34.0803 408.539 34.0699 408.71 34.023C409.229 33.8492 409.678 33.5243 409.994 33.0938C410.311 32.6632 410.48 32.1485 410.477 31.6214Z" fill="#3A3B7B"/>
<path d="M413.646 35.6704C413.619 35.8661 413.511 36.0434 413.348 36.1633C413.184 36.2832 412.978 36.3358 412.774 36.3095C412.57 36.2833 412.385 36.1803 412.26 36.0233C412.135 35.8664 412.081 35.6682 412.108 35.4725C412.135 35.2767 412.243 35.0994 412.406 34.9795C412.57 34.8596 412.776 34.807 412.98 34.8333C413.184 34.8595 413.369 34.9624 413.494 35.1194C413.619 35.2764 413.673 35.4746 413.646 35.6704ZM413.161 28.455C413.267 28.2996 413.423 28.1813 413.604 28.1177C413.786 28.054 413.985 28.0485 414.17 28.1019C414.358 28.1472 414.525 28.2532 414.641 28.4021C414.758 28.5511 414.818 28.734 414.811 28.9203C414.786 29.219 414.74 29.5157 414.671 29.8082C414.488 30.7977 414.309 31.7872 414.114 32.766C414.025 33.1565 413.908 33.5309 413.78 33.9267C413.735 34.0504 413.661 34.1622 413.562 34.2529C413.501 34.3212 413.423 34.3736 413.336 34.4052C413.248 34.4368 413.153 34.4467 413.06 34.4339C412.968 34.4211 412.88 34.386 412.805 34.332C412.73 34.2779 412.67 34.2066 412.632 34.1246C412.566 33.9775 412.53 33.8194 412.526 33.6592C412.526 32.996 412.526 32.3274 412.571 31.6588C412.646 30.7047 412.795 29.7571 413.016 28.824C413.042 28.699 413.091 28.5794 413.161 28.471V28.455Z" fill="#3A3B7B"/>
<path fill-rule="evenodd" clip-rule="evenodd" d="M388.162 39.9684C388.097 40.1094 388.078 40.2666 388.111 40.4178C388.132 40.6172 388.179 40.8134 388.251 41.0017C388.34 41.2324 388.44 41.4605 388.563 41.7416C388.591 41.8063 388.621 41.8739 388.652 41.9449C388.818 42.3258 389.026 42.8126 389.304 43.517C389.383 43.7171 389.453 43.9189 389.523 44.122C389.552 44.2041 389.58 44.2865 389.609 44.369C389.714 44.6624 389.894 44.926 390.133 45.135C390.234 45.2498 390.369 45.3335 390.519 45.3753C390.673 45.418 390.837 45.4153 390.989 45.3676C391.141 45.3198 391.274 45.2292 391.372 45.1076C391.468 44.9884 391.525 44.8447 391.536 44.6946C391.598 44.4022 391.577 44.099 391.474 43.817C391.312 43.3489 391.127 42.8802 390.913 42.4217L390.912 42.4197C390.561 41.7023 390.204 40.9899 389.83 40.2773L389.827 40.2723C389.717 40.0866 389.575 39.9206 389.406 39.7818C389.297 39.6579 389.146 39.5743 388.979 39.5455C388.808 39.5161 388.633 39.5457 388.483 39.6292C388.341 39.7068 388.229 39.8256 388.162 39.9684Z" fill="#3A3B7B"/>
<path fill-rule="evenodd" clip-rule="evenodd" d="M393.529 38.2021C392.978 38.0652 392.403 38.0452 391.843 38.1437C391.409 38.1846 390.983 38.2806 390.687 38.4707C390.536 38.5675 390.415 38.6917 390.347 38.8496C390.279 39.0084 390.27 39.19 390.326 39.3923C390.428 39.7629 390.56 40.1232 390.692 40.4824L390.713 40.5406L390.714 40.5418C391.111 41.5853 391.512 42.6252 391.916 43.6615C391.963 43.8248 392.03 43.9824 392.115 44.131L392.116 44.1337C392.228 44.3183 392.372 44.4834 392.542 44.6221C392.626 44.6984 392.731 44.7511 392.845 44.7747C392.959 44.7985 393.079 44.7916 393.19 44.7547C393.301 44.7179 393.399 44.6525 393.474 44.5657C393.547 44.4803 393.596 44.3775 393.613 44.268C393.686 43.9706 393.663 43.6589 393.546 43.3746C393.51 43.279 393.481 43.1812 393.451 43.0783C393.441 43.044 393.431 43.0091 393.42 42.9735C394.346 42.6262 395.331 42.1592 395.677 41.0729C395.813 40.6975 395.824 40.2909 395.709 39.9091C395.595 39.5268 395.359 39.1879 395.036 38.9392C394.596 38.591 394.081 38.3394 393.529 38.2021ZM392.002 39.5346C392.02 39.5296 392.038 39.5249 392.057 39.5205C392.659 39.4296 393.276 39.5508 393.793 39.8616C394.021 40.0137 394.114 40.1827 394.13 40.3453C394.147 40.5127 394.083 40.6941 393.956 40.8684C393.715 41.1978 393.276 41.4615 392.879 41.5106C392.59 40.8712 392.296 40.2059 392.002 39.5346Z" fill="#3A3B7B"/>
<path d="M397.202 37.0316C397.858 36.7408 398.671 36.6906 399.307 36.895C399.467 36.9398 399.606 37.0367 399.7 37.169C399.793 37.3005 399.836 37.4591 399.822 37.6175C399.821 37.7204 399.794 37.8216 399.745 37.9129C399.695 38.0058 399.622 38.0857 399.532 38.1459C399.443 38.2061 399.34 38.2447 399.232 38.2586C399.123 38.2724 399.013 38.261 398.911 38.2254L398.903 38.2227L398.895 38.219C398.843 38.1926 398.787 38.1727 398.729 38.1598L398.726 38.159C398.278 38.045 397.856 38.2339 397.702 38.4661C397.629 38.5768 397.62 38.6886 397.681 38.7902C397.746 38.8991 397.907 39.0213 398.233 39.1083C398.322 39.1319 398.414 39.1547 398.507 39.1778C398.764 39.2418 399.032 39.3082 399.29 39.4003L399.291 39.4006C400.484 39.8363 400.929 40.7385 400.776 41.5872C400.626 42.4264 399.896 43.1902 398.798 43.3703C398.398 43.4554 397.982 43.4388 397.591 43.3223C397.199 43.2055 396.846 42.9923 396.566 42.7038L396.559 42.6963C396.471 42.5876 396.412 42.4599 396.385 42.3244C396.361 42.2022 396.374 42.0758 396.422 41.9603C396.47 41.8454 396.551 41.746 396.655 41.6735C396.766 41.5914 396.899 41.5421 397.038 41.5319C397.177 41.5216 397.315 41.5506 397.437 41.6151C397.559 41.6715 397.672 41.7435 397.774 41.8291L397.776 41.8307C397.955 41.9884 398.173 42.0295 398.381 41.9915C398.593 41.9528 398.792 41.8327 398.92 41.6732C399.047 41.5148 399.098 41.3266 399.037 41.144C398.977 40.9599 398.793 40.7538 398.391 40.5814C398.285 40.5385 398.176 40.5039 398.063 40.4703C398.032 40.4612 398.001 40.4521 397.97 40.443C397.886 40.4185 397.799 40.3933 397.715 40.3656C397.656 40.3465 397.598 40.3284 397.541 40.3105C397.384 40.2615 397.232 40.2138 397.085 40.1498C396.765 40.0453 396.489 39.8446 396.297 39.5775C396.105 39.3093 396.008 38.9886 396.021 38.6632C396.022 37.8703 396.542 37.324 397.202 37.0316Z" fill="#3A3B7B"/>
<path d="M405.52 36.9472C405.392 36.8876 405.252 36.8593 405.11 36.8648C404.969 36.8704 404.831 36.9097 404.709 36.9792C404.588 37.0482 404.487 37.1448 404.415 37.2605C404.348 37.3579 404.302 37.4668 404.279 37.5811C404.256 37.6954 404.257 37.8129 404.281 37.9269C404.304 38.0734 404.331 38.2159 404.357 38.3564C404.4 38.589 404.441 38.8163 404.469 39.0481L404.47 39.0539C404.533 39.4174 404.566 39.785 404.569 40.1534L404.569 40.1587C404.59 40.5565 404.449 40.9466 404.175 41.2462L404.171 41.2515C404.082 41.361 403.963 41.4446 403.827 41.4929C403.692 41.5412 403.544 41.5523 403.403 41.525C403.261 41.4976 403.129 41.433 403.024 41.3381C402.918 41.2433 402.841 41.1217 402.803 40.9877C402.722 40.7053 402.675 40.4147 402.663 40.1219L402.802 37.9995C402.804 37.9718 402.806 37.9433 402.809 37.9146C402.814 37.8502 402.819 37.7845 402.822 37.7233C402.825 37.6332 402.822 37.5405 402.8 37.4528C402.778 37.3631 402.735 37.2779 402.66 37.2052C402.585 37.1333 402.484 37.0803 402.357 37.0442C402.127 36.9804 401.933 36.9824 401.771 37.0483C401.609 37.1143 401.498 37.2367 401.42 37.378C401.342 37.5183 401.292 37.6842 401.254 37.8505C401.226 37.9739 401.203 38.1034 401.182 38.2266C401.174 38.2691 401.167 38.3108 401.16 38.3513L401.16 38.3525C401.045 39.0286 401.011 39.715 401.058 40.3985C401.067 40.7678 401.147 41.1324 401.295 41.4736C401.461 41.9138 401.763 42.2953 402.16 42.5676C402.558 42.8404 403.033 42.9907 403.522 42.9987C404.011 43.0066 404.491 42.8718 404.898 42.6121C405.305 42.3527 405.62 41.981 405.802 41.5461C406.057 40.9922 406.176 40.3897 406.151 39.7847C406.136 39.343 406.111 38.8979 406.087 38.455C406.074 38.2378 406.062 38.021 406.051 37.8056C406.046 37.5895 405.971 37.3803 405.838 37.2059C405.756 37.0957 405.647 37.0068 405.52 36.9472Z" fill="#3A3B7B"/>
<path d="M410.022 40.2752C410.009 40.2909 409.996 40.3072 409.982 40.3241C409.878 39.7512 409.782 39.1785 409.686 38.6049C409.652 38.3991 409.617 38.1924 409.582 37.9863L409.578 37.9633L409.566 37.9435C409.542 37.9061 409.539 37.8694 409.539 37.7912V37.7822L409.538 37.7733C409.512 37.6118 409.436 37.4616 409.319 37.3422C409.204 37.2231 409.053 37.1403 408.887 37.1043C408.722 37.0652 408.548 37.0738 408.388 37.1291C408.228 37.1843 408.089 37.2835 407.988 37.4143C407.903 37.5146 407.834 37.6259 407.782 37.7448C407.665 38.001 407.546 38.2578 407.427 38.5153L407.425 38.5198C407.128 39.1627 406.83 39.8098 406.54 40.4621L406.539 40.4642C406.361 40.8872 406.213 41.3328 406.067 41.7771C406.038 41.8658 406.008 41.9544 405.979 42.0428C405.926 42.183 405.903 42.332 405.911 42.4808C405.901 42.6141 405.934 42.747 406.006 42.8617C406.079 42.9787 406.189 43.0707 406.319 43.1249C406.457 43.1831 406.612 43.1954 406.758 43.16C406.905 43.1246 407.034 43.0437 407.127 42.9299C407.246 42.7898 407.348 42.6369 407.431 42.475C407.677 41.9924 407.912 41.504 408.146 41.0177C408.236 40.8296 408.324 40.6611 408.424 40.4777C408.431 40.5003 408.438 40.5224 408.445 40.5445C408.55 40.9874 408.727 41.4117 408.97 41.8017C409.016 41.8844 409.079 41.9566 409.157 42.0134C409.236 42.071 409.326 42.1113 409.423 42.1318C409.519 42.1523 409.619 42.1524 409.715 42.1321C409.812 42.1118 409.903 42.0714 409.981 42.0142L410.137 41.9024L411.344 40.9268L411.272 41.3633C411.174 41.9633 411.077 42.5584 410.974 43.1535C410.906 43.4173 410.906 43.6929 410.974 43.9566C411.003 44.105 411.078 44.2416 411.189 44.349C411.3 44.4574 411.443 44.5309 411.599 44.5603C411.755 44.5896 411.916 44.5734 412.062 44.5136C412.206 44.4547 412.328 44.3563 412.414 44.2308C412.613 43.9939 412.737 43.707 412.771 43.4043C412.822 42.9769 412.88 42.5437 412.938 42.1106C413.004 41.6114 413.071 41.1124 413.127 40.6229L413.128 40.6214C413.182 40.0856 413.208 39.5476 413.206 39.0093C413.218 38.8392 413.174 38.6697 413.08 38.5249C412.986 38.3795 412.846 38.2665 412.681 38.2019C412.509 38.1269 412.317 38.1069 412.132 38.1448C411.949 38.1824 411.783 38.2752 411.658 38.4095C411.436 38.6071 411.227 38.8186 411.033 39.0425L411.032 39.044C410.82 39.2969 410.61 39.5548 410.402 39.811C410.275 39.9668 410.148 40.1222 410.022 40.2752Z" fill="#3A3B7B"/>
</g>
<g clip-path="url(#clip4_211_2045)">
<path d="M542.081 26.503C542.081 26.8273 542.347 27.0903 542.675 27.0903H543.27C543.598 27.0903 543.864 26.8273 543.864 26.503C543.864 26.1786 543.598 25.9156 543.27 25.9156H542.675C542.347 25.9156 542.081 26.1786 542.081 26.503Z" fill="#212326"/>
<path d="M524.838 44.7095H527.727L526.886 43.8789C526.663 43.6587 526.36 43.5349 526.045 43.5349H524.838C520.241 43.5349 516.515 39.8537 516.515 35.3126C516.515 30.7715 520.241 27.0903 524.838 27.0903H534.351C538.948 27.0903 542.675 30.7715 542.675 35.3126C542.675 39.8537 538.948 43.5349 534.351 43.5349H530.793C530.32 43.5349 529.866 43.3493 529.531 43.0189L528.546 42.0458C527.989 41.4951 527.233 41.1857 526.444 41.1857H524.838C521.555 41.1857 518.893 38.5562 518.893 35.3126C518.893 32.069 521.555 29.4395 524.838 29.4395H534.351C537.635 29.4395 540.297 32.069 540.297 35.3126C540.297 38.5562 537.635 41.1857 534.351 41.1857H532.066C531.593 41.1857 531.14 41 530.805 40.6696L529.82 39.6965C529.262 39.1458 528.506 38.8364 527.718 38.8364H524.838C522.868 38.8364 521.271 37.2587 521.271 35.3126C521.271 33.3664 522.868 31.7887 524.838 31.7887H534.351C536.322 31.7887 537.919 33.3664 537.919 35.3126C537.919 37.235 536.36 38.7979 534.423 38.8357L534.423 38.8364H533.553C533.08 38.8364 532.626 38.6508 532.292 38.3204L531.306 37.3473C530.849 36.8954 530.258 36.606 529.625 36.5167L529.595 36.4872H524.838C524.182 36.4872 523.649 35.9613 523.649 35.3126C523.649 34.6639 524.182 34.138 524.838 34.138H534.351C535.008 34.138 535.54 34.6639 535.54 35.3126C535.54 35.9613 535.008 36.4872 534.351 36.4872H531.973L532.814 37.3178C533.037 37.5381 533.339 37.6618 533.655 37.6618H534.351C535.665 37.6618 536.73 36.61 536.73 35.3126C536.73 34.0152 535.665 32.9634 534.351 32.9634H524.838C523.525 32.9634 522.46 34.0152 522.46 35.3126C522.46 36.61 523.525 37.6618 524.838 37.6618H529.204C529.677 37.6618 530.131 37.8475 530.466 38.1779L531.451 39.151C532.008 39.7017 532.764 40.0111 533.553 40.0111H534.649V40.002C537.137 39.8505 539.108 37.8088 539.108 35.3126C539.108 32.7177 536.978 30.6141 534.351 30.6141H524.838C522.211 30.6141 520.082 32.7177 520.082 35.3126C520.082 37.9075 522.211 40.0111 524.838 40.0111H527.718C528.191 40.0111 528.645 40.1967 528.979 40.5271L529.964 41.5002C530.522 42.0509 531.278 42.3603 532.066 42.3603H534.351C538.292 42.3603 541.486 39.2049 541.486 35.3126C541.486 31.4202 538.292 28.2649 534.351 28.2649H524.838C520.898 28.2649 517.704 31.4202 517.704 35.3126C517.704 39.2049 520.898 42.3603 524.838 42.3603H526.444C526.917 42.3603 527.371 42.5459 527.706 42.8763L528.691 43.8494C529.248 44.4001 530.004 44.7095 530.793 44.7095H534.351C539.605 44.7095 543.864 40.5024 543.864 35.3126C543.864 30.1228 539.605 25.9156 534.351 25.9156L524.838 25.9157C519.585 25.9157 515.325 30.1228 515.325 35.3126C515.325 40.5024 519.585 44.7095 524.838 44.7095Z" fill="#212326"/>
</g>
<g clip-path="url(#clip5_211_2045)">
<path d="M647.818 28.0038C646.404 28.0038 645.048 28.5653 644.049 29.5648L640.787 32.8268C639.787 33.8263 639.226 35.1819 639.226 36.5955C639.226 39.539 641.612 41.9252 644.556 41.9252C645.969 41.9252 647.325 41.3636 648.324 40.3641L650.581 38.1078C650.581 38.1077 650.581 38.1078 650.581 38.1078L657.155 31.5336C657.632 31.0562 658.28 30.7881 658.955 30.7881C660.085 30.7881 661.043 31.5247 661.375 32.544L663.45 30.4692C662.504 28.9868 660.844 28.0038 658.955 28.0038C657.541 28.0038 656.185 28.5653 655.186 29.5648L646.355 38.3954C645.878 38.8727 645.231 39.1409 644.556 39.1409C643.15 39.1409 642.01 38.0013 642.01 36.5955C642.01 35.9204 642.278 35.2729 642.756 34.7956L646.018 31.5336C646.495 31.0562 647.142 30.7881 647.818 30.7881C648.948 30.7881 649.906 31.5247 650.238 32.5441L652.313 30.4693C651.366 28.9868 649.707 28.0038 647.818 28.0038Z" fill="#394149"/>
<path d="M657.493 38.3954C657.015 38.8727 656.368 39.1409 655.693 39.1409C654.563 39.1409 653.604 38.4045 653.272 37.3853L651.197 39.46C652.144 40.9423 653.804 41.9252 655.693 41.9252C657.106 41.9252 658.462 41.3636 659.461 40.3641L668.292 31.5336C668.769 31.0562 669.417 30.7881 670.092 30.7881C671.498 30.7881 672.637 31.9277 672.637 33.3335C672.637 34.0086 672.369 34.656 671.892 35.1334L668.63 38.3954C668.152 38.8727 667.505 39.1409 666.83 39.1409C665.7 39.1409 664.741 38.4043 664.409 37.385L662.334 39.4598C663.281 40.9422 664.941 41.9252 666.83 41.9252C668.243 41.9252 669.599 41.3636 670.598 40.3641L673.86 37.1022C674.86 36.1026 675.421 34.747 675.421 33.3335C675.421 30.39 673.035 28.0038 670.092 28.0038C668.678 28.0038 667.323 28.5653 666.323 29.5648L657.493 38.3954Z" fill="#394149"/>
</g>
<g clip-path="url(#clip6_211_2045)">
<path d="M804.887 31.9503C804.891 31.9212 804.891 31.8919 804.887 31.8629C804.891 31.8392 804.891 31.8151 804.887 31.7914L804.604 29.7501C804.563 29.5058 804.453 29.2776 804.288 29.0908L804.239 29.0352L804.15 28.9478L799.24 24.8016L799.378 24.9367C799.265 24.8045 799.124 24.6988 798.964 24.6273C798.804 24.5558 798.63 24.5204 798.454 24.5236H796.964C796.721 24.5189 796.484 24.5945 796.291 24.7381C796.088 24.5954 795.844 24.5202 795.594 24.5236H794.104C793.908 24.5205 793.715 24.5681 793.544 24.6616C793.374 24.755 793.231 24.891 793.131 25.0558C792.977 25.2912 792.92 25.5748 792.969 25.8501L793.156 27.1369C793.032 27.0682 792.892 27.0326 792.751 27.0336H785.532C785.273 27.0352 785.02 27.1096 784.803 27.2481C784.593 27.3769 784.424 27.5614 784.316 27.7802L783.757 27.3116C783.537 27.112 783.247 27.0038 782.947 27.0098H771.621C771.361 27.0144 771.107 27.0856 770.883 27.2163C770.578 27.3915 770.354 27.6764 770.26 28.0106L766.662 39.8058C766.595 40.0001 766.588 40.2097 766.643 40.4078C766.698 40.6058 766.812 40.7834 766.97 40.9178C767.011 40.9521 767.055 40.9839 767.1 41.0131C767.1 41.0131 767.027 40.9654 766.986 40.9257L771.896 45.0799C772.104 45.2673 772.375 45.3721 772.658 45.3737H784.073C784.334 45.3671 784.588 45.2931 784.811 45.1593C784.936 45.0919 785.049 45.0032 785.143 44.8971L785.183 44.8415L785.248 44.7621L785.297 44.6748L785.832 45.1275C786.036 45.3075 786.302 45.4066 786.577 45.4055H798.017C798.277 45.397 798.531 45.3232 798.754 45.1911C798.877 45.1196 798.989 45.0313 799.086 44.9289L799.127 44.8733L799.192 44.7939C799.226 44.7437 799.256 44.6905 799.281 44.635C799.307 44.5869 799.329 44.5364 799.346 44.4842L802.627 33.7136V33.6183C802.631 33.5813 802.631 33.544 802.627 33.5071V33.4356C802.631 33.4119 802.631 33.3878 802.627 33.3641C802.631 33.3139 802.631 33.2634 802.627 33.2132H803.68C803.772 33.2214 803.864 33.2214 803.956 33.2132H804.029C804.088 33.1958 804.145 33.1718 804.199 33.1417H804.28L804.425 33.0305L804.49 32.9828L804.604 32.8398V32.7922L804.685 32.6572C804.68 32.6309 804.68 32.604 804.685 32.5778C804.68 32.5649 804.68 32.5509 804.685 32.538C804.702 32.4915 804.716 32.4436 804.725 32.395C804.722 32.3794 804.722 32.363 804.725 32.3474C804.721 32.3237 804.721 32.2996 804.725 32.2759C804.725 32.2759 804.887 31.9661 804.887 31.9503Z" fill="black"/>
<path d="M783.279 27.9153C783.322 27.9534 783.352 28.0036 783.365 28.059C783.379 28.1143 783.374 28.1723 783.352 28.2251L779.763 40.0123C779.718 40.141 779.626 40.2486 779.504 40.3142C779.405 40.3791 779.29 40.4174 779.172 40.4254H767.764C767.667 40.4208 767.574 40.3812 767.505 40.3142C767.464 40.2766 767.434 40.2279 767.421 40.1742C767.408 40.1204 767.412 40.0641 767.432 40.0123L771.029 28.2251C771.071 28.0948 771.16 27.9843 771.28 27.9153C771.381 27.8551 771.495 27.8196 771.613 27.812H783.02C783.117 27.8129 783.209 27.8499 783.279 27.9153ZM777.324 37.6374L779.471 30.6H773.46L771.321 37.6374H777.324ZM794.168 28.0344C794.207 28.0788 794.256 28.1139 794.311 28.1373C794.365 28.1607 794.425 28.1717 794.484 28.1695H795.967C796.024 28.17 796.079 28.1564 796.129 28.13C796.178 28.1036 796.22 28.0652 796.251 28.0185C796.277 27.9821 796.296 27.9408 796.305 27.8971C796.315 27.8534 796.316 27.8083 796.307 27.7644L796.016 25.6675C795.988 25.5704 795.938 25.4808 795.87 25.4053C795.831 25.361 795.782 25.3258 795.728 25.3025C795.673 25.2791 795.613 25.2681 795.554 25.2703H794.071C794.015 25.2698 793.959 25.2833 793.909 25.3097C793.86 25.3362 793.818 25.3745 793.788 25.4212C793.731 25.5324 793.707 25.6039 793.731 25.6675L794.031 27.7644C794.046 27.8665 794.094 27.9611 794.168 28.0344ZM798.876 25.6516C798.848 25.5545 798.798 25.4649 798.73 25.3895C798.693 25.3453 798.645 25.3101 798.592 25.2867C798.539 25.2633 798.48 25.2522 798.422 25.2544H796.931C796.876 25.2529 796.821 25.2661 796.772 25.2926C796.724 25.3192 796.683 25.3582 796.656 25.4053C796.602 25.4758 796.578 25.5643 796.591 25.6516L796.891 27.7485C796.909 27.8495 796.957 27.9432 797.028 28.0185C797.068 28.062 797.117 28.0966 797.171 28.1199C797.226 28.1432 797.285 28.1547 797.344 28.1536H798.835C798.891 28.1543 798.945 28.1407 798.993 28.1142C799.042 28.0878 799.082 28.0493 799.111 28.0027C799.139 27.9671 799.158 27.9258 799.168 27.8819C799.178 27.8379 799.178 27.7923 799.167 27.7485L798.876 25.6516ZM792.864 28.8287L792.718 27.7961H785.532C785.419 27.8022 785.31 27.8379 785.216 27.8994C785.156 27.9313 785.104 27.9755 785.064 28.029C785.023 28.0825 784.995 28.144 784.981 28.2092L784.381 30.179C784.357 30.2282 784.349 30.2835 784.358 30.3373C784.367 30.3912 784.392 30.4412 784.43 30.4809C784.498 30.5438 784.587 30.5805 784.681 30.5841H793.415L791.268 37.6215H782.558C782.446 37.624 782.337 37.657 782.242 37.7168C782.128 37.7882 782.044 37.8985 782.007 38.0266L781.4 39.9965C781.38 40.047 781.375 40.1019 781.385 40.1552C781.395 40.2085 781.42 40.2579 781.456 40.2983C781.523 40.3654 781.612 40.4052 781.708 40.4094H793.148C793.266 40.3995 793.38 40.3613 793.48 40.2983C793.599 40.2324 793.689 40.1246 793.731 39.9965L797.02 29.2259H793.318C793.259 29.227 793.201 29.2163 793.146 29.1945C793.092 29.1726 793.043 29.14 793.002 29.0988C792.935 29.0267 792.887 28.9393 792.864 28.8446V28.8287Z" fill="white"/>
</g>
<defs>
<clipPath id="clip0_211_2045">
<rect width="27.8428" height="27.8428" fill="white" transform="translate(3.01831 21.1498)"/>
</clipPath>
<clipPath id="clip1_211_2045">
<rect width="27.8428" height="19.4899" fill="white" transform="translate(131.095 25.2195)"/>
</clipPath>
<clipPath id="clip2_211_2045">
<rect width="38.2838" height="20.8821" fill="white" transform="translate(254.299 24.5234)"/>
</clipPath>
<clipPath id="clip3_211_2045">
<rect width="32.7153" height="20.186" fill="white" transform="translate(385.16 25.2195)"/>
</clipPath>
<clipPath id="clip4_211_2045">
<rect width="28.5388" height="18.7939" fill="white" transform="translate(515.325 25.9156)"/>
</clipPath>
<clipPath id="clip5_211_2045">
<rect width="36.1956" height="13.9214" fill="white" transform="translate(639.226 28.0038)"/>
</clipPath>
<clipPath id="clip6_211_2045">
<rect width="38.2838" height="20.8821" fill="white" transform="translate(766.607 24.5234)"/>
</clipPath>
</defs>
</svg>
