<svg width="34" height="35" viewBox="0 0 34 35" fill="none" xmlns="http://www.w3.org/2000/svg">
<rect x="0.446289" y="0.765137" width="33.4113" height="33.4113" rx="5.56856" fill="#E8F5E9"/>
<g clip-path="url(#clip0_211_2511)">
<path fill-rule="evenodd" clip-rule="evenodd" d="M7.65308 0.900391C11.4973 0.900391 14.6138 4.0168 14.6138 7.86109V0.900391H21.5745C25.4187 0.900391 28.5352 4.0168 28.5352 7.86109C28.5352 11.7053 25.4187 14.8218 21.5745 14.8218C25.4187 14.8218 28.5352 17.9382 28.5352 21.7825C28.5352 23.6913 27.7668 25.4207 26.5225 26.6782L26.4964 26.7045L26.4733 26.7274C25.2155 27.9735 23.4849 28.7432 21.5745 28.7432C19.6771 28.7432 17.9569 27.984 16.7013 26.7528C16.685 26.7367 16.6687 26.7206 16.6525 26.7045C16.6372 26.6892 16.6221 26.6739 16.607 26.6585C15.3742 25.4027 14.6138 23.6814 14.6138 21.7825C14.6138 25.6267 11.4973 28.7432 7.65308 28.7432C3.80879 28.7432 0.692383 25.6267 0.692383 21.7825V14.8218H7.65308C3.80879 14.8218 0.692383 11.7053 0.692383 7.86109C0.692383 4.0168 3.80879 0.900391 7.65308 0.900391ZM13.2216 7.86109C13.2216 10.9365 10.7285 13.4296 7.65308 13.4296V2.29253C10.7285 2.29253 13.2216 4.78566 13.2216 7.86109ZM27.143 21.7825C27.143 18.707 24.6499 16.2139 21.5745 16.2139C18.499 16.2139 16.0059 18.707 16.0059 21.7825H27.143ZM2.08452 16.2139V21.7825C2.08452 24.8579 4.57765 27.351 7.65308 27.351C10.7285 27.351 13.2216 24.8579 13.2216 21.7825V16.2139H2.08452ZM16.0059 13.4296V2.29253H21.5745C24.6499 2.29253 27.143 4.78566 27.143 7.86109C27.143 10.9365 24.6499 13.4296 21.5745 13.4296H16.0059Z" fill="#5417D7"/>
</g>
<defs>
<clipPath id="clip0_211_2511">
<rect width="27.8428" height="27.8428" fill="white" transform="translate(0.692383 0.900391)"/>
</clipPath>
</defs>
</svg>
