<svg width="39" height="35" viewBox="0 0 39 35" fill="none" xmlns="http://www.w3.org/2000/svg">
<rect x="0.34668" y="0.765137" width="33.4113" height="33.4113" rx="5.56856" fill="#F5F7FA"/>
<g clip-path="url(#clip0_211_2517)">
<path d="M38.6275 14.3502C38.6315 14.3211 38.6315 14.2918 38.6275 14.2628C38.6313 14.2391 38.6313 14.215 38.6275 14.1913L38.3439 12.15C38.303 11.9057 38.1936 11.6775 38.028 11.4907L37.9793 11.4351L37.8902 11.3477L32.9804 7.20154L33.1182 7.33658C33.0055 7.20441 32.8641 7.09869 32.7042 7.02721C32.5444 6.95573 32.3702 6.9203 32.1946 6.92355H30.7038C30.4614 6.91884 30.2245 6.9944 30.0313 7.13801C29.8285 6.99526 29.5842 6.92009 29.3346 6.92355H27.8438C27.6483 6.92044 27.4554 6.96801 27.2847 7.06146C27.1139 7.15491 26.9714 7.29092 26.8716 7.45572C26.7176 7.6911 26.6597 7.97469 26.7095 8.25001L26.8959 9.53675C26.7724 9.46815 26.6327 9.43255 26.4908 9.43351H19.2719C19.0129 9.4351 18.7599 9.50952 18.5427 9.64796C18.3327 9.77681 18.1642 9.96131 18.0566 10.1801L17.4976 9.7115C17.2775 9.51191 16.9871 9.40373 16.6874 9.40968H5.36084C5.10092 9.41432 4.84677 9.4855 4.62358 9.61619C4.31824 9.7914 4.09446 10.0763 3.99972 10.4105L0.402446 22.2057C0.335233 22.4 0.328621 22.6096 0.383457 22.8077C0.438294 23.0057 0.552096 23.1833 0.710324 23.3177C0.751554 23.352 0.794845 23.3838 0.839959 23.413C0.839959 23.413 0.76703 23.3653 0.72652 23.3256L5.63633 27.4798C5.84402 27.6672 6.11557 27.772 6.39786 27.7736H17.8136C18.0743 27.767 18.3286 27.693 18.5508 27.5592C18.6765 27.4918 18.789 27.4031 18.883 27.2971L18.9235 27.2415L18.9883 27.162L19.0369 27.0747L19.5717 27.5274C19.7764 27.7074 20.0421 27.8065 20.3171 27.8054H31.757C32.0175 27.7969 32.2713 27.7231 32.4943 27.591C32.6172 27.5195 32.729 27.4312 32.8265 27.3288L32.867 27.2732L32.9318 27.1938C32.9663 27.1436 32.9961 27.0904 33.0209 27.0349C33.0474 26.9868 33.0691 26.9363 33.0857 26.8841L36.367 16.1135V16.0182C36.3711 15.9812 36.3711 15.9439 36.367 15.907V15.8355C36.371 15.8118 36.371 15.7877 36.367 15.764C36.3707 15.7138 36.3707 15.6633 36.367 15.6131H37.4203C37.5119 15.6213 37.6041 15.6213 37.6957 15.6131H37.7687C37.828 15.5957 37.8851 15.5717 37.9388 15.5416H38.0199L38.1657 15.4304L38.2305 15.3827L38.3439 15.2397V15.1921L38.4249 15.0571C38.4204 15.0308 38.4204 15.0039 38.4249 14.9777C38.4206 14.9648 38.4206 14.9508 38.4249 14.9379C38.4422 14.8914 38.4557 14.8435 38.4655 14.7949C38.4617 14.7793 38.4617 14.7629 38.4655 14.7473C38.4615 14.7236 38.4615 14.6995 38.4655 14.6758C38.4655 14.6758 38.6275 14.366 38.6275 14.3502Z" fill="black"/>
<path d="M17.0193 10.3154C17.0623 10.3536 17.0924 10.4037 17.1054 10.4591C17.1185 10.5145 17.1139 10.5725 17.0923 10.6252L13.5031 22.4125C13.4579 22.5412 13.3655 22.6488 13.2439 22.7143C13.1449 22.7792 13.0304 22.8175 12.9116 22.8255H1.50411C1.40668 22.8209 1.31439 22.7814 1.24484 22.7143C1.20347 22.6768 1.17443 22.628 1.16144 22.5743C1.14845 22.5205 1.15211 22.4642 1.17193 22.4125L4.7692 10.6252C4.81064 10.4949 4.9002 10.3844 5.02035 10.3154C5.12094 10.2552 5.23492 10.2198 5.35253 10.2122H16.7601C16.8567 10.2131 16.9494 10.25 17.0193 10.3154ZM11.0644 20.0376L13.2114 13.0001H7.1998L5.06085 20.0376H11.0644ZM27.9084 10.4346C27.9473 10.4789 27.9959 10.5141 28.0507 10.5375C28.1054 10.5608 28.1647 10.5718 28.2244 10.5696H29.707C29.7635 10.5702 29.8191 10.5566 29.8688 10.5302C29.9184 10.5038 29.9603 10.4654 29.9906 10.4187C30.0169 10.3822 30.0355 10.3409 30.0452 10.2972C30.055 10.2536 30.0557 10.2085 30.0473 10.1645L29.7556 8.0676C29.7279 7.97055 29.678 7.88094 29.6098 7.80548C29.5708 7.76114 29.5222 7.72597 29.4675 7.7026C29.4128 7.67922 29.3534 7.66824 29.2938 7.67045H27.8112C27.7547 7.66992 27.699 7.68349 27.6494 7.7099C27.5998 7.7363 27.5579 7.77467 27.5276 7.82137C27.4709 7.93257 27.4466 8.00406 27.4709 8.0676L27.7707 10.1645C27.786 10.2666 27.8343 10.3612 27.9084 10.4346ZM32.6156 8.05171C32.5878 7.95466 32.5379 7.86504 32.4698 7.7896C32.4325 7.74542 32.3853 7.71026 32.3319 7.68684C32.2785 7.66343 32.2203 7.65238 32.1619 7.65457H30.6711C30.6156 7.65302 30.5607 7.66623 30.5122 7.69279C30.4637 7.71936 30.4235 7.75831 30.3957 7.80548C30.3418 7.87595 30.3184 7.96446 30.3309 8.05171L30.6306 10.1486C30.6494 10.2497 30.6972 10.3433 30.7684 10.4187C30.808 10.4622 30.8568 10.4967 30.9113 10.52C30.9659 10.5434 31.0248 10.5548 31.0843 10.5537H32.5751C32.6305 10.5544 32.6851 10.5409 32.7334 10.5144C32.7818 10.4879 32.8222 10.4494 32.8506 10.4028C32.8788 10.3673 32.8985 10.326 32.9083 10.282C32.9181 10.238 32.9178 10.1925 32.9073 10.1486L32.6156 8.05171ZM26.604 11.2289L26.4581 10.1963H19.2717C19.1589 10.2024 19.0497 10.2381 18.9557 10.2996C18.896 10.3315 18.8441 10.3757 18.8035 10.4292C18.763 10.4826 18.7348 10.5441 18.7208 10.6093L18.1212 12.5791C18.0973 12.6284 18.0891 12.6836 18.0978 12.7375C18.1065 12.7914 18.1316 12.8414 18.1698 12.881C18.2381 12.944 18.3273 12.9807 18.421 12.9843H27.1549L25.0079 20.0217H16.2983C16.186 20.0242 16.0766 20.0572 15.9823 20.117C15.8677 20.1883 15.784 20.2986 15.7474 20.4267L15.1397 22.3966C15.1199 22.4471 15.1147 22.5021 15.1247 22.5553C15.1347 22.6086 15.1595 22.6581 15.1964 22.6984C15.2626 22.7656 15.3524 22.8054 15.4476 22.8096H26.8875C27.0058 22.7996 27.1199 22.7615 27.2197 22.6984C27.3393 22.6325 27.4291 22.5247 27.4709 22.3966L30.7602 11.626H27.0577C26.9989 11.6272 26.9406 11.6165 26.8862 11.5946C26.8319 11.5727 26.7827 11.5402 26.7417 11.4989C26.6747 11.4269 26.6273 11.3395 26.604 11.2448V11.2289Z" fill="white"/>
</g>
<defs>
<clipPath id="clip0_211_2517">
<rect width="38.2838" height="20.8821" fill="white" transform="translate(0.34668 6.92334)"/>
</clipPath>
</defs>
</svg>
