<svg width="34" height="35" viewBox="0 0 34 35" fill="none" xmlns="http://www.w3.org/2000/svg">
<rect x="0.24707" y="0.765137" width="33.4113" height="33.4113" rx="5.56856" fill="#F5F7FA"/>
<g clip-path="url(#clip0_211_2537)">
<path d="M27.0024 8.90274C27.0024 9.2271 27.2686 9.49005 27.597 9.49005H28.1916C28.5199 9.49005 28.7861 9.2271 28.7861 8.90274C28.7861 8.57838 28.5199 8.31543 28.1916 8.31543H27.597C27.2686 8.31543 27.0024 8.57838 27.0024 8.90274Z" fill="#212326"/>
<path d="M9.76002 27.1093H12.6483L11.8074 26.2787C11.5845 26.0584 11.282 25.9347 10.9666 25.9347H9.76002C5.16289 25.9347 1.43619 22.2534 1.43619 17.7124C1.43619 13.1713 5.16289 9.49005 9.76002 9.49005H19.273C23.8701 9.49005 27.5968 13.1713 27.5968 17.7124C27.5968 22.2534 23.8701 25.9347 19.273 25.9347H15.7144C15.2413 25.9347 14.7876 25.7491 14.4531 25.4187L13.468 24.4456C12.9105 23.8948 12.1543 23.5855 11.3659 23.5855H9.76002C6.47634 23.5855 3.81443 20.956 3.81443 17.7124C3.81443 14.4687 6.47634 11.8393 9.76002 11.8393H19.273C22.5567 11.8393 25.2186 14.4687 25.2186 17.7124C25.2186 20.956 22.5567 23.5855 19.273 23.5855H16.988C16.5149 23.5855 16.0613 23.3998 15.7267 23.0694L14.7416 22.0963C14.1841 21.5456 13.428 21.2362 12.6395 21.2362H9.76002C7.78984 21.2362 6.19266 19.6585 6.19266 17.7124C6.19266 15.7662 7.78984 14.1885 9.76002 14.1885H19.273C21.2431 14.1885 22.8403 15.7662 22.8403 17.7124C22.8403 19.6348 21.2819 21.1977 19.3449 21.2355L19.3445 21.2362H18.4744C18.0013 21.2362 17.5477 21.0506 17.2131 20.7202L16.228 19.7471C15.7706 19.2952 15.1794 19.0058 14.5464 18.9165L14.5165 18.887H9.76002C9.10329 18.887 8.5709 18.3611 8.5709 17.7124C8.5709 17.0636 9.10329 16.5378 9.76002 16.5378H19.273C19.9297 16.5378 20.4621 17.0636 20.4621 17.7124C20.4621 18.3611 19.9297 18.887 19.273 18.887H16.8947L17.7356 19.7176C17.9586 19.9378 18.261 20.0616 18.5764 20.0616H19.273C20.5864 20.0616 21.6512 19.0098 21.6512 17.7124C21.6512 16.4149 20.5864 15.3631 19.273 15.3631H9.76002C8.44657 15.3631 7.38178 16.4149 7.38178 17.7124C7.38178 19.0098 8.44657 20.0616 9.76002 20.0616H14.1259C14.599 20.0616 15.0527 20.2472 15.3872 20.5776L16.3723 21.5507C16.9298 22.1014 17.686 22.4108 18.4744 22.4108H19.5702V22.4018C22.0587 22.2502 24.0294 20.2086 24.0294 17.7124C24.0294 15.1175 21.8999 13.0139 19.273 13.0139H9.76002C7.13311 13.0139 5.00355 15.1175 5.00355 17.7124C5.00355 20.3073 7.13311 22.4108 9.76002 22.4108H12.6395C13.1126 22.4108 13.5663 22.5965 13.9008 22.9269L14.8859 23.9C15.4434 24.4507 16.1996 24.7601 16.988 24.7601H19.273C23.2134 24.7601 26.4077 21.6047 26.4077 17.7124C26.4077 13.82 23.2134 10.6647 19.273 10.6647H9.76002C5.81961 10.6647 2.62531 13.82 2.62531 17.7124C2.62531 21.6047 5.81961 24.7601 9.76002 24.7601H11.3659C11.839 24.7601 12.2927 24.9457 12.6272 25.2761L13.6123 26.2492C14.1698 26.7999 14.9259 27.1093 15.7144 27.1093H19.273C24.5268 27.1093 28.7859 22.9022 28.7859 17.7124C28.7859 12.5226 24.5268 8.31543 19.273 8.31543L9.76002 8.31543C4.50616 8.31543 0.24707 12.5226 0.24707 17.7124C0.247071 22.9022 4.50617 27.1093 9.76002 27.1093Z" fill="#212326"/>
</g>
<defs>
<clipPath id="clip0_211_2537">
<rect width="28.5388" height="18.7939" fill="white" transform="translate(0.24707 8.31543)"/>
</clipPath>
</defs>
</svg>
