<svg width="34" height="35" viewBox="0 0 34 35" fill="none" xmlns="http://www.w3.org/2000/svg">
<rect x="0.396484" y="0.765137" width="33.4113" height="33.4113" rx="5.56856" fill="#F5F7FA"/>
<g clip-path="url(#clip0_211_2514)">
<path fill-rule="evenodd" clip-rule="evenodd" d="M7.42541 10.4832L0.474609 17.3641C1.8649 18.7404 3.45308 19.9004 5.18466 20.8078C5.66328 22.0647 6.4135 23.2433 7.4353 24.2549C11.2796 28.0605 17.5124 28.0605 21.3567 24.2549C22.3785 23.2433 23.1287 22.0647 23.6074 20.8078C25.3389 19.9004 26.9271 18.7404 28.3174 17.3641L21.3722 10.4888C21.3671 10.4837 21.3619 10.4785 21.3567 10.4734C17.5124 6.66773 11.2796 6.66773 7.4353 10.4734C7.43201 10.4766 7.42871 10.4799 7.42541 10.4832ZM20.6916 22.0493C18.666 22.726 16.5397 23.0726 14.396 23.0726C12.2523 23.0726 10.126 22.726 8.10047 22.0493C8.31994 22.3375 8.56224 22.6141 8.82744 22.8767C11.9029 25.9212 16.8891 25.9212 19.9646 22.8767C20.2298 22.6141 20.4721 22.3375 20.6916 22.0493ZM8.97021 11.7137C9.49247 12.0553 10.0478 12.3476 10.6289 12.5858C11.8232 13.0756 13.1033 13.3276 14.396 13.3276C15.6887 13.3276 16.9688 13.0756 18.1631 12.5858C18.7442 12.3476 19.2995 12.0553 19.8219 11.7137C16.7848 8.85294 12.0072 8.85295 8.97021 11.7137Z" fill="#3B4158"/>
</g>
<defs>
<clipPath id="clip0_211_2514">
<rect width="27.8428" height="19.4899" fill="white" transform="translate(0.474609 7.61914)"/>
</clipPath>
</defs>
</svg>
