<svg width="37" height="35" viewBox="0 0 37 35" fill="none" xmlns="http://www.w3.org/2000/svg">
<rect x="0.197266" y="0.765137" width="33.4113" height="33.4113" rx="5.56856" fill="#F5F7FA"/>
<g clip-path="url(#clip0_211_2541)">
<path d="M8.78894 10.4033C7.37541 10.4033 6.01979 10.9648 5.02028 11.9644L1.7583 15.2263C0.758785 16.2258 0.197266 17.5815 0.197266 18.995C0.197266 21.9385 2.58346 24.3247 5.52698 24.3247C6.94051 24.3247 8.29613 23.7632 9.29564 22.7637L11.552 20.5073C11.552 20.5073 11.552 20.5074 11.552 20.5073L18.1262 13.9331C18.6035 13.4558 19.251 13.1876 19.9261 13.1876C21.0563 13.1876 22.0145 13.9242 22.3467 14.9436L24.4215 12.8688C23.475 11.3863 21.8153 10.4033 19.9261 10.4033C18.5125 10.4033 17.1569 10.9648 16.1574 11.9644L7.32687 20.7949C6.84951 21.2723 6.20207 21.5404 5.52698 21.5404C4.12117 21.5404 2.98154 20.4008 2.98154 18.995C2.98154 18.3199 3.24972 17.6725 3.72708 17.1951L6.98905 13.9331C7.46641 13.4558 8.11385 13.1876 8.78894 13.1876C9.91922 13.1876 10.8774 13.9243 11.2096 14.9436L13.2844 12.8688C12.3379 11.3864 10.6783 10.4033 8.78894 10.4033Z" fill="#394149"/>
<path d="M18.4641 20.7949C17.9867 21.2723 17.3393 21.5404 16.6642 21.5404C15.5341 21.5404 14.576 20.804 14.2437 19.7848L12.1689 21.8596C13.1155 23.3418 14.7751 24.3247 16.6642 24.3247C18.0777 24.3247 19.4334 23.7632 20.4329 22.7637L29.2634 13.9331C29.7408 13.4558 30.3882 13.1876 31.0633 13.1876C32.4691 13.1876 33.6087 14.3272 33.6087 15.733C33.6087 16.4081 33.3405 17.0556 32.8632 17.5329L29.6012 20.7949C29.1238 21.2723 28.4764 21.5404 27.8013 21.5404C26.6711 21.5404 25.713 20.8039 25.3807 19.7846L23.306 21.8594C24.2525 23.3418 25.9121 24.3247 27.8013 24.3247C29.2148 24.3247 30.5705 23.7632 31.57 22.7637L34.8319 19.5017C35.8315 18.5022 36.393 17.1466 36.393 15.733C36.393 12.7895 34.0068 10.4033 31.0633 10.4033C29.6498 10.4033 28.2941 10.9648 27.2946 11.9644L18.4641 20.7949Z" fill="#394149"/>
</g>
<defs>
<clipPath id="clip0_211_2541">
<rect width="36.1956" height="13.9214" fill="white" transform="translate(0.197266 10.4033)"/>
</clipPath>
</defs>
</svg>
