<svg width="34" height="35" viewBox="0 0 34 35" fill="none" xmlns="http://www.w3.org/2000/svg">
<rect x="0.296875" y="0.765137" width="33.4113" height="33.4113" rx="5.56856" fill="#F5F7FA"/>
<g clip-path="url(#clip0_211_2521)">
<path d="M30.9214 10.1002C30.9214 10.1238 30.9214 10.1532 30.9153 10.1708C30.8846 10.4003 30.8846 10.6298 30.903 10.8652C30.9153 10.924 30.9275 10.9828 30.9766 11.0299C31.0563 11.1182 31.1789 11.1005 31.2279 10.9946C31.2525 10.9417 31.2525 10.8887 31.2402 10.8357C31.1789 10.6121 31.1666 10.3768 31.1605 10.1473C31.1605 10.1355 31.1605 10.1179 31.1605 10.1002C31.2279 10.0943 31.2892 10.0884 31.3444 10.0884C31.3873 10.0826 31.4241 10.0767 31.4548 10.059C31.5467 10.012 31.5467 9.91192 31.4486 9.86485C31.4118 9.84719 31.3628 9.84131 31.3199 9.84131C31.1666 9.84719 31.0134 9.84719 30.8601 9.84719C30.8049 9.84719 30.7497 9.85308 30.6945 9.85896C30.6639 9.86485 30.6271 9.86485 30.6026 9.8825C30.5596 9.90015 30.5352 9.92957 30.5352 9.97076C30.5413 10.012 30.5596 10.0355 30.6026 10.0531C30.6271 10.0708 30.6577 10.0767 30.6884 10.0767C30.762 10.0826 30.8417 10.0943 30.9214 10.1002ZM32.6073 10.3709C32.6073 10.3768 32.6135 10.3827 32.6135 10.3827C32.638 10.5415 32.6625 10.6945 32.6809 10.8475C32.6871 10.9005 32.6932 10.9475 32.73 10.9887C32.8097 11.0888 32.9323 11.077 32.9874 10.9711C33.012 10.9181 33.0181 10.8652 33.0059 10.8063C32.9691 10.6298 32.9507 10.4533 32.9139 10.2826C32.8893 10.1767 32.8587 10.0767 32.8281 9.98253C32.8097 9.92369 32.7668 9.8825 32.6932 9.87662C32.6196 9.86485 32.5644 9.90015 32.5338 9.95311C32.497 10.0002 32.4663 10.0473 32.4418 10.1002C32.3989 10.1944 32.3621 10.2885 32.3131 10.3768C32.3069 10.4003 32.3008 10.418 32.2886 10.4356C32.2824 10.4238 32.2763 10.418 32.2763 10.418C32.1966 10.2709 32.123 10.1238 32.0433 9.98253C32.031 9.97076 32.0249 9.95899 32.0188 9.94723C31.982 9.89427 31.9391 9.86485 31.8717 9.86485C31.8103 9.87073 31.7613 9.90604 31.7307 9.95899C31.7184 9.98253 31.7184 10.0002 31.7123 10.0237C31.6877 10.212 31.6571 10.4003 31.6326 10.5886C31.6203 10.6945 31.6142 10.8004 31.6142 10.9064C31.608 10.9299 31.6142 10.9593 31.6264 10.9828C31.6387 11.0299 31.6755 11.0593 31.7245 11.0652C31.7858 11.0711 31.8287 11.0535 31.8471 11.0064C31.8655 10.9711 31.8717 10.9417 31.8778 10.9122C31.9023 10.8063 31.9207 10.7063 31.9391 10.6063C31.9514 10.5474 31.9575 10.5003 31.9759 10.4356C31.9881 10.4592 32.0004 10.4768 32.0127 10.4945C32.0678 10.5651 32.123 10.6357 32.1905 10.6945C32.2579 10.7416 32.3131 10.7357 32.3682 10.6827C32.3805 10.671 32.3867 10.6651 32.3989 10.6533C32.4541 10.571 32.5215 10.4886 32.5767 10.4062C32.589 10.3944 32.5951 10.3827 32.6073 10.3709Z" fill="#3A3B7B"/>
<path d="M18.4812 10.2159C18.4386 10.3277 18.4304 10.4083 18.4501 10.4752C18.4718 10.5663 18.5282 10.5961 18.6048 10.5729C19.3249 10.402 20.904 10.8871 21.4886 11.0223C21.6265 11.0507 21.7386 10.8799 21.6446 10.7268C21.5073 10.5784 19.9289 9.94342 19.3266 9.90879C19.0906 9.89599 18.6685 9.83789 18.4812 10.2159Z" fill="#3A3B7B"/>
<path d="M24.6525 8.16049C24.7292 8.20301 24.7721 8.24356 24.7933 8.28888C24.8249 8.34832 24.8082 8.38944 24.7552 8.41042C24.2792 8.6334 23.6458 9.59334 23.3901 9.92441C23.3281 10.0006 23.1852 9.95631 23.1636 9.83107C23.168 9.68946 23.7295 8.64771 24.0429 8.36397C24.166 8.25319 24.3695 8.03583 24.6525 8.16049Z" fill="#3A3B7B"/>
<path d="M20.8617 7.68786C20.9539 7.62117 21.0497 7.5978 21.0986 7.64114C21.8168 8.23064 22.1977 9.16416 22.4335 10.0188C22.4424 10.0387 22.443 10.0673 22.4359 10.0971C22.4329 10.1226 22.4135 10.1495 22.3827 10.1703C22.3498 10.1933 22.3215 10.2003 22.3082 10.1805C21.9934 9.76956 20.1956 8.17078 20.8617 7.68786Z" fill="#3A3B7B"/>
<path d="M5.6533 17.9085C5.82543 17.7855 6.01256 17.6831 6.21058 17.6036C6.41776 17.5468 6.63859 17.5562 6.83969 17.6305C7.04075 17.7048 7.2112 17.8399 7.32514 18.0155C7.42707 18.1905 7.46694 18.3927 7.4388 18.5914C7.41067 18.7901 7.31603 18.9747 7.16909 19.1173C7.05519 19.2329 6.92588 19.3336 6.78459 19.4168C6.15487 19.8073 5.51954 20.1763 4.88424 20.5668C4.75425 20.6645 4.61634 20.7522 4.47185 20.8289C4.25206 20.9341 4.00088 20.9623 3.76174 20.9085C3.5226 20.8549 3.31054 20.7226 3.16223 20.5347C3.05136 20.4017 2.95779 20.2562 2.88358 20.1015C2.28171 18.8873 1.65756 17.6785 1.07798 16.4429C0.810481 15.9081 0.593141 15.293 0.381373 14.6993C0.289752 14.5268 0.271861 14.3268 0.331508 14.1418C0.391156 13.9568 0.523636 13.8015 0.700769 13.7088C0.877903 13.6162 1.08571 13.5935 1.28 13.6456C1.47429 13.6977 1.63974 13.8205 1.74115 13.9879C2.05285 14.3855 2.32878 14.8078 2.56593 15.2502C3.1678 16.3199 3.74181 17.3897 4.32138 18.4273C4.35513 18.4847 4.39234 18.54 4.43284 18.5931C4.86907 18.4171 5.27936 18.1869 5.6533 17.9085Z" fill="#3A3B7B"/>
<path d="M11.8763 17.5353C10.4998 19.081 8.19266 18.6906 7.03351 16.7009C6.20872 15.2888 6.06383 12.9568 7.85831 11.4859C8.2415 11.1779 8.6997 10.9682 9.1902 10.8761C9.7916 10.7934 10.4049 10.8952 10.9423 11.1671C11.4798 11.4389 11.914 11.8669 12.1829 12.3898C13.1637 14.1014 13.0243 16.2837 11.8763 17.5353ZM11.319 13.9302C11.1728 13.5096 10.8794 13.1506 10.4887 12.914C10.2676 12.7627 9.99887 12.6892 9.7279 12.7057C9.45687 12.7223 9.20011 12.828 9.00073 13.0049C8.20383 13.6842 8.03661 15.2942 8.61619 16.2516C8.69008 16.4077 8.79855 16.5464 8.93413 16.6581C9.06971 16.7698 9.22908 16.8517 9.40107 16.898C9.57306 16.9444 9.75351 16.9541 9.92984 16.9265C10.1062 16.8989 10.2741 16.8347 10.4218 16.7383C10.8538 16.4168 11.1707 15.9742 11.3285 15.472C11.4863 14.9696 11.4772 14.4326 11.3023 13.9356L11.319 13.9302Z" fill="#3A3B7B"/>
<path d="M17.4934 14.6039C17.3525 14.633 17.2069 14.6347 17.0653 14.609C16.9236 14.5832 16.7888 14.5306 16.6687 14.4541C16.5635 14.3964 16.4731 14.3171 16.4037 14.2218C16.3344 14.1265 16.2879 14.0177 16.2677 13.9031C16.2474 13.7885 16.2539 13.6711 16.2866 13.5592C16.3193 13.4473 16.3775 13.3438 16.4569 13.256C16.5952 13.0796 16.7916 12.9534 17.0142 12.8976C17.5952 12.7358 18.1934 12.6371 18.7975 12.6035C18.9302 12.5887 19.0647 12.5994 19.193 12.6352C19.3213 12.671 19.4409 12.7309 19.5447 12.8117C19.6485 12.8924 19.7345 12.9922 19.7976 13.1052C19.8606 13.2183 19.8996 13.3423 19.912 13.47C20.0862 14.0971 20.1053 14.7547 19.9678 15.3902C19.4662 17.444 17.7386 18.15 15.7993 17.4922C15.2549 17.3163 14.7776 16.9885 14.4284 16.5508C13.9626 16.0237 13.6324 15.399 13.4642 14.7269C13.3281 14.1284 13.343 13.5074 13.5078 12.9157C13.6726 12.3239 13.9825 11.7785 14.4116 11.3251C14.8189 10.8323 15.3475 10.4445 15.9498 10.1966C16.3303 9.99522 16.7757 9.93798 17.1981 10.0361C17.2939 10.0615 17.3809 10.1111 17.45 10.1797C17.5191 10.2483 17.5679 10.3334 17.5912 10.4262C17.6145 10.5189 17.6115 10.616 17.5826 10.7073C17.5536 10.7986 17.4998 10.8808 17.4266 10.9454C17.2874 11.0663 17.1362 11.1738 16.9751 11.2663C16.4797 11.5691 16.0486 11.9593 15.7045 12.4163C15.479 12.7119 15.3237 13.0515 15.2496 13.4109C15.1754 13.7704 15.1843 14.1411 15.2755 14.4969C15.4018 14.9821 15.6823 15.4176 16.0779 15.7431C17.3039 16.8129 18.8978 15.7806 18.6191 14.3204C18.2123 14.4167 17.8557 14.5183 17.4934 14.6039Z" fill="#3A3B7B"/>
<path d="M24.9839 17.6205C23.1727 18.6903 21.1108 17.6205 20.6593 15.3741C20.3306 13.7695 20.9547 11.523 23.1393 10.6672C23.6041 10.489 24.1082 10.4265 24.6049 10.4854C25.2017 10.5902 25.7492 10.8722 26.1701 11.2915C26.591 11.7109 26.8642 12.2464 26.9511 12.8227C27.3189 14.7322 26.483 16.7701 24.9839 17.6205ZM25.6136 14.0208C25.6131 13.5765 25.4493 13.1465 25.1511 12.8067C24.9917 12.5965 24.7612 12.4459 24.499 12.3805C24.2368 12.3152 23.9591 12.3391 23.7133 12.4483C22.7325 12.8548 22.0414 14.331 22.2922 15.4169C22.3114 15.5873 22.369 15.7516 22.4613 15.8984C22.5535 16.0451 22.678 16.1708 22.8261 16.2666C22.9741 16.3623 23.1422 16.4259 23.3186 16.4528C23.495 16.4797 23.6753 16.4693 23.847 16.4224C24.3655 16.2486 24.8144 15.9237 25.1311 15.4932C25.4478 15.0626 25.6165 14.5479 25.6136 14.0208Z" fill="#3A3B7B"/>
<path d="M28.7823 18.0701C28.7549 18.2659 28.6477 18.4432 28.4841 18.5631C28.3206 18.6829 28.1141 18.7356 27.9101 18.7093C27.7062 18.6831 27.5214 18.5801 27.3965 18.4231C27.2716 18.2662 27.2168 18.068 27.2442 17.8722C27.2715 17.6765 27.3788 17.4992 27.5423 17.3793C27.7059 17.2594 27.9124 17.2068 28.1163 17.2331C28.3203 17.2593 28.505 17.3622 28.63 17.5192C28.7548 17.6762 28.8097 17.8744 28.7823 18.0701ZM28.2974 10.8547C28.4034 10.6994 28.5589 10.5811 28.7407 10.5174C28.9225 10.4538 29.1208 10.4483 29.3061 10.5017C29.4945 10.547 29.661 10.6529 29.7777 10.8019C29.8943 10.9509 29.9541 11.1338 29.947 11.3201C29.9224 11.6188 29.8759 11.9155 29.8077 12.2079C29.6238 13.1975 29.4455 14.187 29.2504 15.1658C29.1613 15.5563 29.0442 15.9307 28.916 16.3264C28.8714 16.4502 28.7969 16.562 28.6987 16.6527C28.6376 16.721 28.5596 16.7733 28.4719 16.8049C28.3841 16.8366 28.2894 16.8465 28.1967 16.8337C28.1039 16.8209 28.0159 16.7858 27.941 16.7318C27.8661 16.6777 27.8066 16.6063 27.7681 16.5244C27.7018 16.3773 27.6658 16.2192 27.6621 16.059C27.6621 15.3958 27.6621 14.7272 27.7067 14.0586C27.7825 13.1044 27.9315 12.1569 28.1526 11.2238C28.1786 11.0988 28.2276 10.9792 28.2974 10.8708V10.8547Z" fill="#3A3B7B"/>
<path fill-rule="evenodd" clip-rule="evenodd" d="M3.29866 22.3681C3.23286 22.5091 3.21482 22.6662 3.24697 22.8175C3.26836 23.0169 3.31535 23.213 3.38685 23.4014C3.47613 23.6321 3.57603 23.8602 3.69921 24.1413C3.72753 24.206 3.75714 24.2735 3.78811 24.3446C3.95422 24.7255 4.16265 25.2122 4.44066 25.9167C4.51935 26.1168 4.58922 26.3185 4.65959 26.5217C4.68801 26.6038 4.71654 26.6861 4.74574 26.7686C4.85041 27.0621 5.03051 27.3257 5.26924 27.5346C5.37061 27.6494 5.50507 27.7331 5.65584 27.775C5.80956 27.8176 5.97304 27.8149 6.12512 27.7672C6.2772 27.7195 6.41077 27.6289 6.50849 27.5073C6.6043 27.388 6.66127 27.2443 6.67235 27.0942C6.73451 26.8018 6.71329 26.4986 6.61085 26.2167C6.44825 25.7486 6.26304 25.2798 6.04945 24.8213L6.04847 24.8193C5.69711 24.102 5.33995 23.3896 4.96589 22.6769L4.9631 22.6719C4.85359 22.4863 4.71129 22.3203 4.54257 22.1815C4.43304 22.0575 4.28195 21.974 4.11511 21.9451C3.9447 21.9157 3.76895 21.9454 3.61924 22.0288C3.47761 22.1065 3.36534 22.2252 3.29866 22.3681Z" fill="#3A3B7B"/>
<path fill-rule="evenodd" clip-rule="evenodd" d="M8.66543 20.6019C8.1145 20.4649 7.53913 20.445 6.97942 20.5434C6.5459 20.5844 6.11952 20.6804 5.82345 20.8705C5.67287 20.9672 5.55112 21.0915 5.4834 21.2494C5.41531 21.4082 5.40661 21.5898 5.46242 21.7921C5.5643 22.1627 5.69661 22.523 5.82845 22.8822L5.84981 22.9403L5.85033 22.9416C6.2473 23.9851 6.64806 25.025 7.05247 26.0613C7.09963 26.2246 7.16632 26.3821 7.25119 26.5307L7.25278 26.5335C7.3649 26.7181 7.50871 26.8832 7.67813 27.0219C7.76286 27.0982 7.86764 27.1509 7.98126 27.1745C8.09599 27.1983 8.21531 27.1914 8.32622 27.1545C8.43717 27.1176 8.53541 27.0523 8.61028 26.9655C8.68394 26.8801 8.73217 26.7772 8.74988 26.6678C8.82297 26.3704 8.79956 26.0587 8.68272 25.7744C8.64627 25.6788 8.61766 25.581 8.58752 25.4781C8.57747 25.4438 8.56728 25.4089 8.55653 25.3733C9.48223 25.026 10.4672 24.559 10.8136 23.4727C10.9492 23.0972 10.9605 22.6907 10.8459 22.3088C10.7312 21.9265 10.4959 21.5877 10.1724 21.3389C9.73209 20.9907 9.21775 20.7391 8.66543 20.6019ZM7.13833 21.9344C7.15655 21.9293 7.17492 21.9247 7.19333 21.9203C7.796 21.8294 8.41259 21.9505 8.92958 22.2614C9.15742 22.4135 9.25075 22.5824 9.26678 22.745C9.28333 22.9124 9.2199 23.0938 9.0925 23.2682C8.85176 23.5976 8.41245 23.8613 8.01561 23.9104C7.72631 23.271 7.43253 22.6057 7.13833 21.9344Z" fill="#3A3B7B"/>
<path d="M12.3384 19.4315C12.9944 19.1407 13.8071 19.0905 14.4431 19.2949C14.6032 19.3397 14.7422 19.4366 14.8362 19.5689C14.9296 19.7004 14.9726 19.859 14.9583 20.0174C14.9573 20.1203 14.931 20.2215 14.8815 20.3128C14.8311 20.4057 14.7582 20.4856 14.6688 20.5458C14.5795 20.606 14.4763 20.6446 14.3681 20.6585C14.2599 20.6723 14.1498 20.6609 14.0471 20.6253L14.0393 20.6226L14.032 20.6189C13.9795 20.5925 13.9237 20.5726 13.8659 20.5597L13.8623 20.5589C13.4149 20.4449 12.993 20.6338 12.8388 20.866C12.7653 20.9767 12.7562 21.0885 12.8174 21.1901C12.883 21.299 13.0438 21.4212 13.3692 21.5082C13.4587 21.5318 13.5505 21.5546 13.6435 21.5777C13.9008 21.6417 14.1683 21.7081 14.4269 21.8002L14.4278 21.8005C15.6208 22.2362 16.0651 23.1384 15.913 23.9871C15.7625 24.8263 15.0323 25.5901 13.9341 25.7702C13.5345 25.8553 13.1187 25.8387 12.7277 25.7222C12.3358 25.6054 11.9825 25.3922 11.703 25.1037L11.6957 25.0962C11.6075 24.9875 11.5481 24.8598 11.5218 24.7243C11.4976 24.6021 11.5103 24.4757 11.5585 24.3602C11.6063 24.2453 11.6873 24.1459 11.7917 24.0734C11.9021 23.9913 12.0351 23.942 12.1743 23.9318C12.3131 23.9215 12.4519 23.9505 12.5738 24.015C12.6955 24.0714 12.8087 24.1434 12.9103 24.229L12.9122 24.2306C13.0919 24.3883 13.3094 24.4294 13.5179 24.3914C13.7295 24.3527 13.9285 24.2326 14.0564 24.0732C14.1836 23.9147 14.2346 23.7265 14.174 23.5439C14.1131 23.3599 13.9298 23.1537 13.5272 22.9813C13.4219 22.9384 13.3128 22.9038 13.1993 22.8702C13.1687 22.8611 13.1376 22.852 13.1061 22.8429C13.0221 22.8184 12.9357 22.7932 12.8511 22.7655C12.7927 22.7464 12.7349 22.7283 12.6776 22.7104C12.521 22.6614 12.3683 22.6137 12.2213 22.5497C11.9015 22.4452 11.6252 22.2445 11.4336 21.9774C11.2411 21.7092 11.1443 21.3885 11.1574 21.0631C11.1585 20.2702 11.6788 19.7239 12.3384 19.4315Z" fill="#3A3B7B"/>
<path d="M20.656 19.3468C20.5288 19.2871 20.3881 19.2588 20.2467 19.2644C20.1052 19.27 19.9675 19.3092 19.8458 19.3787C19.7249 19.4477 19.6237 19.5443 19.5511 19.66C19.4846 19.7574 19.4386 19.8663 19.4157 19.9807C19.3927 20.095 19.3933 20.2124 19.4172 20.3264C19.4409 20.4729 19.4672 20.6154 19.4931 20.756C19.5361 20.9885 19.5779 21.2158 19.6055 21.4476L19.6065 21.4535C19.6692 21.817 19.7021 22.1846 19.705 22.553L19.7053 22.5582C19.7268 22.9561 19.5855 23.3462 19.3119 23.6457L19.3076 23.6511C19.2185 23.7606 19.0995 23.8441 18.9637 23.8925C18.828 23.9408 18.681 23.9519 18.539 23.9245C18.3971 23.8972 18.2659 23.8325 18.1601 23.7377C18.0543 23.6428 17.978 23.5213 17.9399 23.3873C17.8585 23.1048 17.8115 22.8142 17.7995 22.5215L17.9384 20.399C17.9405 20.3713 17.9428 20.3429 17.9452 20.3142C17.9505 20.2497 17.9559 20.1841 17.9581 20.1228C17.9614 20.0327 17.9586 19.94 17.9367 19.8523C17.9144 19.7627 17.8718 19.6774 17.7963 19.6048C17.7215 19.5329 17.6205 19.4798 17.4935 19.4437C17.2638 19.3799 17.0696 19.3819 16.9077 19.4479C16.7458 19.5138 16.6348 19.6362 16.5563 19.7776C16.4784 19.9178 16.4283 20.0838 16.3905 20.25C16.3624 20.3734 16.3398 20.5029 16.3184 20.6262C16.3109 20.6687 16.3037 20.7104 16.2963 20.7509L16.2962 20.7521C16.1814 21.4281 16.1472 22.1145 16.1943 22.798C16.2031 23.1674 16.2834 23.532 16.431 23.8731C16.5977 24.3134 16.8994 24.6948 17.2965 24.9671C17.6945 25.2399 18.1694 25.3903 18.6583 25.3982C19.1473 25.4061 19.6272 25.2713 20.0346 25.0116C20.4413 24.7522 20.7565 24.3805 20.9385 23.9457C21.193 23.3917 21.3126 22.7892 21.2879 22.1842C21.2729 21.7425 21.2479 21.2974 21.223 20.8546C21.2107 20.6373 21.1985 20.4206 21.1876 20.2051C21.1821 19.9891 21.1079 19.7798 20.9749 19.6055C20.8926 19.4952 20.783 19.4063 20.656 19.3468Z" fill="#3A3B7B"/>
<path d="M25.1584 22.675C25.1455 22.6907 25.1319 22.707 25.1177 22.7239C25.0142 22.151 24.9183 21.5783 24.8223 21.0047C24.7878 20.7989 24.7532 20.5922 24.7184 20.3861L24.7145 20.3631L24.7018 20.3432C24.6778 20.3059 24.6754 20.2692 24.6754 20.191V20.182L24.6739 20.173C24.648 20.0116 24.5719 19.8613 24.4556 19.742C24.3397 19.6229 24.1892 19.5401 24.0236 19.5041C23.8583 19.465 23.6846 19.4736 23.5243 19.5289C23.3645 19.5841 23.2252 19.6833 23.1238 19.8141C23.0394 19.9144 22.9703 20.0257 22.9185 20.1446C22.801 20.4008 22.6824 20.6576 22.5635 20.9151L22.5615 20.9196C22.2647 21.5624 21.9658 22.2096 21.6757 22.8619L21.6748 22.864C21.4967 23.287 21.3497 23.7326 21.2031 24.1769C21.1739 24.2656 21.1446 24.3542 21.1151 24.4426C21.0622 24.5828 21.0391 24.7317 21.047 24.8806C21.0374 25.0139 21.0706 25.1468 21.1423 25.2615C21.2154 25.3785 21.3249 25.4705 21.4554 25.5247C21.5936 25.5828 21.7482 25.5952 21.8946 25.5598C22.0407 25.5244 22.1704 25.4435 22.2634 25.3297C22.3821 25.1895 22.4842 25.0367 22.5675 24.8747C22.8133 24.3922 23.0482 23.9038 23.282 23.4175C23.3725 23.2294 23.4604 23.0609 23.5604 22.8775C23.5673 22.9001 23.5743 22.9221 23.5815 22.9443C23.6864 23.3872 23.8633 23.8115 24.1058 24.2015C24.1517 24.2842 24.2157 24.3564 24.2932 24.4132C24.3717 24.4707 24.4624 24.5111 24.5588 24.5316C24.6552 24.5521 24.7551 24.5522 24.8516 24.5319C24.9479 24.5116 25.0388 24.4712 25.1174 24.4139L25.2729 24.3022L26.4797 23.3266L26.4084 23.7631C26.3104 24.3631 26.2132 24.9581 26.1099 25.5533C26.0423 25.8171 26.0424 26.0926 26.1102 26.3563C26.1395 26.5048 26.2143 26.6414 26.325 26.7488C26.4366 26.8571 26.5795 26.9307 26.7352 26.9601C26.891 26.9894 27.0523 26.9732 27.1983 26.9134C27.3421 26.8545 27.4645 26.7561 27.55 26.6306C27.749 26.3936 27.8728 26.1068 27.9069 25.8041C27.9581 25.3767 28.016 24.9435 28.0739 24.5104C28.1405 24.0112 28.2072 23.5122 28.2636 23.0227L28.2637 23.0212C28.318 22.4854 28.3442 21.9474 28.3424 21.4091C28.3542 21.239 28.3101 21.0695 28.2161 20.9246C28.1217 20.7793 27.982 20.6663 27.8168 20.6017C27.645 20.5267 27.4527 20.5067 27.2681 20.5446C27.0848 20.5822 26.9188 20.6749 26.7943 20.8093C26.5717 21.0069 26.3629 21.2184 26.1692 21.4423L26.1679 21.4438C25.9564 21.6967 25.7464 21.9546 25.5377 22.2108C25.4108 22.3666 25.2843 22.522 25.1584 22.675Z" fill="#3A3B7B"/>
</g>
<defs>
<clipPath id="clip0_211_2521">
<rect width="32.7153" height="20.186" fill="white" transform="translate(0.296875 7.61914)"/>
</clipPath>
</defs>
</svg>
